<svg width="368" height="629" viewBox="0 0 368 629" fill="none" xmlns="http://www.w3.org/2000/svg">
<g opacity="0.04">
<path d="M16.6363 572.788C2.49229 551.07 2.97482 528.248 13.0896 505.567C20.0878 489.872 28.7211 474.884 37.0471 459.811C47.4661 440.95 58.2939 422.318 68.9895 403.611C72.2505 397.911 75.327 392.06 79.1166 386.726C81.2741 383.686 84.6918 381.539 87.5747 379.026C88.2847 378.407 89.3481 378.091 89.8583 377.362C96.9395 367.219 104.34 357.274 110.915 346.808C148.023 287.726 184.911 228.503 221.931 169.365C227.853 159.906 234.062 150.625 240.113 141.245C241.269 139.452 242.397 137.634 243.402 135.754C249.558 124.252 245.498 113.821 232.663 112.104C212.689 109.431 192.496 108.379 172.393 106.675C171.618 106.61 170.595 106.675 170.051 107.121C159.776 115.556 147.934 112.492 136.612 111.218C129.927 110.468 126.011 103.721 125.756 95.5386C125.483 86.7006 129.878 79.456 137.859 77.3365C147.9 74.6725 157.732 76.2567 166.993 80.9142C168.379 81.6094 169.962 82.9291 170.404 84.3011C171.889 88.8755 175.168 88.8693 179.133 89.0385C197.654 89.8383 216.208 90.472 234.655 92.1763C248.132 93.4221 259.636 99.1655 265.992 112.166C270.328 121.037 271.533 130.592 266.812 139.267C258.357 154.805 248.784 169.731 239.751 184.952C236.093 191.114 232.749 197.463 229.024 203.582C226.996 206.914 224.39 209.891 222.214 213.14C221.639 213.998 221.691 215.278 221.663 215.416C219.407 218.222 217.477 220.624 214.616 224.184C216.15 224.697 217.499 225.15 218.851 225.602C218.575 225.869 218.298 226.14 218.021 226.408C216.549 226.322 215.077 226.232 213.605 226.146C214.149 227.263 214.693 228.376 215.461 229.955C213.915 229.57 212.701 229.269 210.756 228.786C211.435 230.478 211.865 231.548 211.973 231.816C210.673 233 208.61 234.141 208.743 234.907C209.044 236.661 210.415 238.227 211.985 239.512C210.525 238.454 209.065 237.396 206.892 235.821C205.306 242.343 197.952 245.942 199.043 253.903C198.49 253.752 197.371 253.451 194.783 252.756C196.621 255.324 197.62 256.718 198.717 258.247C196.904 257.927 195.315 257.647 193.729 257.367C194.38 258.702 195.035 260.037 195.65 261.295C194.211 261.36 192.549 261.434 190.889 261.508C191.587 262.963 192.284 264.418 193.126 266.174C191.605 265.577 190.268 265.054 188.931 264.528C188.599 264.858 188.264 265.187 187.932 265.516C189.131 267.066 190.326 268.617 192.272 271.136C190.087 269.976 188.737 269.263 187.388 268.546C186.955 268.721 186.521 268.894 186.088 269.069C186.743 270.675 187.394 272.277 187.997 273.757C186.979 273.474 185.384 273.028 182.357 272.185C184.032 274.729 184.84 275.957 185.971 277.673C184.25 276.969 182.975 276.449 181.042 275.658C180.304 278.658 179.652 281.318 178.915 284.318C176.161 283.272 174.166 284.432 175.417 288.978C174.418 288.978 173.555 288.978 172.119 288.978C173.134 290.584 173.856 291.732 175.002 293.543C173.155 292.98 172.07 292.648 170.349 292.122C170.724 293.685 170.958 294.651 170.899 294.414C167.746 299.034 164.765 303.12 162.121 307.411C160.972 309.275 160.545 313.364 159.752 313.373C155.498 313.422 155.725 317.092 154.336 319.227C142.611 337.235 130.886 355.246 119.52 373.479C117.277 377.078 116.551 381.638 115.174 385.769C109.78 401.947 98.8051 414.824 89.7384 428.821C83.3149 438.735 76.6609 448.503 70.1329 458.346C68.3779 460.992 66.8135 463.693 62.7689 462.721C62.0651 462.552 60.6359 463.908 60.0704 464.871C49.0244 483.716 38.1382 502.663 30.8633 523.375C22.1685 548.132 30.5806 568.131 54.0433 579.91C60.4453 583.125 66.3372 587.351 72.6039 590.861C73.8948 591.584 75.9878 591.713 77.4108 591.227C86.4775 588.142 93.8907 582.42 100.336 575.539C104.921 570.641 109.172 565.384 113.174 559.991C116.871 555.008 115.915 552.728 110.438 549.477C105.392 546.481 99.8593 543.78 95.8392 539.676C81.225 524.762 82.3529 503.893 98.802 488.109C106.584 480.64 115.546 474.404 123.961 467.594C127.041 465.099 130.354 462.745 131.255 456.904C128.086 459.116 125.95 460.469 123.967 462.016C113.499 470.172 102.189 477.481 92.8057 486.74C71.8847 507.385 76.9037 537.553 102.696 551.609C105.096 552.916 107.331 554.534 109.553 555.949C105.659 565.753 94.6621 575.286 90.1718 572.952C91.4811 572.336 92.735 571.749 94.7666 570.795C90.934 568.177 87.6423 565.932 84.3476 563.683C84.5136 563.228 84.6795 562.772 84.8455 562.317C87.2305 563.043 89.6186 563.769 92.0036 564.495C89.9566 562.154 88.589 558.586 84.4367 561.336C83.4225 562.006 81.3602 561.086 80.9422 561.037C80.0693 558.582 79.5223 557.041 78.9783 555.503C75.1119 553.913 70.8982 548.935 71.6788 547.394C74.4695 541.891 68.633 540.196 68.6238 536.363C68.4394 537.972 68.6392 539.494 69.1494 540.906C69.6565 542.306 70.474 543.595 71.353 545.321C69.6718 545.684 68.4578 545.948 67.2438 546.21C67.3637 544.635 67.4805 543.057 67.6587 540.706C66.6015 541.531 66.0452 541.965 65.4827 542.405C60.3378 535.071 58.9854 516.81 63.0424 511.455C63.3774 517.007 62.9748 522.947 64.3763 528.426C65.1354 531.389 67.4713 533.465 63.7462 535.923C65.0985 535.329 66.4509 534.735 67.1608 534.422C66.6783 527.153 65.4858 520.108 65.8823 513.156C67.0164 493.329 78.1792 478.791 92.858 466.975C103.019 458.799 114.655 452.477 124.979 444.485C135.733 436.161 146.241 427.366 155.888 417.799C169.747 404.057 182.999 389.673 195.942 375.061C200.973 369.382 204.572 362.402 208.527 355.834C209.044 354.973 208.106 352.798 207.277 351.635C200.813 342.572 195.659 332.965 194.027 321.765C190.413 296.97 200.887 277.956 220.821 265.15C252.914 244.533 294.781 247.658 323.382 272.85C342.705 289.867 350.075 311.367 342.659 336.875C342.493 337.447 342.026 337.933 340.895 338.613C344.356 315.68 339.905 295.361 322.46 279.184C334.594 294.217 341.119 310.663 335.793 330.323C336.208 329.422 336.607 328.511 337.044 327.622C337.462 326.767 337.92 325.933 339.036 323.801C338.399 334.307 335.433 342.477 330.055 349.838C322.838 359.71 312.954 365.767 301.838 370.363C286.344 376.765 270.381 377.605 254.036 375.424C252.923 375.276 251.802 375.227 250.686 375.482C271.005 381.484 290.745 378.611 310.701 370.578C307.729 375.356 287.082 382.545 270.845 382.133C256.323 381.764 243.294 377.26 231.363 369.243C227.457 374.405 223.852 379.484 219.875 384.246C218.519 385.87 216.186 386.655 214.37 387.922C213.328 388.651 212.299 389.476 211.484 390.439C209.791 392.438 208.137 394.493 206.696 396.677C206.275 397.314 206.631 398.464 206.631 398.517C201.17 403.989 195.809 409.357 190.376 414.799C191.089 415.458 191.694 416.017 191.663 415.99C189.641 417.31 187.591 418.438 185.864 419.94C185.501 420.253 186.328 421.936 186.577 422.893C182.458 422.185 179.133 425.215 180.04 428.845C178.521 429.378 176.745 429.522 175.638 430.46C161.058 442.836 146.573 455.326 132.075 467.8C131.876 467.972 131.836 468.326 131.528 469.055C148.07 468.114 163.713 470.63 177.532 479.991C191.796 489.656 199.934 502.807 199.445 520.631C201.932 512.882 201.194 505.545 197.134 498.537C195.902 496.412 194.319 494.366 193.667 492.068C193.139 490.204 192.973 487.318 194.036 486.106C196.781 482.972 197.156 480.222 195.548 476.41C194.383 473.648 194.399 470.387 194.801 467.068C197.131 472.5 199.458 477.933 201.787 483.365C202.196 483.209 202.605 483.055 203.011 482.898C202.304 481.123 201.732 479.28 200.865 477.588C187.822 452.059 203.757 433.807 222.576 427.796C239.95 422.247 256.845 423.037 272.996 432.226C274.49 433.075 276.355 433.549 278.083 433.657C283.922 434.02 288.259 436.887 290.46 442.046C293.084 448.201 295.399 454.581 296.935 461.081C298.644 468.301 294.135 475.884 287.697 478.296C281.623 480.572 274.17 477.927 270.571 471.082C266.493 463.318 262.03 455.473 263.001 446.023C263.115 444.919 261.815 442.928 260.749 442.553C249.005 438.428 237.519 439.105 226.566 445.236C219.294 449.305 216.694 456.055 218.47 463.693C220.917 474.214 224.319 484.528 227.583 494.846C240.971 537.129 236.656 577.049 210.777 613.539C195.382 635.248 173.272 646.449 147.083 648.931C137.18 649.87 127.062 648.415 117.04 648.282C109.827 648.187 104.005 643.908 97.3483 642.198C97.2284 642.281 97.1086 642.361 96.9887 642.444C97.7294 643.222 98.4701 644 99.2108 644.782C98.9526 645.077 98.6976 645.369 98.4394 645.664C96.8473 644.234 95.2584 642.804 92.7074 640.509C77.8872 634.064 65.7071 622.325 54.449 607.098C58.6381 607.098 62.3478 608.082 64.991 606.821C67.6403 605.56 70.9934 609.266 72.5271 604.861C67.7571 592.692 66.1866 591.661 53.7053 585.016C46.7009 581.288 39.5797 576.889 34.1888 571.198C21.4494 557.752 17.9948 541.288 25.1344 524.166C32.6951 506.031 41.8725 488.567 50.4535 470.864C52.4789 466.686 54.9531 462.724 57.2182 458.66C56.8402 458.442 56.4621 458.22 56.0841 457.999C54.7103 460.201 53.2412 462.355 51.978 464.619C40.3173 485.55 28.2601 506.274 21.2588 529.444C14.2052 552.796 21.3479 571.709 42.3089 584.087C46.5472 586.591 50.9084 588.883 55.1651 591.357C56.7971 592.304 58.2908 593.488 59.8399 594.559C57.713 596.008 56.1948 597.7 54.3845 598.112C51.9226 598.672 48.9107 599.044 46.7039 598.124C37.0625 594.104 28.6474 588.216 21.9595 580.036C21.4832 579.455 20.6134 579.199 19.9249 578.79C18.8308 576.791 17.7335 574.791 16.6363 572.788ZM94.5822 634.476C99.4721 636.543 104.23 639.072 109.292 640.527C113.026 641.601 117.163 641.284 121.118 641.585C121.939 642.151 122.726 643.148 123.583 643.21C129.626 643.649 135.705 644.412 141.726 644.114C171.422 642.647 195.662 630.339 210.75 604.418C234.369 563.843 235.712 522.077 213.826 479.957C210.688 473.915 208.174 467.354 206.619 460.74C205.088 454.224 207.452 448.343 214.183 443.679C211.539 450.428 209.8 456.319 212.403 462.961C215.384 445.805 220.363 439.981 235.217 436.484C244.702 434.25 254.128 434.65 263.26 438.308C265.807 439.329 267.934 439.824 268.97 435.973C267.258 434.97 265.691 433.752 263.92 433.06C246.048 426.077 228.99 428.593 213.181 438.674C202.645 445.392 199.445 456.821 203.945 468.523C205.82 473.395 208.146 478.222 211.054 482.538C219.583 495.203 224.765 508.883 226.071 524.178C228.434 551.849 224.749 578.196 210.239 602.397C190.431 635.433 154.656 647.372 121.032 641.662C119.271 641.429 117.449 641.413 115.761 640.927C108.649 638.884 101.577 636.703 94.49 634.572C94.112 634.129 93.8046 633.581 93.3405 633.255C86.0257 628.087 78.6955 622.937 71.35 617.815C70.8152 617.443 70.1114 617.311 69.4844 617.068C77.0297 624.226 84.28 631.625 94.5822 634.476ZM155.652 302.089C156.678 302.465 157.702 302.84 158.903 303.283C160.32 299.973 161.218 296.69 162.994 293.986C166.295 288.975 170.186 284.355 173.622 279.427C174.099 278.744 173.761 276.919 173.137 276.206C172.593 275.584 171.108 275.787 170.042 275.624C170.509 276.646 170.976 277.67 171.588 279.005C170.254 279.473 168.932 279.934 167.598 280.396C168.164 281.278 168.729 282.161 169.651 283.607C167.906 283.158 166.821 282.881 166.101 282.697C163.529 287.151 161.113 291.156 158.885 295.263C157.68 297.481 156.795 299.868 155.765 302.178C154.53 303.56 153.294 304.941 151.77 306.645C149.311 304.984 149.834 307.796 149.738 309.835C148.795 310.598 147.562 311.183 146.957 312.155C144.403 316.255 142.039 320.47 139.602 324.644C138.865 323.374 138.892 322.343 139.359 321.586C148.365 307.045 157.428 292.537 166.47 278.015C179.612 256.915 192.668 235.766 205.893 214.721C218.787 194.209 232.042 173.921 244.72 153.276C248.71 146.779 252.17 139.698 254.396 132.432C257.334 122.84 252.88 114.261 243.718 110.181C238.678 107.936 233.266 106.428 227.899 105.053C223.133 103.832 218.2 103.257 213.344 102.395C213.414 101.977 213.485 101.559 213.556 101.14C221.62 102.054 229.759 102.559 237.738 103.967C255.979 107.194 264.197 122.797 256.028 139.372C251.258 149.047 245.39 158.214 239.575 167.332C229.304 183.439 218.51 199.217 208.285 215.352C197.488 232.388 187.29 249.809 176.364 266.759C174.231 270.066 174.793 271.102 178.159 273.302C178.657 267.503 186.721 265.565 183.866 258.622C185.055 258.865 186.343 259.13 188.679 259.606C187.48 257.425 186.863 256.306 186.097 254.912C188.049 255.263 190.717 257.921 189.746 253.392C189.644 252.928 189.515 252.236 189.755 251.968C191.335 250.184 193.259 248.661 194.608 246.729C197.297 242.872 199.679 238.796 202.208 234.824C211.914 219.588 221.67 204.379 231.326 189.111C241.057 173.73 251.165 158.564 260.241 142.805C270.187 125.541 263.26 106.422 244.53 99.9222C236.333 97.0767 227.239 96.3845 218.476 95.7016C203.619 94.5419 188.701 94.1666 173.441 93.4437C173.167 95.6555 172.98 97.1844 172.743 99.0885C181.933 99.5623 190.701 100.018 199.473 100.47C199.458 100.82 199.442 101.168 199.427 101.519C192.186 101.519 184.945 101.519 179.311 101.519C185.901 100.436 194.368 106.069 201.274 101.39C203.361 102.34 204.679 103.3 206.121 103.543C216.104 105.235 226.403 105.779 236.041 108.6C251.365 113.082 255.428 125.646 246.844 139.098C235.632 156.673 224.051 174.013 213.002 191.689C184.382 237.476 155.947 283.38 127.484 329.265C119.797 341.656 112.27 354.142 104.635 366.638C107.866 368.385 110.875 370.009 113.905 371.646C115.457 369.133 116.988 366.506 118.663 363.971C125.643 353.413 132.822 342.985 139.608 332.307C143.831 325.665 147.476 318.658 151.383 311.813C156.064 308.823 157.613 305.301 155.652 302.089ZM270.743 368.317C283.892 367.262 297.301 365.426 309.355 357.548C334.038 341.413 341.359 308.051 320.029 284.389C316.218 280.159 311.682 276.532 307.231 272.936C285.56 255.423 246.011 254.5 223.756 274.778C202.082 294.531 200.804 321.962 215.437 340.717C229.095 358.221 247.523 367.702 270.743 368.317ZM139.316 472.968C134.783 473.518 130.099 473.515 125.75 474.727C115.205 477.668 108.182 485.885 100.754 493.126C83.7636 509.683 89.9013 534.225 109.565 544.041C113.416 545.964 116.659 549.105 120.227 551.618C120.802 552.024 121.604 552.193 122.326 552.288C126.522 552.842 130.87 552.827 134.903 553.953C148.103 557.641 160.48 555.734 172.599 549.772C196.455 538.036 201.723 511.381 183.928 491.561C172.021 478.305 156.697 473.355 139.316 472.968ZM126.691 576.637C126.435 576.474 126.177 576.308 125.922 576.145C125.166 577.049 124.41 577.953 123.719 578.778C122.778 577.514 121.93 576.369 121.346 575.582C109.531 586.358 97.8985 596.971 86.204 607.639C96.8566 616.994 109.866 623.731 124.785 626.063C147.218 629.57 167.312 624.374 184.714 609.187C195.035 600.179 200.02 588.16 205.208 576.111C206.877 572.235 207.341 568.989 204.246 565.27C201.612 562.105 200.125 561.92 196.811 564.369C192.014 567.916 186.724 570.906 181.355 573.542C175.651 576.345 169.787 579.264 163.658 580.633C158.12 581.87 152.13 581.134 146.339 581.104C145.804 581.101 145.276 579.901 144.781 579.301C143.447 580.365 142.119 581.427 140.792 582.488C140.58 582.245 140.364 582.002 140.152 581.756C140.749 580.971 141.345 580.184 141.941 579.399C141.772 579.141 141.603 578.886 141.431 578.627C139.433 579.553 137.438 580.476 134.706 581.74C135.382 579.858 135.665 579.067 136.058 577.966C133.824 578.956 132.051 579.744 130.277 580.528C130.093 580.141 129.908 579.75 129.724 579.362C130.459 578.87 131.193 578.375 131.928 577.883C131.673 577.56 131.418 577.237 131.159 576.914C129.607 577.87 128.055 578.83 126.147 580.008C126.368 578.676 126.528 577.655 126.691 576.637ZM197.589 489.419C198.843 491.859 200.014 494.348 201.363 496.735C207.31 507.255 206.8 517.798 201.36 528.257C189.134 551.765 162.41 564.892 136.793 558.795C126.961 556.457 120.756 558.078 114.618 566.347C107.435 576.025 99.552 585.503 88.5613 591.44C84.698 593.528 80.724 595.408 76.6179 597.475C77.4323 599.469 78.1423 601.21 79.2487 603.929C85.789 599.432 92.4461 595.959 97.6925 590.987C105.877 583.235 113.161 574.523 120.703 566.107C123.353 563.151 126.051 561.914 130.185 562.957C143.681 566.362 157.188 566.264 170.383 561.477C188.304 554.977 201.317 543.164 207.965 525.048C212.544 512.574 207.943 496.175 197.589 489.419ZM79.0674 608.611C78.5634 608.888 78.0593 609.165 77.5553 609.442C78.0839 610.829 78.2468 612.598 79.2149 613.521C81.3356 615.545 83.7944 617.246 86.2439 618.895C110.263 635.067 136.277 640.272 163.981 631.003C200.905 618.649 216.777 582.703 218.307 547.779C217.533 549.926 217.056 550.913 216.823 551.953C215.418 558.18 214.468 564.538 212.627 570.629C206.751 590.089 197.362 607.482 179.843 618.843C151.291 637.359 115.061 635.581 87.627 614.958C84.7902 612.826 81.9226 610.728 79.0674 608.611ZM54.8517 448.733C55.494 446.42 55.663 444.513 56.5175 442.996C58.297 439.843 60.4792 436.92 62.4124 433.85C63.2022 432.598 63.7616 431.202 64.4623 429.888C64.5822 429.661 71.4668 421.155 71.5835 420.964C74.8014 415.731 77.9978 410.489 81.2649 405.288C82.0579 404.023 83.0783 402.904 84.5781 400.962C84.3015 400.987 85.3219 400.898 86.456 400.796C85.7767 399.117 85.2235 397.751 84.3292 395.533C86.1548 396.459 86.9969 396.883 88.3308 397.56C87.9989 395.622 87.7714 394.284 87.5409 392.949C87.9405 393.247 88.3431 393.543 88.7426 393.841C90.8234 390.842 92.9041 387.839 94.9264 384.92C89.4126 382.813 87.4948 383.289 84.0218 389.067C73.1295 407.179 62.3601 425.363 51.5815 443.544C51.0375 444.46 50.8254 445.577 50.3798 446.826C52.2577 447.629 53.8589 448.312 54.8517 448.733ZM132.874 450.099C140.149 443.774 147.87 437.868 154.637 431.02C170.515 414.953 185.959 398.458 201.471 382.034C202.31 381.145 202.153 379.312 202.46 377.921C201.2 378.546 199.614 378.872 198.732 379.841C192.887 386.264 187.606 393.253 181.37 399.255C165.327 414.698 148.924 429.765 132.552 444.86C130.28 446.949 129.005 448.324 132.874 450.099ZM101.086 561.702C99.7394 560.911 98.3748 560.148 97.0502 559.324C73.8456 544.862 62.9502 513.876 82.8078 488.866C91.4995 477.921 102.22 469.421 113.659 461.663C118.042 458.691 122.375 455.642 126.731 452.628C126.537 452.105 126.343 451.579 126.15 451.056C124.502 451.425 122.551 451.348 121.26 452.234C107.214 461.863 92.8518 471.048 82.0056 484.667C58.3339 514.38 73.3354 549.775 101.086 561.702ZM203.705 370.495C207.077 373.076 209.806 375.411 212.806 377.318C213.789 377.943 216.091 378.044 216.755 377.365C221.47 372.55 225.917 367.471 230.45 362.476C230.048 362.113 229.642 361.75 229.239 361.387C228.204 362.183 227.165 362.98 226.129 363.777C225.966 363.577 225.803 363.377 225.64 363.177C226.443 362.079 227.245 360.981 227.936 360.036C224.623 357.052 221.562 354.296 217.994 351.081C213.076 357.754 208.454 364.038 203.705 370.495ZM14.4634 547.908C13.5352 526.728 20.3829 507.791 30.2702 489.681C36.2388 478.751 42.3212 467.886 48.2529 456.938C48.8308 455.873 48.714 454.433 48.9168 453.166C47.8964 453.871 46.5134 454.35 45.9171 455.319C41.4514 462.573 36.6968 469.701 32.8826 477.296C26.7849 489.432 20.8347 501.691 15.7727 514.282C11.4207 525.11 11.4299 536.581 14.4634 547.908ZM281.7 449.998C275.676 450.004 271.1 454.492 271.02 460.478C270.934 466.895 277.468 474.684 282.985 474.743C288.52 474.798 292.771 469.538 292.672 462.755C292.55 454.489 288.68 449.991 281.7 449.998ZM208.515 341.77C203.29 328.434 200.005 316.129 202.685 302.874C205.374 289.563 213.211 279.467 222.398 270.072C197.583 283.626 190.265 319.605 208.515 341.77ZM136.732 458.223C163.864 436.419 189.269 412.926 209.388 384.271C187.797 411.486 162.822 435.398 136.732 458.223ZM211.939 536.194C210.786 537.135 210.458 537.286 210.307 537.544C195.395 562.849 173.524 575.314 143.966 573.401C138.062 573.019 132.192 572.124 125.415 571.364C142.814 575.649 159.401 576.686 175.577 570.598C191.949 564.44 204.348 553.596 211.939 536.194ZM287.079 446.131C284.629 439.788 280.185 437.111 275.424 438.806C268.899 441.129 266.207 447.084 268.663 454.606C272.271 446.097 278.971 444.537 287.079 446.131ZM111.028 378.038C104.294 370.089 98.8543 370.514 95.4858 379.007C97.0041 379.813 98.5808 380.61 100.117 381.478C102.1 382.594 104.055 383.769 106.022 384.917C107.06 382.973 108.047 381.001 109.178 379.112C109.442 378.669 110.186 378.506 111.028 378.038ZM132.269 96.1631C138.443 83.209 149.053 83.1075 160.502 84.9286C153.556 81.8678 146.567 81.1849 139.365 82.4861C135.093 83.2552 130.342 89.906 132.269 96.1631Z" fill="#041C33"/>
<path d="M349.239 529.103C348.794 538.064 343.729 544.742 339.088 551.412C327.47 568.116 315.428 584.518 303.605 601.077C298.653 608.011 292.276 611.217 283.646 609.525C280.111 608.833 276.586 614.01 277.48 617.597C277.911 619.323 277.772 621.833 276.786 623.177C265.724 638.266 254.522 653.253 243.135 668.099C241.582 670.124 238.623 671 236.665 672.794C233.496 675.698 230.177 678.602 227.697 682.062C216.045 698.333 204.661 714.793 193.182 731.187C192.054 732.799 191.027 734.494 189.776 736.007C186.309 740.203 182.898 740.483 178.786 737.041C174.818 733.715 174.538 731.482 177.762 726.889C188.329 711.843 198.935 696.828 209.526 681.804C213.254 676.516 217.007 671.246 220.683 665.924C221.212 665.162 221.863 663.95 221.608 663.267C219.967 658.892 222.33 655.634 224.399 652.3C233.216 638.069 242.034 623.839 250.929 609.657C252.708 606.821 254.122 603.735 258.548 603.631C261.32 603.566 263.419 596.955 261.729 594.51C256.79 587.37 256.464 579.833 261.053 572.761C275.43 550.596 290.085 528.614 304.871 506.72C307.17 503.315 310.591 500.934 311.457 496.307C311.817 494.4 315.315 491.991 317.564 491.785C321.142 491.456 325.54 491.745 328.411 493.6C337.579 499.531 346.412 506.043 354.885 512.937C357.031 514.681 358.349 518.699 358.281 521.634C358.168 526.682 354.698 529.417 349.239 529.103ZM287.18 588.326C286.652 587.979 286.123 587.628 285.597 587.281C285.997 586.444 286.295 585.536 286.811 584.78C296.081 571.207 305.406 557.672 314.657 544.084C319.516 536.944 324.461 529.847 328.859 522.427C329.711 520.994 328.208 518.161 327.79 515.974C326.732 516.364 325.233 516.441 324.692 517.201C321.093 522.246 317.703 527.442 314.239 532.582C303.051 549.178 291.886 565.79 280.618 582.331C279.988 583.254 278.504 583.595 277.419 584.207C277.127 583.764 276.838 583.325 276.546 582.882C285.204 569.958 293.831 557.014 302.535 544.121C309.601 533.65 316.731 523.221 323.899 512.817C326.013 509.744 325.245 507.843 322.024 506.277C315.994 503.339 310.975 504.85 305.904 512.368C292.78 531.822 279.733 551.335 267.049 571.075C259.713 582.491 261.944 591.083 273.239 598.703C274.459 599.527 275.756 600.238 277.013 601.01C287.807 607.636 293.865 606.652 301.355 596.423C312.379 581.371 323.201 566.168 333.98 550.935C336.804 546.945 339.586 542.811 341.583 538.378C343.366 534.428 346.999 530.06 342.078 525.657C344.918 520.763 339.5 520.28 337.984 516.807C320.718 541.116 303.949 564.719 287.18 588.326ZM257.392 608.285C255.923 610.494 254.801 612.084 253.775 613.733C246.589 625.275 239.489 636.872 232.227 648.368C224.844 660.052 224.774 660.009 236.422 667.416C236.665 667.57 237.028 667.543 237.341 667.592C237.605 667.41 237.94 667.281 238.122 667.038C249.069 652.408 259.98 637.749 270.962 623.14C273.374 619.929 270.992 617.554 269.185 616.028C265.767 613.146 261.698 611.038 257.392 608.285ZM184.985 734.641C198.016 716.009 210.974 697.484 223.741 679.235C222.33 677.153 221.365 675.728 220.099 673.864C218.974 676.036 218.627 676.956 218.077 677.734C206.275 694.49 194.522 711.28 182.575 727.932C180.224 731.208 180.332 733.122 184.985 734.641ZM351.216 524.35C351.839 524.316 352.46 524.279 353.084 524.245C352.9 521.649 353.724 518.191 352.365 516.601C344.27 507.12 334.241 500.076 322.522 495.72C319.71 494.674 316.639 494.923 315.391 498.694C330.006 504.493 347.036 516.712 351.216 524.35ZM277.293 606.249C273.82 603.846 270.783 601.748 267.753 599.65C262.387 606.938 263.011 608.383 273.267 611.272C272.157 609.7 271.327 608.525 270.236 606.978C271.779 606.445 272.907 606.055 274.29 605.578C273.915 606.839 273.669 607.664 273.325 608.817C274.149 608.531 274.49 608.494 274.727 608.316C275.578 607.667 276.398 606.975 277.293 606.249ZM222.459 670.883C227.159 674.975 228.625 674.593 230.131 669.259C228.643 668.185 227.116 667.081 225.441 665.875C224.374 667.666 223.48 669.167 222.459 670.883Z" fill="#041C33"/>
<path d="M332.096 404.648C336.199 398.135 339.367 391.804 347.048 389.682C353.493 387.901 358.693 390.048 363.273 394.053C367.938 398.132 368.98 403.666 367.155 409.382C365.562 414.359 363.777 419.438 361.075 423.859C353.078 436.951 344.589 449.739 336.288 462.647C335.934 463.198 335.605 463.77 335.206 464.284C331.001 469.685 329.363 469.91 326.032 464.142C316.685 447.955 307.505 431.666 298.703 415.181C295.217 408.653 295.537 401.781 300.958 395.973C305.532 391.075 313.446 389.094 319.519 392.103C323.038 393.847 325.93 396.963 328.884 399.701C330.141 400.87 330.832 402.648 332.096 404.648ZM323.843 435.293C328.481 426.381 332.483 418.697 337.007 410.013C339.53 416.1 341.605 421.106 343.781 426.363C348.788 423.496 351.486 417.654 357.83 419.534C358.159 419.632 359.019 418.857 359.219 418.328C360.958 413.79 363.454 409.33 364.063 404.629C364.849 398.56 359.459 393.595 353.929 393.383C352.897 395.287 351.99 396.96 351.083 398.631C350.02 396.822 348.957 395.013 347.878 393.17C341.817 394.921 340.557 396.757 341.832 402.402C342.229 404.152 342.877 405.844 343.424 407.561C344.721 411.634 346.024 415.707 347.325 419.78C346.658 420.053 345.991 420.33 345.324 420.604C342.754 414.778 340.182 408.954 337.563 403.017C332.723 411.597 328.005 419.964 323.287 428.329C322.715 428.061 322.144 427.793 321.575 427.526C322.51 424.84 323.266 422.075 324.421 419.487C325.687 416.648 327.402 414.015 328.749 411.206C329.29 410.08 329.815 408.644 329.582 407.505C327.959 399.569 317.709 393.161 309.785 394.967C303.629 396.37 299.708 402.301 300.666 408.754C301.911 417.125 304.779 419.869 312.299 419.355C315.029 419.168 316.409 419.958 317.475 422.521C319.098 426.431 321.225 430.122 323.843 435.293ZM336.531 417.509C332.372 425.335 329.99 433.54 322.599 439.717C320.026 435.121 317.392 431.186 315.545 426.907C313.735 422.714 311.313 421.905 306.875 424.286C314.592 437.508 322.291 450.699 330.786 465.253C340.142 450.364 348.597 436.908 357.055 423.453C356.53 422.893 356.007 422.333 355.482 421.776C353.905 422.481 352.125 422.924 350.794 423.951C348.861 425.443 347.232 427.338 345.511 429.098C343.388 431.269 341.918 430.903 340.833 428.089C339.543 424.739 338.135 421.432 336.531 417.509Z" fill="#041C33"/>
<path d="M160.735 215.173C162.871 214.887 165.007 214.377 167.143 214.37C170.334 214.358 171.963 213.284 171.944 209.805C171.88 198.639 171.923 187.472 172.076 176.308C172.132 172.321 170.561 170.513 166.51 170.876C165.053 171.005 163.563 170.688 162.088 170.716C157.41 170.799 155.467 168.747 155.403 163.877C155.295 156.045 154.954 155.993 147.227 155.79C145.915 155.756 144.603 155.728 143.29 155.737C133.08 155.805 131.175 154.864 131.07 166.298C131.039 169.879 128.602 170.399 125.778 170.694C115.466 171.774 115.488 171.805 115.546 182.374C115.595 190.914 115.697 199.454 115.58 207.99C115.519 212.442 116.948 214.955 121.856 214.324C122.978 214.18 124.183 214.223 125.28 214.475C125.934 214.626 126.46 215.349 127.044 215.813C126.463 216.481 126.008 217.49 125.28 217.76C118.192 220.391 112.264 216.462 112.168 208.975C112.033 198.137 112.089 187.3 112.055 176.462C112.033 169.553 113.644 167.775 120.562 167.209C122.667 167.036 124.782 166.969 127.244 166.833C127.49 164.683 127.736 162.764 127.929 160.838C128.528 154.898 130.655 152.677 136.645 152.357C141.062 152.123 145.506 152.132 149.929 152.295C156.211 152.526 158.75 154.787 158.608 161.044C158.495 166.117 160.326 167.442 165.176 167.316C173.948 167.089 175.525 168.904 175.568 177.536C175.617 187.389 175.589 197.242 175.617 207.095C175.645 217.102 170.997 220.255 161.144 216.899C161.003 216.327 160.87 215.752 160.735 215.173Z" fill="#041C33"/>
<path d="M16.6363 572.788C17.7335 574.791 18.8308 576.791 19.928 578.793C27.9804 589.945 39.3061 597.075 51.1113 603.622C50.9115 603.984 50.7117 604.348 50.5119 604.711C45.9724 602.653 41.4329 600.591 36.4662 598.34C36.0329 599.229 35.5288 600.259 34.9264 601.496C33.8261 601.133 32.6429 600.739 30.851 600.142C32.0589 599.023 32.8887 598.257 34.5115 596.752C29.7262 596.171 28.1495 588.733 21.8243 593.027C13.3662 585.229 6.95802 575.929 2.44619 565.307C1.22295 562.425 3.65405 558.545 0.076553 556.18C-0.135515 556.041 0.119581 554.503 0.396192 554.423C5.58111 552.891 2.32325 549.363 1.60099 547.317C-0.84241 540.39 1.28442 534.133 3.44813 527.697C1.37355 539.556 4.33943 550.609 8.96191 561.219C10.7814 565.396 14.0362 568.949 16.6363 572.788Z" fill="#041C33"/>
<path d="M158.12 670.01C167.992 670.022 175.242 677.473 175.276 687.637C175.31 697.142 167.638 704.605 157.914 704.537C148.512 704.47 141.025 696.785 140.927 687.107C140.835 677.685 148.564 669.997 158.12 670.01ZM145.571 688.295C146.087 695.419 147.682 696.856 153.829 695.536C152.548 700.006 155.043 700.969 158.725 701.36C163.354 701.849 162.628 698.219 163.348 695.466C164.703 695.666 165.803 695.961 166.904 695.964C170.561 695.979 170.939 693.18 171.228 690.537C171.557 687.535 169.412 687.633 167.331 687.667C165.788 687.692 164.242 687.541 162.699 687.467C162.721 687.018 162.739 686.569 162.761 686.12C165.364 685.942 167.97 685.763 170.702 685.576C170.383 680.26 169.369 676.35 162.951 678.691C163.056 676.934 163.136 675.559 163.234 673.886C159.832 673.886 156.853 673.886 153.961 673.886C153.666 676.125 153.445 677.808 153.205 679.611C147.384 677.036 145.7 678.38 145.389 685.526C148.091 685.76 150.814 685.994 153.534 686.228C153.503 686.603 153.476 686.978 153.445 687.354C150.814 687.667 148.174 687.984 145.571 688.295Z" fill="#041C33"/>
<path d="M295.346 203.207C295.632 197.743 292.62 195.147 288.29 193.673C283.341 191.991 278.304 193.827 275.384 198.18C272.926 201.844 273.294 206.99 276.272 210.513C280.231 215.195 285.585 215.749 294.28 212.088C297.012 218.348 301.834 223.679 302.969 230.681C302.388 231.025 301.807 231.37 301.223 231.714C298.125 226.414 295.03 221.113 291.932 215.813C285.588 219.523 279.072 218.514 274.103 213.235C269.468 208.31 268.973 201.192 272.882 195.596C276.77 190.028 284.239 188.13 290.924 191.013C297.347 193.781 299.898 200.346 298.306 209.424C294.621 208.153 290.847 206.969 287.186 205.502C286.384 205.182 285.991 203.85 285.407 202.982C286.301 202.512 287.242 201.57 288.078 201.656C290.321 201.893 292.522 202.567 295.346 203.207Z" fill="#041C33"/>
<path d="M203.017 143.06C203.047 149.859 196.034 156.451 188.737 156.485C181.029 156.519 174.624 150.289 174.452 142.59C174.283 134.945 180.645 128.556 188.458 128.525C196.882 128.488 202.977 134.573 203.017 143.06ZM189.773 141.617C189.902 143.946 189.991 145.558 190.081 147.17C189.033 146.985 187.195 147.022 187.072 146.579C186.586 144.835 186.051 142.725 186.629 141.153C187.582 138.563 189.887 137.434 192.625 138.898C194.887 140.107 197.011 141.574 200.244 143.574C199.565 141.07 199.35 139.51 198.729 138.138C196.63 133.499 189.918 130.521 185.483 132.133C179.981 134.13 177.147 139.344 178.414 145.146C179.511 150.172 184.659 154.279 189.773 153.04C192.791 152.307 195.315 149.53 198.059 147.671C196.083 145.915 194.147 144.109 192.106 142.433C191.562 141.984 190.695 141.925 189.773 141.617Z" fill="#041C33"/>
<path d="M165.837 751.505C165.063 753.09 164.436 754.366 164.088 755.074C165.376 757.445 167.073 759.242 167.266 761.189C167.743 765.96 165.004 771.353 171.772 774.691C171.145 775.122 170.518 775.552 169.894 775.986C166.873 774.279 163.855 772.574 160.704 770.796C165.13 765.684 164.798 760.377 160.013 757.63C160.892 756.329 161.759 755.046 162.877 753.397C157.566 751.468 153.058 752.364 149.105 755.787C145.061 759.291 143.88 764.121 145.973 768.72C147.473 772.014 150.359 775.309 153.488 777.044C156.463 778.693 160.557 778.318 164.147 778.828C162.189 782.544 156.405 783.074 150.679 780.022C142.353 775.586 139.141 765.354 143.552 757.307C147.993 749.198 157.308 746.614 165.837 751.505Z" fill="#041C33"/>
<path d="M268.998 671.846C269.185 666.478 272.495 665.165 275.526 664.168C281.132 662.322 287.718 665.294 290.644 670.545C293.634 675.916 292.546 682.93 288.05 687.273C283.215 691.94 277.164 692.574 271.389 689.012C265.921 685.64 263.822 680.02 266.305 672.471C267.498 675.928 268.214 678.236 269.084 680.484C271.088 685.668 275.627 688.476 280.575 687.686C285.032 686.972 288.821 682.358 288.987 677.476C289.123 673.471 287.438 670.533 283.916 668.635C280.326 666.697 276.773 666.355 273.27 668.835C272.142 669.625 271.02 670.419 268.998 671.846Z" fill="#041C33"/>
<path d="M159.426 371.378C152.698 371.283 147.744 366.066 147.913 359.255C148.076 352.752 153.497 347.516 160.077 347.507C166.722 347.497 172.006 352.804 171.916 359.402C171.83 366.016 166.138 371.474 159.426 371.378ZM159.884 368.259C164.844 368.204 168.649 364.078 168.557 358.864C168.471 354.056 164.583 350.577 159.355 350.626C155.077 350.666 151.444 354.908 151.57 359.713C151.696 364.592 155.314 368.311 159.884 368.259Z" fill="#041C33"/>
<path d="M142.516 202.991C135.911 203.139 131.298 200.044 130.345 195.476C129.174 189.865 132.069 184.839 137.712 182.688C146.247 179.44 155.203 182.953 156.485 190.056C157.674 196.657 155.354 200.438 148.85 202.072C146.49 202.665 144.013 202.785 142.516 202.991ZM153.943 192.634C153.98 187.733 150.178 184.337 144.446 184.146C139.227 183.974 133.345 188.345 133.172 192.526C133.037 195.855 137.955 201.06 141.369 201.201C147.172 201.438 153.912 196.848 153.943 192.634Z" fill="#041C33"/>
<path d="M245.962 713.332C240.743 713.071 237.246 709.133 237.59 703.907C237.931 698.729 242.225 694.936 247.468 695.183C252.395 695.416 256.274 699.757 255.935 704.667C255.582 709.792 251.205 713.597 245.962 713.332ZM246.623 698.311C242.824 698.548 241.315 700.849 241.177 704.141C241.02 707.909 243.144 710.062 246.786 710.081C250.434 710.099 252.573 707.933 252.453 704.19C252.333 700.48 249.97 698.763 246.623 698.311Z" fill="#041C33"/>
<path d="M150.464 243.308C150.433 248.267 145.863 252.768 140.951 252.676C136.043 252.583 131.875 248.064 131.928 242.89C131.98 237.688 135.988 234.043 141.643 234.055C146.545 234.067 150.494 238.208 150.464 243.308ZM135.038 243.127C135.591 246.606 137.355 249.156 141.154 249.575C144.169 249.904 147.771 246.394 147.449 243.339C147.061 239.66 144.913 237.273 141.05 237.19C137.266 237.104 135.557 239.488 135.038 243.127Z" fill="#041C33"/>
<path d="M215.332 745.033C215.332 740.465 215.332 736.26 215.332 731.565C219.564 731.565 223.723 731.565 228.357 731.565C228.357 735.866 228.357 740.311 228.357 745.033C223.993 745.033 219.807 745.033 215.332 745.033ZM225.625 733.608C222.592 734.386 220.016 734.306 219.119 735.493C218.264 736.626 218.578 739.477 219.487 740.818C220.09 741.707 223.879 741.834 224.113 741.323C225.016 739.351 225.066 736.989 225.625 733.608Z" fill="#041C33"/>
<path d="M317.909 250.353C315.493 246.865 313.178 244.973 312.936 242.844C312.539 239.38 314.887 236.935 318.637 237.174C321.929 237.387 324.575 239.531 323.831 242.847C323.321 245.123 320.73 246.929 317.909 250.353Z" fill="#041C33"/>
<path d="M134.144 43.9286C138.007 44.0024 141.025 47.3525 140.881 51.4069C140.752 55.0553 137.417 58.3315 133.925 58.2485C130.514 58.1654 127.019 54.2371 127.099 50.5733C127.179 46.9187 130.422 43.8579 134.144 43.9286ZM133.037 55.9013C133.658 55.9075 134.276 55.9136 134.897 55.9198C135.939 54.2032 137.816 52.4621 137.764 50.7794C137.721 49.4012 135.379 48.0938 134.058 46.7557C132.733 48.0661 130.413 49.3274 130.342 50.7025C130.253 52.3852 132.054 54.1663 133.037 55.9013Z" fill="#041C33"/>
<path d="M133.329 140.412C129.5 140.282 126.454 137.111 126.654 133.462C126.869 129.528 130.326 126.381 134.131 126.655C137.795 126.919 140.825 130.315 140.616 133.924C140.41 137.489 136.99 140.535 133.329 140.412ZM139.519 133.733C136.928 131.644 135.395 129.488 133.683 129.334C132.435 129.22 129.73 131.884 129.862 133.062C130.047 134.708 132.063 136.963 133.689 137.369C134.943 137.677 136.802 135.536 139.519 133.733Z" fill="#041C33"/>
<path d="M104.156 296.155C100.846 295.792 98.3933 293.891 98.0245 290.101C97.7079 286.84 101.347 283.18 104.571 283.524C108.133 283.902 110.785 285.788 111.139 289.621C111.449 292.953 108.01 296.177 104.156 296.155ZM109.578 289.47C107.011 288.043 105.533 286.693 103.95 286.557C103.114 286.487 101.11 288.954 101.362 289.547C101.986 291.036 103.446 292.805 104.863 293.113C105.849 293.328 107.319 291.31 109.578 289.47Z" fill="#041C33"/>
<path d="M196.12 652.534C198.33 655.85 200.761 657.939 200.42 659.36C199.952 661.301 197.583 663.74 195.656 664.137C192.988 664.688 190.326 662.636 191.101 659.458C191.599 657.416 193.689 655.761 196.12 652.534Z" fill="#041C33"/>
<path d="M254.522 487.06C252.318 483.895 249.988 482.012 250.148 480.372C250.311 478.671 252.674 476.25 254.457 475.853C257.282 475.223 259.762 477.268 259.203 480.388C258.855 482.304 256.814 483.919 254.522 487.06Z" fill="#041C33"/>
<path d="M262.42 513.796C260.626 516.616 258.926 519.284 257.226 521.957C254.543 520.136 254.543 520.136 258.695 514.285C257.921 512.122 257.18 510.052 256.439 507.978C256.965 507.763 257.491 507.548 258.016 507.332C259.491 509.501 260.973 511.676 262.42 513.796Z" fill="#041C33"/>
<path d="M125.246 266.285C122.938 266.426 120.863 266.553 118.595 266.691C119.213 263.012 112.359 260.791 115.89 256.259C119.016 259.609 122.136 262.953 125.246 266.285Z" fill="#041C33"/>
<path d="M305.209 627.428C307.062 631.806 308.707 635.691 310.775 640.576C304.275 638.057 302.246 632.098 305.209 627.428Z" fill="#041C33"/>
<path d="M95.6487 315.24C93.2698 317.227 91.9144 319.19 90.8664 319.036C89.3911 318.821 88.1464 317.037 86.8033 315.923C87.8605 314.711 88.8072 312.659 89.9997 312.505C91.3673 312.33 92.9533 313.837 95.6487 315.24Z" fill="#041C33"/>
<path d="M78.2314 348.574C76.0523 350.297 74.5679 352.296 73.529 352.087C72.1275 351.804 71.0672 349.82 69.8593 348.568C71.0365 347.519 72.1613 345.719 73.4061 345.636C74.6662 345.544 76.0462 347.15 78.2314 348.574Z" fill="#041C33"/>
<path d="M174.301 770.347C171.388 768.455 170.583 763.816 171.723 757.255C174.593 758.817 175.396 762.666 174.301 770.347Z" fill="#041C33"/>
<path d="M271.174 676.593C272.944 679.281 275.4 683.013 277.858 686.744C278.885 685.726 279.911 684.711 280.935 683.693C275.987 685.622 271.881 681.985 271.174 676.593Z" fill="#041C33"/>
<path d="M250.966 228.18C253.185 226.952 254.466 225.676 255.628 225.774C256.593 225.857 258.296 227.786 258.115 228.496C257.81 229.684 256.304 231.293 255.229 231.351C254.156 231.41 252.991 229.779 250.966 228.18Z" fill="#041C33"/>
<path d="M288.059 643.588C290.546 645.557 293.032 647.522 295.518 649.491C295.079 650.06 294.639 650.626 294.2 651.195C291.68 649.267 289.159 647.338 286.642 645.406C287.113 644.8 287.586 644.194 288.059 643.588Z" fill="#041C33"/>
<path d="M48.4251 707.869C48.3359 714.298 42.8744 719.549 36.3402 719.488C29.5848 719.426 24.4029 714.052 24.4583 707.164C24.5136 700.384 29.5541 695.306 36.2265 695.309C43.2801 695.312 48.5234 700.714 48.4251 707.869ZM35.4551 698.566C31.8653 698.619 27.7653 703.331 27.836 707.321C27.9251 712.234 31.7178 716.175 36.374 716.19C41.4545 716.205 45.0473 712.382 44.9828 707.023C44.9213 702.206 40.7322 698.49 35.4551 698.566Z" fill="#041C33"/>
<path d="M57.7499 738.807C55.202 740.495 53.9142 741.981 52.5619 742.043C51.4985 742.092 50.3552 740.379 49.2487 739.45C50.2845 738.244 51.1697 736.299 52.4021 736.047C53.5669 735.81 55.0975 737.345 57.7499 738.807Z" fill="#041C33"/>
<path d="M97.4528 127.501C97.4221 128.134 97.462 128.78 97.3452 129.396C95.1969 140.839 93.0332 152.277 90.1349 163.579C92.3724 151.498 94.6129 139.418 96.8504 127.338C97.0532 127.39 97.253 127.445 97.4528 127.501Z" fill="#041C33"/>
<path d="M34.404 0C38.6976 1.13205 42.9881 2.26103 47.2817 3.39308C47.2203 3.69456 47.1588 3.99295 47.1004 4.29442C42.7054 3.58689 38.3134 2.88243 33.9184 2.1749C34.0782 1.44891 34.2411 0.725991 34.404 0Z" fill="#041C33"/>
<path d="M71.0027 233.412C73.5137 225.426 76.0247 217.437 78.5326 209.451C78.8953 209.559 79.258 209.67 79.6237 209.778C77.2295 217.819 74.8383 225.86 72.4441 233.901C71.9616 233.738 71.4821 233.575 71.0027 233.412Z" fill="#041C33"/>
<path d="M301.257 359.446C308.012 353.318 314.768 347.19 321.523 341.062C321.855 341.428 322.187 341.794 322.519 342.16C315.856 348.343 309.195 354.527 302.532 360.71C302.105 360.288 301.681 359.867 301.257 359.446Z" fill="#041C33"/>
<path d="M272.08 360.267C280.422 357.228 288.766 354.188 297.107 351.146C297.273 351.663 297.436 352.179 297.602 352.696C289.138 355.517 280.674 358.338 272.209 361.159C272.166 360.864 272.123 360.565 272.08 360.267Z" fill="#041C33"/>
<path d="M274.902 349.171C281.107 347.184 287.315 345.193 293.521 343.206C293.662 343.692 293.803 344.178 293.942 344.667C287.666 346.504 281.387 348.337 275.111 350.174C275.04 349.838 274.969 349.506 274.902 349.171Z" fill="#041C33"/>
<path d="M280.594 352.739C285.812 350.691 291.031 348.639 296.25 346.59C296.428 346.996 296.61 347.402 296.788 347.808C291.634 349.915 286.479 352.023 281.325 354.127C281.082 353.665 280.837 353.201 280.594 352.739Z" fill="#041C33"/>
<path d="M276.721 465.462C278.393 463.087 279.346 460.414 280.652 460.229C282.069 460.029 283.842 462.106 285.395 463.278C285.723 463.527 285.877 464.145 285.917 464.61C286.114 467 286.396 469.405 286.2 471.771C286.175 472.054 282.816 472.802 282.051 472.134C280.059 470.393 278.648 467.981 276.721 465.462Z" fill="#041C33"/>
</g>
</svg>
