<svg width="70" height="70" viewBox="0 0 70 70" fill="none" xmlns="http://www.w3.org/2000/svg">
<path d="M64.6933 48.6902H48.9018V64.4816C48.9018 67.2792 46.638 69.543 43.8405 69.543H25.9969C23.1994 69.543 20.9355 67.2792 20.9355 64.4816V25.7853C20.9355 22.9877 23.1994 20.7239 25.9969 20.7239H64.6933C67.4908 20.7239 69.7546 22.9877 69.7546 25.7853V43.6288C69.7546 46.4264 67.4908 48.6902 64.6933 48.6902Z" fill="#147AF8"/>
<path d="M20.8528 5.06135V20.8528H5.06135C2.2638 20.8528 0 23.1166 0 25.9141V43.7577C0 46.5552 2.2638 48.819 5.06135 48.819H43.7577C46.5553 48.819 48.8191 46.5552 48.8191 43.7577V5.06135C48.8191 2.2638 46.5553 0 43.7577 0H25.9141C23.1258 0 20.8528 2.27301 20.8528 5.06135Z" fill="#147AF8"/>
</svg>
