<svg width="103" height="99" viewBox="0 0 103 99" fill="none" xmlns="http://www.w3.org/2000/svg">
<g opacity="0.24">
<path d="M3.4544 56.331C3.4544 57.2728 2.68207 58.0345 1.7272 58.0345C0.772324 58.0345 0 57.2659 0 56.331C0 55.3962 0.772324 54.6276 1.7272 54.6276C2.67505 54.6276 3.4544 55.3893 3.4544 56.331Z" fill="#0D6DFD"/>
<path d="M3.4544 69.9862C3.4544 70.928 2.68207 71.6897 1.7272 71.6897C0.772324 71.6897 0 70.928 0 69.9862C0 69.0445 0.772324 68.2828 1.7272 68.2828C2.67505 68.2828 3.4544 69.0445 3.4544 69.9862Z" fill="#0D6DFD"/>
<path d="M3.4544 83.6414C3.4544 84.5831 2.68207 85.3448 1.7272 85.3448C0.772324 85.3448 0 84.5831 0 83.6414C0 82.6997 0.772324 81.938 1.7272 81.938C2.67505 81.9449 3.4544 82.7066 3.4544 83.6414Z" fill="#0D6DFD"/>
<path d="M3.4544 97.3035C3.4544 98.2452 2.68207 99.0069 1.7272 99.0069C0.772324 99.0069 0 98.2452 0 97.3035C0 96.3618 0.772324 95.6001 1.7272 95.6001C2.67505 95.6001 3.4544 96.3618 3.4544 97.3035Z" fill="#0D6DFD"/>
<path d="M3.4544 1.70343C3.4544 2.64517 2.68207 3.40687 1.7272 3.40687C0.772324 3.39994 0 2.63825 0 1.70343C0 0.768623 0.772324 0 1.7272 0C2.67505 0 3.4544 0.761698 3.4544 1.70343Z" fill="#0D6DFD"/>
<path d="M3.4544 15.3586C3.4544 16.3003 2.68207 17.062 1.7272 17.062C0.772324 17.062 0 16.3003 0 15.3586C0 14.4169 0.772324 13.6552 1.7272 13.6552C2.67505 13.6552 3.4544 14.4169 3.4544 15.3586Z" fill="#0D6DFD"/>
<path d="M3.4544 29.0138C3.4544 29.9555 2.68207 30.7172 1.7272 30.7172C0.772324 30.7172 0 29.9555 0 29.0138C0 28.072 0.772324 27.3103 1.7272 27.3103C2.67505 27.3103 3.4544 28.079 3.4544 29.0138Z" fill="#0D6DFD"/>
<path d="M3.4544 42.6759C3.4544 43.6176 2.68207 44.3793 1.7272 44.3793C0.772324 44.3724 0 43.6107 0 42.6759C0 41.7411 0.772324 40.9724 1.7272 40.9724C2.67505 40.9724 3.4544 41.7341 3.4544 42.6759Z" fill="#0D6DFD"/>
<path d="M17.6722 56.331C17.6722 57.2728 16.8999 58.0345 15.945 58.0345C14.9901 58.0345 14.2178 57.2728 14.2178 56.331C14.2178 55.3893 14.9901 54.6276 15.945 54.6276C16.8999 54.6276 17.6722 55.3893 17.6722 56.331Z" fill="#0D6DFD"/>
<path d="M17.6722 69.9862C17.6722 70.928 16.8999 71.6897 15.945 71.6897C14.9901 71.6897 14.2178 70.928 14.2178 69.9862C14.2178 69.0445 14.9901 68.2828 15.945 68.2828C16.8999 68.2828 17.6722 69.0445 17.6722 69.9862Z" fill="#0D6DFD"/>
<path d="M17.6722 83.6414C17.6722 84.5831 16.8999 85.3448 15.945 85.3448C14.9901 85.3448 14.2178 84.5831 14.2178 83.6414C14.2178 82.6997 14.9901 81.938 15.945 81.938C16.8999 81.9449 17.6722 82.7066 17.6722 83.6414Z" fill="#0D6DFD"/>
<path d="M17.6722 97.3035C17.6722 98.2452 16.8999 99.0069 15.945 99.0069C14.9901 99.0069 14.2178 98.2452 14.2178 97.3035C14.2178 96.3618 14.9901 95.6001 15.945 95.6001C16.8999 95.6001 17.6722 96.3618 17.6722 97.3035Z" fill="#0D6DFD"/>
<path d="M17.6722 1.70343C17.6722 2.64517 16.8999 3.40687 15.945 3.40687C14.9901 3.40687 14.2178 2.64517 14.2178 1.70343C14.2178 0.761698 14.9901 0 15.945 0C16.8999 0 17.6722 0.761698 17.6722 1.70343Z" fill="#0D6DFD"/>
<path d="M17.6722 15.3586C17.6722 16.3003 16.8999 17.062 15.945 17.062C14.9901 17.062 14.2178 16.3003 14.2178 15.3586C14.2178 14.4169 14.9901 13.6552 15.945 13.6552C16.8999 13.6552 17.6722 14.4169 17.6722 15.3586Z" fill="#0D6DFD"/>
<path d="M17.6722 29.0138C17.6722 29.9555 16.8999 30.7172 15.945 30.7172C14.9901 30.7172 14.2178 29.9555 14.2178 29.0138C14.2178 28.072 14.9901 27.3103 15.945 27.3103C16.8999 27.3103 17.6722 28.079 17.6722 29.0138Z" fill="#0D6DFD"/>
<path d="M17.6722 42.6759C17.6722 43.6176 16.8999 44.3793 15.945 44.3793C14.9901 44.3793 14.2178 43.6176 14.2178 42.6759C14.2178 41.7341 14.9901 40.9724 15.945 40.9724C16.8999 40.9724 17.6722 41.7341 17.6722 42.6759Z" fill="#0D6DFD"/>
<path d="M31.89 56.331C31.89 57.2728 31.1177 58.0345 30.1628 58.0345C29.2079 58.0345 28.4356 57.2728 28.4356 56.331C28.4356 55.3893 29.2079 54.6276 30.1628 54.6276C31.1177 54.6276 31.89 55.3893 31.89 56.331Z" fill="#0D6DFD"/>
<path d="M31.89 69.9862C31.89 70.928 31.1177 71.6897 30.1628 71.6897C29.2079 71.6897 28.4356 70.928 28.4356 69.9862C28.4356 69.0445 29.2079 68.2828 30.1628 68.2828C31.1177 68.2828 31.89 69.0445 31.89 69.9862Z" fill="#0D6DFD"/>
<path d="M31.89 83.6414C31.89 84.5831 31.1177 85.3448 30.1628 85.3448C29.2079 85.3448 28.4356 84.5831 28.4356 83.6414C28.4356 82.6997 29.2079 81.938 30.1628 81.938C31.1177 81.938 31.89 82.7066 31.89 83.6414Z" fill="#0D6DFD"/>
<path d="M31.89 97.3035C31.89 98.2452 31.1177 99.0069 30.1628 99.0069C29.2079 99.0069 28.4356 98.2452 28.4356 97.3035C28.4356 96.3618 29.2079 95.6001 30.1628 95.6001C31.1177 95.6001 31.89 96.3618 31.89 97.3035Z" fill="#0D6DFD"/>
<path d="M31.89 1.70343C31.89 2.64517 31.1177 3.40687 30.1628 3.40687C29.2079 3.40687 28.4356 2.64517 28.4356 1.70343C28.4356 0.761698 29.2149 0 30.1698 0C31.1247 0 31.89 0.761698 31.89 1.70343Z" fill="#0D6DFD"/>
<path d="M31.89 15.3586C31.89 16.3003 31.1177 17.062 30.1628 17.062C29.2079 17.062 28.4356 16.3003 28.4356 15.3586C28.4356 14.4169 29.2079 13.6552 30.1628 13.6552C31.1177 13.6552 31.89 14.4169 31.89 15.3586Z" fill="#0D6DFD"/>
<path d="M31.89 29.0138C31.89 29.9555 31.1177 30.7172 30.1628 30.7172C29.2079 30.7172 28.4356 29.9555 28.4356 29.0138C28.4356 28.072 29.2079 27.3103 30.1628 27.3103C31.1177 27.3103 31.89 28.079 31.89 29.0138Z" fill="#0D6DFD"/>
<path d="M31.89 42.6759C31.89 43.6176 31.1177 44.3793 30.1628 44.3793C29.2079 44.3793 28.4356 43.6176 28.4356 42.6759C28.4356 41.7341 29.2079 40.9724 30.1628 40.9724C31.1177 40.9724 31.89 41.7341 31.89 42.6759Z" fill="#0D6DFD"/>
<path d="M46.1148 56.331C46.1148 57.2728 45.3425 58.0345 44.3876 58.0345C43.4327 58.0345 42.6604 57.2728 42.6604 56.331C42.6604 55.3893 43.4327 54.6276 44.3876 54.6276C45.3425 54.6276 46.1148 55.3893 46.1148 56.331Z" fill="#0D6DFD"/>
<path d="M46.1148 69.9862C46.1148 70.928 45.3425 71.6897 44.3876 71.6897C43.4327 71.6897 42.6604 70.928 42.6604 69.9862C42.6604 69.0445 43.4327 68.2828 44.3876 68.2828C45.3425 68.2828 46.1148 69.0445 46.1148 69.9862Z" fill="#0D6DFD"/>
<path d="M46.1148 83.6414C46.1148 84.5831 45.3425 85.3448 44.3876 85.3448C43.4327 85.3448 42.6604 84.5831 42.6604 83.6414C42.6604 82.6997 43.4327 81.938 44.3876 81.938C45.3425 81.938 46.1148 82.7066 46.1148 83.6414Z" fill="#0D6DFD"/>
<path d="M46.1148 97.3035C46.1148 98.2452 45.3425 99.0069 44.3876 99.0069C43.4327 99.0069 42.6604 98.2452 42.6604 97.3035C42.6604 96.3618 43.4327 95.6001 44.3876 95.6001C45.3425 95.6001 46.1148 96.3618 46.1148 97.3035Z" fill="#0D6DFD"/>
<path d="M46.1148 1.70343C46.1148 2.64517 45.3425 3.40687 44.3876 3.40687C43.4327 3.40687 42.6604 2.64517 42.6604 1.70343C42.6604 0.761698 43.4327 0 44.3876 0C45.3425 0 46.1148 0.761698 46.1148 1.70343Z" fill="#0D6DFD"/>
<path d="M46.1148 15.3586C46.1148 16.3003 45.3425 17.062 44.3876 17.062C43.4327 17.062 42.6604 16.3003 42.6604 15.3586C42.6604 14.4169 43.4327 13.6552 44.3876 13.6552C45.3425 13.6552 46.1148 14.4169 46.1148 15.3586Z" fill="#0D6DFD"/>
<path d="M46.1148 29.0138C46.1148 29.9555 45.3425 30.7172 44.3876 30.7172C43.4327 30.7172 42.6604 29.9555 42.6604 29.0138C42.6604 28.072 43.4327 27.3103 44.3876 27.3103C45.3425 27.3103 46.1148 28.079 46.1148 29.0138Z" fill="#0D6DFD"/>
<path d="M46.1148 42.6759C46.1148 43.6176 45.3425 44.3793 44.3876 44.3793C43.4327 44.3793 42.6604 43.6176 42.6604 42.6759C42.6604 41.7341 43.4327 40.9724 44.3876 40.9724C45.3425 40.9724 46.1148 41.7341 46.1148 42.6759Z" fill="#0D6DFD"/>
<path d="M60.3326 56.331C60.3326 57.2728 59.5603 58.0345 58.6054 58.0345C57.6505 58.0345 56.8782 57.2728 56.8782 56.331C56.8782 55.3893 57.6505 54.6276 58.6054 54.6276C59.5603 54.6276 60.3326 55.3893 60.3326 56.331Z" fill="#0D6DFD"/>
<path d="M60.3326 69.9862C60.3326 70.928 59.5603 71.6897 58.6054 71.6897C57.6505 71.6897 56.8782 70.928 56.8782 69.9862C56.8782 69.0445 57.6505 68.2828 58.6054 68.2828C59.5603 68.2828 60.3326 69.0445 60.3326 69.9862Z" fill="#0D6DFD"/>
<path d="M60.3326 83.6414C60.3326 84.5831 59.5603 85.3448 58.6054 85.3448C57.6505 85.3448 56.8782 84.5831 56.8782 83.6414C56.8782 82.6997 57.6505 81.938 58.6054 81.938C59.5603 81.9449 60.3326 82.7066 60.3326 83.6414Z" fill="#0D6DFD"/>
<path d="M60.3326 97.3035C60.3326 98.2452 59.5603 99.0069 58.6054 99.0069C57.6505 99.0069 56.8782 98.2452 56.8782 97.3035C56.8782 96.3618 57.6505 95.6001 58.6054 95.6001C59.5603 95.6001 60.3326 96.3618 60.3326 97.3035Z" fill="#0D6DFD"/>
<path d="M60.3326 1.70343C60.3326 2.64517 59.5603 3.40687 58.6054 3.40687C57.6505 3.40687 56.8782 2.64517 56.8782 1.70343C56.8782 0.761698 57.6575 0 58.6124 0C59.5603 0 60.3326 0.761698 60.3326 1.70343Z" fill="#0D6DFD"/>
<path d="M60.3326 15.3586C60.3326 16.3003 59.5603 17.062 58.6054 17.062C57.6505 17.062 56.8782 16.3003 56.8782 15.3586C56.8782 14.4169 57.6505 13.6552 58.6054 13.6552C59.5603 13.6552 60.3326 14.4169 60.3326 15.3586Z" fill="#0D6DFD"/>
<path d="M60.3326 29.0138C60.3326 29.9555 59.5603 30.7172 58.6054 30.7172C57.6505 30.7172 56.8782 29.9555 56.8782 29.0138C56.8782 28.072 57.6505 27.3103 58.6054 27.3103C59.5603 27.3103 60.3326 28.079 60.3326 29.0138Z" fill="#0D6DFD"/>
<path d="M60.3326 42.6759C60.3326 43.6176 59.5603 44.3793 58.6054 44.3793C57.6505 44.3793 56.8782 43.6176 56.8782 42.6759C56.8782 41.7341 57.6505 40.9724 58.6054 40.9724C59.5603 40.9724 60.3326 41.7341 60.3326 42.6759Z" fill="#0D6DFD"/>
<path d="M74.5574 56.331C74.5574 57.2728 73.7851 58.0345 72.8302 58.0345C71.8753 58.0345 71.103 57.2728 71.103 56.331C71.103 55.3893 71.8753 54.6276 72.8302 54.6276C73.7851 54.6276 74.5574 55.3893 74.5574 56.331Z" fill="#0D6DFD"/>
<path d="M74.5574 69.9862C74.5574 70.928 73.7851 71.6897 72.8302 71.6897C71.8753 71.6897 71.103 70.928 71.103 69.9862C71.103 69.0445 71.8753 68.2828 72.8302 68.2828C73.7851 68.2828 74.5574 69.0445 74.5574 69.9862Z" fill="#0D6DFD"/>
<path d="M74.5574 83.6414C74.5574 84.5831 73.7851 85.3448 72.8302 85.3448C71.8753 85.3448 71.103 84.5831 71.103 83.6414C71.103 82.6997 71.8753 81.938 72.8302 81.938C73.7851 81.938 74.5574 82.7066 74.5574 83.6414Z" fill="#0D6DFD"/>
<path d="M74.5574 97.3035C74.5574 98.2452 73.7851 99.0069 72.8302 99.0069C71.8753 99.0069 71.103 98.2452 71.103 97.3035C71.103 96.3618 71.8753 95.6001 72.8302 95.6001C73.7851 95.6001 74.5574 96.3618 74.5574 97.3035Z" fill="#0D6DFD"/>
<path d="M74.5574 1.70343C74.5574 2.64517 73.7851 3.40687 72.8302 3.40687C71.8753 3.40687 71.103 2.64517 71.103 1.70343C71.103 0.761698 71.8753 0 72.8302 0C73.7851 0 74.5574 0.761698 74.5574 1.70343Z" fill="#0D6DFD"/>
<path d="M74.5574 15.3586C74.5574 16.3003 73.7851 17.062 72.8302 17.062C71.8753 17.062 71.103 16.3003 71.103 15.3586C71.103 14.4169 71.8753 13.6552 72.8302 13.6552C73.7851 13.6552 74.5574 14.4169 74.5574 15.3586Z" fill="#0D6DFD"/>
<path d="M74.5574 29.0138C74.5574 29.9555 73.7851 30.7172 72.8302 30.7172C71.8753 30.7172 71.103 29.9555 71.103 29.0138C71.103 28.072 71.8753 27.3103 72.8302 27.3103C73.7851 27.3103 74.5574 28.079 74.5574 29.0138Z" fill="#0D6DFD"/>
<path d="M74.5574 42.6759C74.5574 43.6176 73.7851 44.3793 72.8302 44.3793C71.8753 44.3793 71.103 43.6176 71.103 42.6759C71.103 41.7341 71.8753 40.9724 72.8302 40.9724C73.7851 40.9724 74.5574 41.7341 74.5574 42.6759Z" fill="#0D6DFD"/>
<path d="M88.7752 56.331C88.7752 57.2728 88.0029 58.0345 87.048 58.0345C86.0931 58.0345 85.3208 57.2728 85.3208 56.331C85.3208 55.3893 86.0931 54.6276 87.048 54.6276C88.0029 54.6276 88.7752 55.3893 88.7752 56.331Z" fill="#0D6DFD"/>
<path d="M88.7752 69.9862C88.7752 70.928 88.0029 71.6897 87.048 71.6897C86.0931 71.6897 85.3208 70.928 85.3208 69.9862C85.3208 69.0445 86.0931 68.2828 87.048 68.2828C88.0029 68.2828 88.7752 69.0445 88.7752 69.9862Z" fill="#0D6DFD"/>
<path d="M88.7752 83.6414C88.7752 84.5831 88.0029 85.3448 87.048 85.3448C86.0931 85.3448 85.3208 84.5831 85.3208 83.6414C85.3208 82.6997 86.0931 81.938 87.048 81.938C88.0029 81.938 88.7752 82.7066 88.7752 83.6414Z" fill="#0D6DFD"/>
<path d="M88.7752 97.3035C88.7752 98.2452 88.0029 99.0069 87.048 99.0069C86.0931 99.0069 85.3208 98.2452 85.3208 97.3035C85.3208 96.3618 86.0931 95.6001 87.048 95.6001C88.0029 95.6001 88.7752 96.3618 88.7752 97.3035Z" fill="#0D6DFD"/>
<path d="M88.7752 1.70343C88.7752 2.64517 88.0029 3.40687 87.048 3.40687C86.0931 3.40687 85.3208 2.64517 85.3208 1.70343C85.3208 0.761698 86.1001 0 87.048 0C87.9958 0 88.7752 0.761698 88.7752 1.70343Z" fill="#0D6DFD"/>
<path d="M88.7752 15.3586C88.7752 16.3003 88.0029 17.062 87.048 17.062C86.0931 17.062 85.3208 16.3003 85.3208 15.3586C85.3208 14.4169 86.0931 13.6552 87.048 13.6552C88.0029 13.6552 88.7752 14.4169 88.7752 15.3586Z" fill="#0D6DFD"/>
<path d="M88.7752 29.0138C88.7752 29.9555 88.0029 30.7172 87.048 30.7172C86.0931 30.7172 85.3208 29.9555 85.3208 29.0138C85.3208 28.072 86.0931 27.3103 87.048 27.3103C88.0029 27.3103 88.7752 28.079 88.7752 29.0138Z" fill="#0D6DFD"/>
<path d="M88.7752 42.6759C88.7752 43.6176 88.0029 44.3793 87.048 44.3793C86.0931 44.3793 85.3208 43.6176 85.3208 42.6759C85.3208 41.7341 86.0931 40.9724 87.048 40.9724C88.0029 40.9724 88.7752 41.7341 88.7752 42.6759Z" fill="#0D6DFD"/>
<path d="M101.273 58.0345C102.227 58.0345 103 57.2718 103 56.331C103 55.3903 102.227 54.6276 101.273 54.6276C100.319 54.6276 99.5456 55.3903 99.5456 56.331C99.5456 57.2718 100.319 58.0345 101.273 58.0345Z" fill="#0D6DFD"/>
<path d="M103 69.9862C103 70.928 102.228 71.6897 101.273 71.6897C100.318 71.6897 99.5456 70.928 99.5456 69.9862C99.5456 69.0445 100.318 68.2828 101.273 68.2828C102.228 68.2828 103 69.0445 103 69.9862Z" fill="#0D6DFD"/>
<path d="M103 83.6414C103 84.5831 102.228 85.3448 101.273 85.3448C100.318 85.3448 99.5456 84.5831 99.5456 83.6414C99.5456 82.6997 100.318 81.938 101.273 81.938C102.228 81.938 103 82.7066 103 83.6414Z" fill="#0D6DFD"/>
<path d="M101.273 99.0069C102.227 99.0069 103 98.2443 103 97.3035C103 96.3627 102.227 95.6001 101.273 95.6001C100.319 95.6001 99.5456 96.3627 99.5456 97.3035C99.5456 98.2443 100.319 99.0069 101.273 99.0069Z" fill="#0D6DFD"/>
<path d="M101.273 3.40687C102.227 3.40687 103 2.64421 103 1.70343C103 0.762653 102.227 0 101.273 0C100.319 0 99.5456 0.762653 99.5456 1.70343C99.5456 2.64421 100.319 3.40687 101.273 3.40687Z" fill="#0D6DFD"/>
<path d="M101.273 17.062C102.227 17.062 103 16.2994 103 15.3586C103 14.4178 102.227 13.6552 101.273 13.6552C100.319 13.6552 99.5456 14.4178 99.5456 15.3586C99.5456 16.2994 100.319 17.062 101.273 17.062Z" fill="#0D6DFD"/>
<path d="M103 29.0138C103 29.9555 102.228 30.7172 101.273 30.7172C100.318 30.7172 99.5456 29.9555 99.5456 29.0138C99.5456 28.072 100.318 27.3103 101.273 27.3103C102.228 27.3103 103 28.079 103 29.0138Z" fill="#0D6DFD"/>
<path d="M103 42.6759C103 43.6176 102.228 44.3793 101.273 44.3793C100.318 44.3793 99.5456 43.6176 99.5456 42.6759C99.5456 41.7341 100.318 40.9724 101.273 40.9724C102.228 40.9724 103 41.7341 103 42.6759Z" fill="#0D6DFD"/>
</g>
</svg>
