<svg width="1063" height="282" viewBox="0 0 1063 282" fill="none" xmlns="http://www.w3.org/2000/svg">
<path opacity="0.16" d="M1095 180.265H872.52H815.857C815.432 180.265 815.026 180.042 814.804 179.678L808.159 168.792C807.652 167.961 806.457 168.022 806.011 168.873L792.539 195.205C792.033 196.219 790.534 196.057 790.25 194.962L773.051 129.385C772.706 128.067 770.802 128.209 770.64 129.547L754.777 278.865C754.595 280.324 752.468 280.304 752.326 278.824L727.975 3.15561C727.833 1.65554 725.666 1.67581 725.524 3.15561L704.718 232.2C704.597 233.558 702.672 233.741 702.308 232.423L681.968 159.71C681.644 158.575 680.064 158.494 679.638 159.609L665.356 196.766C664.991 197.739 663.654 197.841 663.148 196.949L653.829 180.874C653.606 180.488 653.201 180.265 652.755 180.265H591.716H0" stroke="#0D6DFD" stroke-width="3" stroke-miterlimit="10"/>
</svg>
