<svg width="316" height="432" viewBox="0 0 316 432" fill="none" xmlns="http://www.w3.org/2000/svg">
<g opacity="0.08">
<path d="M104.225 198.224C100.33 199.905 96.9942 202.493 93.5591 204.901C91.6155 206.263 89.5784 207.31 87.3738 208.184C73.8708 213.539 60.7871 219.719 48.9109 228.215C45.074 230.96 42.1626 234.413 40.034 238.661C34.106 250.493 29.3682 262.805 24.8995 275.234C24.8235 275.445 24.8546 275.695 24.8199 276.126C25.7061 275.421 25.946 274.522 26.336 273.729C31.4492 263.34 36.6017 252.975 42.0344 242.746C44.4267 238.243 47.5972 234.65 51.6584 231.676C61.2906 224.621 71.8182 219.045 82.1151 213.087C82.2094 213.033 82.4026 213.151 82.7898 213.25C79.8986 215.78 77.1136 218.215 74.5254 220.869C65.2503 230.377 60.8512 241.993 59.9036 255.001C59.1446 265.424 60.3284 275.745 62.5238 285.94C62.8067 287.255 62.7738 287.984 61.4389 288.59C59.7168 289.371 58.2666 290.658 57.3648 292.304C56.724 293.473 55.8927 293.607 54.6714 293.566C55.9147 293.762 56.1921 294.325 55.8259 295.418C55.0605 297.706 55.0623 300.067 55.6867 302.374C57.0765 307.511 62.0066 310.77 67.5931 310.328C68.3932 310.264 69.187 310.13 70.5099 309.961C67.5143 312.1 64.6808 313.627 62.8003 316.364C57.9361 323.445 58.9286 331.749 65.4151 337.272C65.9085 337.691 66.4789 338.079 66.8231 338.606C71.6241 345.947 83.7905 346.558 89.9163 335.778C93.712 329.098 93.6122 317.815 83.5461 312.444C81.5521 311.379 80.9469 310.186 81.3406 308.073C81.7406 305.925 81.9411 303.735 82.1297 301.553C82.224 300.465 82.6076 300.228 83.6687 300.432C87.0781 301.088 90.5031 301.664 93.9317 302.215C95.3682 302.446 95.3215 303.683 95.6117 304.601C99.2958 316.253 103.059 327.882 106.547 339.592C110.57 353.095 114.339 366.674 118.218 380.22C118.438 380.991 118.657 381.761 119.272 382.437C118.351 378.765 117.441 375.091 116.511 371.421C108.619 340.272 99.4203 309.511 88.9476 279.136C87.8417 275.928 87.8517 273.278 89.7496 270.253C94.3355 262.946 99.4011 256.039 105.161 249.63C105.675 249.057 106.409 248.625 106.628 247.388C103.683 249.554 101.526 252.124 98.9451 254.584C97.1672 251.314 95.4634 248.134 93.7065 244.983C93.3046 244.262 93.7038 243.724 93.9107 243.148C101.897 220.96 113.737 201.14 130.151 184.131C131.265 182.976 132.35 181.793 133.717 180.336C133.082 184.542 132.044 188.295 130.858 191.986C127.139 203.558 125.784 215.564 124.023 227.512C121.172 246.858 122.518 266.216 123.359 285.595C123.983 299.948 124.539 314.302 125.542 328.635C126.765 346.119 128.016 363.602 129.244 381.085C130.229 395.089 131.455 409.077 131.961 423.113C132.08 426.429 132.383 429.737 132.759 433.061C132.585 427.149 133.437 421.34 134.683 415.619C138.517 398.023 144.745 381.288 153.147 365.36C160.782 350.884 170.53 337.799 179.978 324.517C188.302 312.816 196.144 300.793 203.969 288.757C204.183 288.43 204.411 288.112 204.95 287.326C203.504 294.419 202.103 300.942 200.854 307.494C198.306 320.857 195.776 334.223 193.37 347.613C192.272 353.724 192.848 359.571 197.819 364.746C194.215 363.783 191.364 362.522 188.593 361.051C187.79 360.625 187.657 359.798 187.301 359.076C185.981 356.399 183.908 354.809 180.813 354.734C178.701 354.683 177.249 355.711 176.305 357.48C175.33 359.304 175.593 361.086 176.798 362.738C178.499 365.067 182.252 366.34 185.019 365.367C185.75 365.109 186.224 365.258 186.814 365.519C201.399 371.964 216.667 375.045 232.604 374.824C234.722 374.794 236.552 375.045 238.39 376.612C240.531 378.436 243.427 378.251 245.983 377.063C247.958 376.145 248.675 374.379 248.393 372.2C247.923 368.556 243.862 366.262 240.108 368.472C235.922 370.938 231.744 370.145 227.478 370.218C226.859 370.228 226.24 370.219 225.523 370.044C229.472 367.991 232.794 365.32 235.136 361.515C237.951 356.944 239.017 351.751 240.369 346.693C243.546 334.799 245.882 322.71 248.322 310.646C249.637 304.141 251.184 297.675 253.359 291.385C253.638 290.577 253.746 289.462 254.867 289.385C257.244 289.222 257.846 287.419 258.427 285.655C260.412 279.628 261.426 273.388 262.242 267.124C263.367 258.497 263.763 249.828 263.355 241.128C262.968 232.884 261.734 224.848 257.716 217.471C257.579 217.219 257.557 216.904 257.388 216.271C272.008 224.517 285.673 233.841 301.035 239.285C283.414 248.087 273.441 263.012 267.819 281.316C264.811 291.106 263.83 301.335 261.89 311.357C258.069 331.091 254.174 350.811 250.469 370.567C248.869 379.093 247.279 387.615 245.163 396.031C241.513 410.55 234.825 423.613 226.121 435.702C224.374 438.128 222.554 440.501 220.851 442.976C228.486 435.916 235.773 428.547 241.83 420.014C247.938 411.408 252.109 401.941 254.882 391.792C256.162 398.051 257.41 404.315 258.745 410.562C259.093 412.191 259.06 413.332 257.117 413.855C255.649 414.25 254.851 415.322 255.156 417.008C255.269 417.632 255.07 418.309 255.141 418.948C255.37 421.025 254.654 421.984 252.429 421.587C250.451 421.234 249.663 421.982 250.469 424.01C250.827 424.91 250.929 425.922 251.351 426.782C251.985 428.073 251.932 428.742 250.302 429.04C249.001 429.279 248.676 430.512 248.568 431.69C248.153 436.213 247.705 440.734 247.38 445.264C247.124 448.821 247.034 452.39 247.028 456.001C249.003 452.228 250.092 448.142 251.134 444.051C251.714 441.775 252.075 439.453 252.237 437.095C252.47 433.697 253.226 433.315 256.272 435.058C260.712 437.6 264.876 440.564 269.015 443.565C270.811 444.866 272.669 446.08 274.638 447.144C270.84 442.445 266.231 438.629 261.867 434.561C260.68 433.456 259.457 432.387 258.296 431.254C257.84 430.81 257.355 430.29 257.157 429.71C256.821 428.73 256.247 427.51 256.815 426.675C257.395 425.824 258.639 426.42 259.551 426.59C270.773 428.678 281.81 431.572 292.868 434.368C293.258 434.467 293.619 434.679 294.085 434.428C292.691 433.355 291.046 432.876 289.477 432.284C279.776 428.628 270.165 424.694 259.999 422.433C258.973 422.205 258.541 421.812 258.592 420.64C258.817 415.438 258.781 415.46 263.795 414.141C275.029 411.187 286.57 410.061 298.015 408.363C299.408 408.157 300.793 407.906 302.169 407.594C290.658 408.006 279.206 408.907 267.898 411.229C267.193 411.374 266.04 412.444 265.656 411.102C265.31 409.892 264.784 408.388 266.236 407.308C268.382 405.712 270.425 403.965 272.648 402.486C283.919 394.993 295.235 387.566 306.532 380.111C307.065 379.758 307.57 379.362 307.953 378.753C293.269 386.778 277.797 393.357 263.868 403.309C263.091 400.56 262.35 397.934 261.605 395.311C260.808 392.504 260.332 389.548 259.126 386.928C257.548 383.498 258.437 380.92 260.465 378.066C264.221 372.783 267.562 367.207 271.277 361.894C275.071 356.467 280.296 352.373 284.87 347.636C277.315 352.601 270.271 358.222 263.505 364.684C262.489 359.516 261.673 354.448 260.454 349.479C259.596 345.976 260.045 343.162 262.025 339.992C268.643 329.394 275.42 318.921 282.973 308.963C283.244 308.603 283.715 308.333 283.588 307.459C276.404 314.751 270.126 322.648 262.49 329.696C261.996 325.582 262.465 321.832 262.84 318.077C264.024 306.21 265.382 294.366 268.701 282.864C273.041 267.829 280.902 255.032 293.203 245.177C296.743 242.341 300.542 239.905 306.043 240.185C300.131 236.766 294.783 233.782 289.541 230.62C277.327 223.252 265.168 215.795 252.978 208.386C251.978 207.779 251.289 206.888 250.549 206.029C247.617 202.629 244.415 199.538 240.366 197.487C239.556 197.076 239.186 196.453 238.83 195.715C236.596 191.086 232.897 188.074 228.165 186.318C226.798 185.811 225.848 185.042 224.986 183.89C220.932 178.474 216.136 173.751 211.039 169.328C210.569 168.92 209.924 168.716 209.36 168.418C209.869 169.045 210.354 169.693 210.892 170.294C217.726 177.925 224.075 185.906 228.917 194.993C229.378 195.857 229.744 196.681 229.805 197.707C230.491 209.145 228.679 220.347 226.743 231.545C226.549 232.665 225.837 232.887 224.952 233.183C216.982 235.848 212.051 241.5 209.251 249.245C208.956 250.061 208.844 250.958 208.098 251.603C204.997 254.281 201.933 257.001 198.861 259.701C197.922 258.747 197.849 257.404 196.413 256.4C199.585 263.971 201.566 271.475 204.23 278.729C205.721 282.789 205.066 285.768 202.754 289.247C189.827 308.697 176.307 327.736 163.12 347.005C150.982 364.741 140.857 383.505 133.805 403.864C133.508 404.72 133.411 405.739 132.396 406.449C132.47 405.572 132.496 404.847 132.597 404.132C134.753 388.795 137.652 373.583 141.954 358.715C153.044 320.385 168.044 283.567 185.651 247.795C193.088 232.681 200.177 217.443 204.616 201.1C207.221 191.507 207.669 181.763 207.404 171.916C207.358 170.185 206.892 168.386 207.739 166.697C206.645 162.906 207.44 159.136 208.064 155.421C209.179 148.795 211.155 142.373 213.06 135.937C213.496 134.461 213.95 133.972 215.544 134.475C217.082 134.961 218.696 134.466 219.814 133.305C225.163 127.751 230.53 122.18 232.534 114.38C233.469 110.735 233.838 107.027 233.126 103.296C232.902 102.12 232.676 100.719 231.923 99.9143C230.033 97.8934 230.368 95.7388 231.199 93.6108C234.124 86.121 235.643 78.24 237.497 70.4791C239.398 62.5166 237.734 54.8472 233.478 47.843C231.749 44.9986 229.487 42.6424 226.14 41.5889C235.986 54.9224 237.882 68.9593 230.561 84.243C229.271 80.3552 229.083 76.5196 228.835 72.7015C228.508 67.6557 227.763 62.6989 225.814 57.9994C223.509 52.4426 219.541 48.6454 213.728 46.8234C213.613 46.0511 214.783 46.1592 214.709 45.4254C214.197 45.4786 213.684 45.5326 213.09 45.5949C214.747 42.9053 214.699 42.9163 213.878 39.1476C211.18 26.7532 204.423 17.3158 193.624 10.6404C187.321 6.74434 180.727 5.03862 173.262 5.75132C163.437 6.68938 153.948 8.97681 144.513 11.671C141.954 12.402 139.291 12.8106 136.911 14.1169C137.414 14.1819 137.876 14.0894 138.339 14.0088C145.852 12.7006 153.128 10.3866 160.563 8.76061C167.865 7.1639 175.283 5.89148 182.745 7.16665C194.86 9.23789 208.857 23.7201 210.957 35.9982C211.348 38.2847 209.937 39.4453 208.091 40.4411C206.073 30.9112 203.082 25.3195 198.683 22.6107C199.71 24.0508 200.895 25.4972 201.843 27.0848C204.193 31.0166 205.507 35.2113 204.457 39.8475C203.787 42.8055 201.648 44.7411 199.159 44.753C201.524 40.3834 201.867 39.1284 201.667 35.5841C201.114 25.794 193.236 16.4895 183.473 14.2616C173.704 12.0328 164.399 15.0549 154.674 16.7313C155.459 17.3039 155.933 17.0941 156.4 17.0053C161.732 15.9912 167.072 15.0833 172.482 14.5245C183.036 13.4344 188.535 16.375 193.289 25.8444C195.309 29.8687 196.518 33.9562 194.798 38.74C194.534 34.6524 193.547 31.0706 191.46 27.846C191.554 28.5432 191.837 29.1798 192.086 29.8293C193.135 32.5684 193.925 35.367 193.861 38.3351C193.845 39.1183 193.955 39.9647 192.925 40.355C191.152 41.0265 188.54 40.0637 187.829 38.2746C184.86 30.8031 179.063 26.4106 171.875 23.5488C170.068 22.8287 168.236 22.0327 165.908 22.182C174.981 26.4371 178.845 29.778 179.366 33.7089C166.627 24.3613 153.177 19.5593 143.443 20.9902C147.591 22.4467 151.865 22.5328 156.16 23.8217C155.446 24.0352 155.031 24.0956 154.683 24.2798C154.309 24.4786 153.663 24.2175 153.535 24.9879C159.685 24.3347 164.952 26.8796 170.197 29.4766C170.989 29.8687 171.702 30.4284 172.428 30.9442C172.824 31.2263 173.254 31.5928 173.031 32.1406C172.833 32.6233 172.346 32.802 171.823 32.8029C171.336 32.8038 170.841 32.8533 170.364 32.7855C163.817 31.8493 157.29 31.5158 150.633 31.5149C144.458 31.514 138.214 31.4581 132.005 31.274C125.853 31.0917 120.427 29.0837 115.57 25.4111C109.913 21.134 106.052 15.534 103.605 8.91726C103.794 14.7169 106.062 19.7672 109.361 24.387C110.044 25.3424 110.243 26.0936 110.005 27.2085C108.899 32.387 110.839 37.0718 115.337 40.0701C116.677 40.9633 118.174 41.6192 119.573 42.4281C120.082 42.7221 121.026 42.8467 120.702 43.7179C120.41 44.5002 119.644 44.3033 119.02 44.0477C114.517 42.2036 110.737 39.624 109.431 34.5471C109.33 34.1541 109.239 33.7584 109.123 33.3699C109.081 33.228 108.977 33.1043 108.748 32.7067C108.405 34.123 108.075 35.3725 108.429 36.5423C109.128 38.8545 108.091 40.4777 106.884 42.3035C104.398 46.063 101.681 49.7979 101.885 54.7098C103.299 49.8162 106.977 46.3827 109.717 42.1871C110.914 44.8886 112.693 46.925 114.975 48.5328C115.174 48.6729 115.544 48.8094 115.546 48.9532C115.597 51.608 118.067 51.412 119.821 52.328C115.241 56.1581 110.855 59.8261 106.188 63.7295C106.356 59.6365 107.425 56.0546 109.479 52.6505C105.162 53.1296 102.528 63.0039 104.745 69.4293C106.002 67.0401 108.084 65.5726 110.202 63.2723C109.274 68.1193 108.489 72.3598 109.388 76.6424C109.833 78.7668 109.453 81.2988 111.914 82.5959C112 82.6418 112.015 82.9037 111.996 83.0567C111.705 85.4156 112.835 86.9656 115.35 88.0924C114.113 88.3974 113.357 88.7748 112.627 88.73C109.913 88.5623 109.605 90.2067 109.708 92.2999C110.044 99.1603 111.276 105.807 114.335 112.027C114.371 112.099 114.37 112.198 114.42 112.253C117.731 115.822 117.758 120.257 118.096 124.776C119.305 140.959 125.097 155.665 133.469 169.378C135.512 172.726 134.381 175.728 133.936 178.933C133.82 179.771 133.154 179.88 132.495 179.942C123.456 180.798 117.35 186.301 111.993 192.949C110.989 194.195 109.961 195.346 108.5 196.045C109.389 195.879 109.261 196.322 108.904 196.787C107.414 198.727 105.719 200.405 103.526 201.609C98.0489 204.619 92.9357 208.18 88.0422 212.072C84.3407 215.016 80.7327 218.065 77.2628 221.296C77.5833 220.608 78.0346 220.065 78.5162 219.551C85.0301 212.593 92.4275 206.692 100.257 201.297C101.622 200.346 103.256 199.706 104.225 198.224ZM211.261 126.343C210.929 128.33 210.655 130.328 210.254 132.3C208.804 139.44 206.796 146.164 200.927 151.306C192.132 159.012 183.226 166.544 173.627 173.233C171.858 174.466 169.91 175.149 167.796 175.491C159.97 176.757 152.127 176.594 144.267 175.887C141.687 175.655 139.6 174.589 138.062 172.518C130.33 162.107 123.318 151.344 121.394 138.114C120.44 131.554 118.92 125.053 119.265 118.423C129.161 120.354 138.951 122.162 145.841 111.767C145.976 112.818 146.085 113.668 146.194 114.518C146.607 113.151 146.722 111.774 146.985 110.426C147.265 108.998 147.647 107.586 148.057 106.188C148.51 104.643 148.921 103.186 148.616 101.472C148.238 99.3463 149.573 97.9117 151.532 97.2668C155.347 96.0118 158.648 98.1527 158.915 102.146C159.122 105.251 159.8 108.23 160.647 111.196C162.088 116.241 165.297 119.394 170.459 120.573C174.119 121.408 177.792 121.72 181.548 121.621C187.942 121.451 192.134 118.269 194.796 112.626C196.81 108.355 198.21 103.877 199.382 99.3353C199.777 97.8009 200.402 97.4189 201.851 97.5068C204.602 97.6726 207.363 97.7148 210.121 97.734C211.6 97.7441 212.329 98.2195 212.242 99.8584C212.109 102.368 212.258 104.886 211.876 107.388C211.483 109.96 211.176 112.544 210.775 115.548C211.474 115.076 211.729 114.906 211.983 114.732C215.687 112.191 217.955 108.4 220.581 104.91C222.533 102.316 224.589 99.7833 227.953 98.8837C229.71 98.4137 231.037 98.7618 231.75 100.741C229.044 100.269 227.333 101.067 224.808 103.901C219.99 109.305 218.12 116.167 215.614 122.701C215.142 123.929 214.647 125.626 216.082 126.503C217.735 127.515 218.934 126.14 220.038 125.053C220.343 124.753 220.857 124.547 220.664 123.807C220.269 123.917 219.903 124.062 219.523 124.115C218.632 124.24 217.56 125.28 216.902 124.248C216.364 123.404 217.269 122.441 217.752 121.609C217.914 121.329 218.069 120.992 218.323 120.829C220.331 119.533 220.583 117.412 220.956 115.342C221.098 114.553 221.101 113.719 221.729 112.97C223.735 114.911 224.075 117.084 222.723 119.571C225.264 117.061 225.266 115.913 222.868 112.076C222.329 111.215 221.445 110.501 222.246 109.275C223.895 106.747 225.648 104.302 228.096 102.501C230.054 101.06 231.583 101.804 231.685 104.223C231.961 110.809 230.651 116.961 226.416 122.23C224.688 124.38 223.138 126.639 221.767 129.035C220.838 130.661 219.671 132.113 218.067 133.161C216.501 134.184 215.226 134.016 214.113 132.431C212.833 130.609 212.121 128.566 211.261 126.343ZM197.53 351.76C197.643 350.632 197.683 349.491 197.881 348.379C199.394 339.85 200.937 331.326 202.472 322.801C205.07 308.374 207.666 293.948 210.271 279.524C210.394 278.842 210.3 277.827 211.228 277.79C212.996 277.719 212.975 276.433 213.238 275.269C214.183 271.082 214.853 266.807 216.148 262.731C218.29 255.993 223.13 251.708 230.037 250.594C239.504 249.067 247.801 256.115 249.278 266.257C250.048 271.548 248.444 276.532 247.484 281.606C247.232 282.936 246.338 284.467 248.658 285.031C249.662 285.276 249.163 286.219 249.024 286.89C248.286 290.453 247.531 294.013 246.786 297.576C242.964 315.871 239.084 334.146 234.371 352.244C231.213 364.37 220.584 368.415 211.375 366.436C202.571 364.543 197.551 359.962 197.53 351.76ZM120.002 87.3073C122.766 85.7069 125.092 84.3887 127.82 84.1065C132.526 83.6201 137.199 83.6192 141.826 84.8541C144.177 85.4816 144.806 84.8431 144.497 82.4301C144.035 78.8117 141.853 77.0464 137.89 77.607C133.57 78.218 129.241 78.8694 125.022 80.0713C121.587 81.0505 119.435 83.239 118.592 86.6798C118.43 87.3412 118.474 87.8835 117.543 87.8176C116.625 87.7516 116.832 87.1122 116.787 86.5964C116.43 82.4558 116.212 78.2629 117.356 74.2542C119.512 66.7049 123.228 59.8499 127.728 53.4631C128.58 52.2548 129.164 50.4904 130.607 49.9517C137.714 47.2979 145.296 46.4267 152.611 43.9616C152.305 45.7323 152.305 45.7323 152.784 47.5306C154.007 44.1832 156.597 44.4553 159.148 44.5387C161.419 44.6129 163.675 44.4031 165.943 44.2181C176.249 43.3753 186.348 44.0715 195.885 48.6234C197.704 49.4919 199.617 50.2101 201.55 50.7771C204.244 51.5668 205.214 52.4288 204.721 55.1761C202.998 64.7866 205.994 73.2997 210.583 81.4298C212.496 84.8183 212.144 88.3397 212.241 92.0782C211.143 91.797 210.352 91.6312 209.585 91.393C197.846 87.7397 185.761 86.8071 173.566 86.8997C168.339 86.939 163.576 88.2252 160.599 93.0996C160.189 93.772 159.743 94.1705 158.841 93.9983C155.719 93.401 152.557 93.3433 149.402 93.6337C148.439 93.7225 147.945 93.4541 147.482 92.6306C144.625 87.5491 140.091 85.673 134.458 85.8104C129.75 85.9268 125.144 86.9445 120.002 87.3073ZM137.262 176.149C139.07 177.289 140.317 178.643 141.446 180.143C145.064 184.946 148.322 189.976 151.069 195.324C151.881 196.905 152.745 197.381 154.191 196.111C154.613 195.739 155.121 195.464 155.583 195.136C171.239 184.04 185.452 171.233 199.361 158.072C201.825 155.741 204.195 153.312 206.861 150.679C205.288 156.728 204.831 162.528 204.822 168.38C204.812 174.22 204.728 180.061 204.76 185.902C204.787 190.71 203.347 194.827 200.213 198.601C195.081 204.781 189.911 210.926 184.499 216.853C176.401 225.719 168.028 234.313 158.488 241.685C157.024 242.817 156.13 242.868 154.663 241.584C150.991 238.367 147.541 234.959 144.383 231.243C140.489 226.66 137.672 221.575 136.56 215.571C134.905 206.634 135.301 197.64 135.572 188.643C135.696 184.502 136.443 180.443 137.262 176.149ZM142.634 335.206C142.225 332.742 141.923 330.338 141.416 327.979C138.823 315.935 135.253 304.134 132.576 292.103C129.989 280.475 126.507 269.022 128.062 256.866C128.634 252.4 129.102 247.942 131.175 243.54C131.754 244.49 132.17 245.17 132.583 245.852C137.544 254.04 143.731 261.19 150.97 267.423C153.756 269.823 153.827 269.734 156.698 267.561C160.709 264.525 164.548 261.285 168.3 257.935C172.701 254.005 176.823 249.784 181.379 245.219C171.465 276.815 156.91 305.784 142.634 335.206ZM139.421 229.23C139.905 229.834 140.207 230.195 140.491 230.571C144.415 235.77 148.782 240.515 154.137 244.312C155.868 245.539 157.192 245.513 158.912 244.26C164.224 240.392 169.325 236.272 174.198 231.873C175.38 230.806 175.913 230.762 176.503 232.351C177.46 234.931 178.585 237.449 179.643 239.992C180.32 241.617 180.282 242.972 178.894 244.388C172.199 251.22 165.431 257.967 158.122 264.151C154.206 267.465 154.237 267.484 150.473 264.166C143.924 258.392 138.183 251.946 133.959 244.248C133.554 243.508 132.725 242.743 133.269 241.812C135.585 237.843 137.301 233.574 139.421 229.23ZM75.6414 290.073C73.8241 288.557 71.9711 287.514 69.935 287.087C68.6166 286.811 68.3136 286.289 68.1406 285.06C66.6611 274.558 66.5833 264.047 67.7075 253.511C68.8016 243.263 72.536 234.245 79.8885 226.852C84.24 222.477 88.7554 218.289 93.5665 214.423C95.1723 213.133 96.7827 211.849 98.3913 210.562C84.7353 235.284 78.9135 262.104 75.6414 290.073ZM179.427 119.032C176.896 119.098 174.096 118.723 171.319 118.083C167.547 117.212 164.972 114.996 163.654 111.351C162.687 108.676 162.314 105.85 161.608 103.114C160.321 98.1279 164.89 92.4254 170.081 91.7585C178.065 90.7343 185.923 91.7484 193.738 93.3002C195.488 93.6474 196.327 94.7 196.214 96.5926C195.931 101.342 194.677 105.859 192.913 110.223C190.157 117.036 187.053 119.037 179.427 119.032ZM204.552 49.9948C206.54 49.1603 208.589 49.5542 210.148 48.465C212.056 47.1321 213.815 47.7275 215.612 48.6042C219.888 50.6892 222.731 54.0915 224.642 58.375C227.713 65.2602 228.546 72.5402 228.406 79.9732C228.358 82.5117 228.561 84.9869 229.281 87.4154C229.548 88.3168 230.216 89.2338 228.943 89.93C227.613 90.6574 226.719 92.5701 224.778 91.6513C219.871 89.3281 215.871 85.5576 214.474 80.5568C212.662 74.0692 211.284 67.3223 211.407 60.4408C211.54 53.0004 211.518 52.9995 204.552 49.9948ZM129.3 117.156C126.696 117.194 124.131 117.03 121.64 116.133C119.897 115.506 119.152 114.528 119.185 112.538C119.288 106.219 119.522 99.884 118.759 93.5842C118.603 92.2971 119.491 92.3237 120.226 92.1332C125.666 90.7169 131.193 89.941 136.815 90.3798C139.954 90.6244 142.581 91.9848 144.142 94.8933C147.085 100.38 144.15 111.721 138.906 115.103C138.234 115.536 137.466 115.838 136.713 116.127C134.325 117.044 131.823 117.202 129.3 117.156ZM250.55 284.98C251.976 285.862 251.492 286.742 251.342 287.602C249.506 298.128 247.534 308.627 245.347 319.087C242.733 331.599 240.209 344.139 236.131 356.277C233.735 363.407 228.808 367.983 221.304 369.454C217.039 370.291 212.76 370.186 208.543 369.08C198.264 366.381 192.82 358.878 194.371 349.32C195.578 341.889 196.951 334.483 198.359 327.087C200.705 314.76 203.133 302.448 205.536 290.133C206.317 286.13 207.112 282.131 207.933 278.137C208.033 277.649 207.974 276.82 208.809 276.967C209.604 277.106 209.393 277.862 209.285 278.369C208.999 279.711 208.507 281.014 208.299 282.364C205.951 297.562 202.869 312.629 200.287 327.783C198.97 335.52 197.029 343.159 196.461 351.018C196.114 355.818 197.346 360.098 201.227 363.17C206.837 367.61 213.33 368.893 220.259 367.6C228.691 366.027 233.348 360.428 235.528 352.466C240.171 335.514 243.726 318.311 247.274 301.108C248.364 295.829 249.422 290.541 250.55 284.98ZM256.615 243.516C253.458 239.453 249.832 236.962 245.679 235.258C243.329 234.295 242.495 232.556 242.359 230.139C241.98 223.441 243.682 216.775 242.258 209.74C244.547 210.957 246.337 211.993 247.333 213.998C250.07 219.512 252.631 225.096 254.304 231.045C255.395 234.925 256.159 238.861 256.615 243.516ZM86.0601 275.447C89.3166 284.318 91.9808 292.896 94.6733 301.811C91.208 301.192 88.1374 300.548 85.0365 300.122C82.9656 299.837 82.1325 299.062 82.6974 296.872C83.0975 295.321 83.0901 293.667 83.2833 292.062C83.9379 286.627 84.5009 281.175 86.0601 275.447ZM252.412 263.53C246.775 246.529 229.544 243.493 217.513 253.346C219.073 246.594 226.787 242.936 236.605 244.292C246.437 245.649 252.827 253.158 252.412 263.53ZM87.1074 246.487C87.0708 246.955 87.101 247.439 86.9884 247.888C81.975 267.886 79.0701 288.2 77.8249 308.766C77.7892 309.351 78.2241 310.367 76.849 310.163C75.7623 310.001 75.7421 309.482 75.8072 308.516C76.8618 292.91 78.4997 277.386 82.2716 262.165C83.5854 256.867 84.8662 251.548 87.1074 246.487ZM85.2224 323.413C85.2031 329.216 81.0458 335.075 75.581 337.002C69.6722 339.084 63.5483 335.917 61.8042 329.888C60.8429 326.565 61.1862 323.297 62.3883 320.137C64.483 314.63 71.2643 310.519 76.4562 311.49C81.2957 312.394 85.2407 317.761 85.2224 323.413ZM231.919 206.198C233.204 206.757 233.262 207.592 233.39 208.25C234.698 214.976 235.012 221.773 234.555 228.596C234.415 230.69 232.938 231.612 230.946 231.883C229.35 232.1 228.579 231.986 229.05 229.924C229.844 226.456 230.264 222.901 230.83 219.382C231.519 215.094 231.699 210.751 231.919 206.198ZM75.1535 297.655C74.9118 299.336 74.7433 301.032 74.4091 302.695C74.064 304.41 73.1878 305.816 71.6928 306.845C67.6764 309.608 62.0862 308.929 58.9688 305.245C55.8396 301.547 56.1216 295.535 59.5932 291.928C62.6456 288.758 67.0025 287.756 70.639 289.388C74.1336 290.958 75.4318 293.377 75.1535 297.655ZM91.7043 250.848C93.1865 253.165 93.8319 255.481 95.3911 257.253C95.8983 257.829 95.6584 258.282 95.2739 258.738C92.3058 262.258 89.8512 266.139 87.1248 269.932C88.6199 263.699 90.1158 257.466 91.7043 250.848ZM111.423 75.4671C110.026 66.0581 111.746 60.1366 117.761 58.2129C117.798 59.3781 115.809 60.3006 116.76 61.1562C118.116 62.3764 117.194 63.1358 116.714 63.9539C114.57 67.5989 111.816 70.949 111.423 75.4671ZM111.243 26.3959C113.296 28.1364 115.024 29.7139 115.707 32.2468C116.307 34.4775 117.815 36.2299 119.667 37.6196C120.937 38.5723 122.26 39.4536 123.686 40.4567C115.971 39.8759 109.812 32.9687 111.243 26.3959ZM217.874 95.5391C213.189 95.1589 208.496 94.8511 203.819 94.3757C200.51 94.0395 200.517 93.9387 200.673 90.629C200.679 90.5163 200.839 90.4109 201.044 90.1572C206.601 91.8996 212.45 92.8962 217.874 95.5391ZM212.047 371.535C219.714 371.189 227.367 371.449 235.022 371.681C235.691 371.702 236.373 371.687 236.278 372.682C236.19 373.602 235.58 373.579 234.878 373.556C231.399 373.44 227.916 373.418 224.44 373.248C220.266 373.042 216.103 372.679 212.047 371.535ZM114.518 98.007C115.392 99.1063 117.64 98.0427 117.718 99.7439C117.912 104.009 117.782 108.288 117.782 113.013C115.035 108.077 114.369 103.184 114.518 98.007ZM240.045 218.954C239.993 218.403 239.92 217.854 239.893 217.302C239.612 211.625 239.145 205.965 237.543 200.482C236.431 196.675 234.88 193.149 230.761 191.555C229.86 191.206 229.028 190.542 228.61 189.173C232.373 190.815 235.249 192.918 236.862 196.419C240.169 203.596 240.653 211.199 240.045 218.954ZM205.361 370.163C199.363 368.912 193.64 366.84 188.024 364.444C187.729 364.319 187.412 364.189 187.181 363.978C186.739 363.575 186.935 363.102 187.155 362.658C187.438 362.087 187.797 362.112 188.319 362.412C189.087 362.85 189.914 363.182 190.714 363.562C195.548 365.863 200.696 367.466 205.361 370.163ZM130.687 181.544C122.541 187.295 114.93 193.653 108.759 201.613C113.755 192.389 121.822 186.535 130.687 181.544ZM206.059 260.166C205.805 264.366 204.992 268.055 204.199 272.438C203.276 269.607 202.598 267.392 201.821 265.213C201.535 264.409 201.601 263.858 202.282 263.318C203.458 262.386 204.59 261.398 206.059 260.166ZM251.021 282.703C251.683 279.294 252.357 275.888 252.995 272.475C253.13 271.748 253.017 271.081 254.223 271.329C255.386 271.569 255.365 272.008 255.131 272.966C254.311 276.338 253.626 279.742 252.801 283.112C252.67 283.65 253.009 284.874 251.75 284.552C250.813 284.313 251.007 283.445 251.021 282.703ZM220.323 253.541C217.7 256.54 215.467 259.734 214.436 263.667C213.47 267.347 212.805 271.084 212.13 274.822C212.031 275.368 212.085 276.369 211.175 276.164C210.458 276.001 210.866 275.245 210.97 274.71C211.57 271.613 212.106 268.504 212.75 265.418C213.771 260.529 215.824 256.256 220.323 253.541ZM64.9024 286.92C62.5925 275.846 61.2567 264.719 63.0759 253.419C62.2107 264.667 63.6408 275.789 64.9024 286.92ZM240.202 231.983C241.028 234.971 243.291 236.361 245.965 237.417C248.307 238.342 250.439 239.662 252.319 241.376C255.765 244.518 258.21 249.881 257.684 253.821C255.996 245.466 251.301 240.172 243.718 237.341C241.39 236.472 240.295 234.54 240.202 231.983ZM254.283 215.817C259.669 223.111 262.226 235.996 261.062 249.426C261.265 237.732 259.68 226.403 254.283 215.817ZM86.4638 332.326C87.5917 327.049 88.445 321.971 86.1599 316.964C90.2953 321.54 90.4766 329.472 86.4638 332.326ZM225.098 235.601C215.861 240.613 210.833 248.461 209.562 259.425C208.438 250.201 216.524 238.007 225.098 235.601ZM208.581 274.86C209.193 270.623 209.819 266.388 210.408 262.149C210.505 261.449 210.881 261.143 211.507 261.109C212.179 261.072 212.307 261.536 212.206 262.073C211.383 266.431 210.552 270.788 209.715 275.145C209.629 275.592 209.352 275.883 208.872 275.788C208.327 275.68 208.398 275.247 208.581 274.86ZM250.273 263.63C250.92 264.222 251.055 265.003 251.235 265.791C252.512 271.37 250.724 276.697 249.896 282.097C249.809 282.666 250.002 283.898 248.839 283.548C247.911 283.269 248.696 282.403 248.793 281.897C249.948 275.885 251.659 269.928 250.273 263.63ZM210.841 71.6865C208.534 68.1193 208.235 64.0382 207.729 60.0065C209.33 63.7478 210.853 67.5083 210.841 71.6865ZM120.355 89.5911C117.431 90.9322 113.754 90.902 112.12 94.5149C110.785 90.8965 110.798 90.9615 114.402 90.1774C116.365 89.7495 118.335 89.6589 120.355 89.5911ZM208.099 55.0442C209.395 55.1166 210.567 55.0561 210.586 56.6803C210.612 59.0978 210.593 61.5162 210.593 63.9347C209.888 60.9785 209.106 58.0636 208.099 55.0442Z" fill="#041C33"/>
<path d="M46.6222 274.448C47.6329 290.058 48.6445 305.668 49.6553 321.277C49.5802 321.287 49.5042 321.298 49.4292 321.308C45.7332 306.936 42.0372 292.565 38.3413 278.194C42.8301 310.166 48.9348 341.885 51.4817 374.158C42.8639 362.698 36.5358 349.898 29.5367 337.422C28.8967 338.097 29.4515 338.551 29.6291 338.974C34.9538 351.684 40.577 364.254 47.2447 376.33C47.8325 377.394 48.3342 378.545 49.1023 379.465C51.8223 382.727 52.7086 386.459 52.8624 390.656C53.1819 399.331 53.8667 407.993 54.3913 416.661C54.4334 417.355 54.3968 418.054 54.3968 419.16C40.3463 408.706 25.09 401.199 9.3366 394.565C13.7458 397.342 18.1485 400.127 22.565 402.891C32.7346 409.256 43.0864 415.335 52.6793 422.592C54.2805 423.803 54.8967 425.087 54.9342 427.049C55.1017 435.758 56.7497 444.289 58.2502 452.834C58.3024 453.13 58.3939 453.419 58.6695 453.673C58.6695 446.813 58.7876 439.952 58.6457 433.095C58.307 416.7 57.2624 400.339 55.9916 383.994C55.8433 382.088 56.0868 381.553 58.2694 381.944C69.7574 384 81.3571 385.249 92.9714 386.352C93.6617 386.418 94.4399 386.194 95.0286 387.143C95.3701 368.44 94.3035 349.97 93.7047 331.504C93.7047 343.343 93.6461 355.183 93.7304 367.021C93.7707 372.62 94.0389 378.219 94.3053 383.812C94.3749 385.277 94.0325 385.635 92.5686 385.345C81.0385 383.057 69.3802 381.662 57.6808 380.638C55.9486 380.486 55.749 379.619 55.6456 378.319C54.7868 367.563 53.9207 356.807 53.0482 346.052C51.9459 332.467 50.8555 318.882 49.723 305.299C48.867 295.038 47.9533 284.781 47.0653 274.522C46.917 274.497 46.7696 274.473 46.6222 274.448Z" fill="#041C33"/>
<path d="M103.645 8.46289C119.505 18.9931 136.591 19.8552 154.4 14.9835C144.981 14.7581 135.528 14.978 126.139 13.3785C134.162 10.5121 142.01 7.09978 150.665 6.64724C160.79 6.11775 170.812 4.49722 180.933 3.85322C187.306 3.44832 192.902 4.56135 197.799 8.96673C204.346 14.858 210.511 21.0213 214.738 28.862C215.313 29.9283 215.859 31.0211 216.288 32.1516C218.078 36.8785 219.047 41.5266 214.613 45.4804C217.591 44.1713 219.485 41.294 219.302 38.2929C219.082 34.6845 218.22 31.2547 216.265 28.1712C209.917 18.1568 201.853 9.96433 191.527 3.93384C184.515 -0.161001 177.11 -0.463305 169.428 0.382229C161.694 1.23326 154.239 3.57474 146.56 4.72899C144.487 5.04045 142.404 5.28229 140.327 5.82552C141.218 5.93912 142.111 6.05362 143.479 6.22859C138.899 7.88027 134.616 9.08399 130.64 10.9418C125.453 13.3657 120.456 13.2649 115.174 11.4658C110.969 10.033 106.614 9.03452 102.794 6.20203C102.707 7.20971 103.454 7.74378 103.645 8.46289Z" fill="#041C33"/>
<path d="M21.5094 285.16C19.552 292.365 17.6212 299.193 15.8469 306.061C12.443 319.242 9.38512 332.491 8.52179 346.141C8.07043 353.275 8.29383 360.418 8.21143 367.556C8.14826 373.073 7.98622 378.59 8.01186 384.106C8.0201 385.808 7.43598 386.632 5.79811 386.867C5.16731 386.958 4.54751 387.201 3.95334 387.447C0.816757 388.745 -0.387156 390.589 0.107226 393.907C1.50431 403.27 2.94627 412.624 4.05405 422.288C4.65372 421.08 4.45504 420.043 4.45229 419.053C4.42483 410.615 4.42116 402.175 4.26827 393.738C4.22799 391.535 4.96591 390.354 7.15858 390.115C7.63832 390.062 8.11256 389.938 8.58406 389.827C11.9285 389.046 12.9648 387.79 11.5952 384.691C7.87635 376.277 9.72021 367.815 10.8335 359.342C12.6719 345.361 14.5551 331.385 16.5198 317.421C17.9297 307.395 19.5685 297.404 21.6055 287.483C21.7337 286.857 22.0276 286.25 21.5094 285.16Z" fill="#041C33"/>
<path d="M310.601 402.354C318.838 387.842 326.669 373.213 332.751 357.73C332.988 357.128 333.186 356.509 333.371 355.888C334.821 351.02 333.926 349.137 328.947 347.927C326.178 347.254 325.387 345.987 325.617 343.224C326.681 330.445 327.352 317.64 327.315 304.819C326.713 305.118 326.75 305.749 326.692 306.313C325.332 319.459 323.529 332.544 321.358 345.58C320.676 349.674 321.295 350.607 325.21 351.751C329.272 352.937 329.444 353.234 327.955 357.574C322.96 372.135 317.092 386.359 311.307 400.615C311.07 401.195 310.836 401.774 310.601 402.354Z" fill="#041C33"/>
<path d="M319.769 292.224C319.801 279.146 315.148 267.651 311.867 255.76C311.228 258.429 317.32 286.872 319.769 292.224Z" fill="#041C33"/>
<path d="M330.815 427.599C333.011 424.663 332.511 421.552 332.054 418.432C330.989 411.165 329.435 403.995 327.573 396.865C328.654 407.11 329.735 417.354 330.815 427.599Z" fill="#041C33"/>
<path d="M48.4386 441.242C42.7962 433.668 34.7552 430.031 26.0037 427.568C33.3251 432.37 41.8999 435.133 48.4386 441.242Z" fill="#041C33"/>
<path d="M282.763 372.07C292.152 372.985 307.177 366.85 316.06 358.353C310.837 361.416 305.921 365.002 300.354 367.484C294.765 369.976 288.943 371.441 282.763 372.07Z" fill="#041C33"/>
<path d="M218.839 27.8552C219.932 30.5659 221.198 33.1785 221.828 36.0183C222.26 37.9631 222.519 39.9226 219.925 40.8488C222.489 41.8207 224.524 40.3376 224.221 37.9466C223.708 33.9049 221.427 30.7894 218.839 27.8552Z" fill="#041C33"/>
<path d="M169.85 142.864C169.441 143.65 168.686 143.675 167.956 143.687C158.073 143.847 148.18 144.248 138.372 142.52C138.001 142.455 137.639 142.344 137.289 142.013C147.558 139.813 157.769 140.322 167.949 142.655C165.288 140.726 162.077 140.471 159.035 140.227C154.126 139.832 149.17 139.866 144.241 139.991C142.27 140.042 140.315 140.8 138.36 141.267C137.643 141.438 136.889 141.705 136.275 141.188C135.663 140.673 135.144 140.121 134.586 141.14C134.01 142.195 134.613 142.937 135.522 143.233C136.587 143.582 137.747 143.628 138.858 143.843C147.61 145.526 156.444 145.061 165.266 144.853C167.208 144.807 169.15 144.689 171.088 144.554C171.644 144.516 172.278 144.437 172.718 144.142C173.55 143.584 173.436 142.752 172.934 142.007C172.284 141.043 171.885 141.731 171.556 142.301C171.14 143.023 170.499 142.926 169.85 142.864Z" fill="#041C33"/>
<path d="M162.89 121.503C163.906 122.457 164.425 123.607 164.593 124.936C164.988 128.082 163.638 129.239 160.696 128.061C158.822 127.311 157.259 127.903 155.952 128.957C153.162 131.207 150.445 130.765 147.604 129.234C146.139 128.445 144.835 127.327 142.904 127.701C141.963 127.883 141.682 126.838 141.514 126.017C141.12 124.084 141.91 122.467 143.402 120.502C140.86 122.435 139.909 124.992 140.473 127.206C140.853 128.695 141.808 129.943 143.228 129.897C145.766 129.816 147.871 131.084 150.21 131.543C150.998 131.698 151.853 131.903 152.612 131.754C156.067 131.071 159.496 130.389 163.044 130.169C165.089 130.042 165.659 127.963 165.816 126.102C166.017 123.702 165.147 122.356 162.89 121.503Z" fill="#041C33"/>
<path d="M139.093 145.705C143.624 154.549 161.156 154.018 166.644 148.343C162.092 150.106 157.48 151.644 152.543 151.528C147.534 151.41 143.154 149.601 139.093 145.705Z" fill="#041C33"/>
<path d="M227.062 118.041C228.153 115.501 227.894 112.933 227.198 110.357C227.358 112.922 227.547 115.488 227.062 118.041Z" fill="#041C33"/>
<path d="M196.663 87.6004C195.186 82.6079 191.208 80.9443 186.649 80.1125C182.532 79.3613 178.343 79.1882 174.271 77.9643C171.487 77.1279 168.71 78.1356 166.192 79.6911C164.338 80.8371 164.386 82.3092 165.187 83.96C165.98 85.5952 167.179 86.3143 169.132 85.8489C177.918 83.7557 186.6 83.6009 194.994 87.5803C195.495 87.8203 196.042 88.0411 196.663 87.6004Z" fill="#041C33"/>
<path d="M174.839 204.344C178.82 196.544 181.275 188.121 184.881 180.168C179.952 187.58 177.417 195.971 174.839 204.344Z" fill="#041C33"/>
<path d="M139.822 186.507C141.452 193.624 143.082 200.741 144.712 207.858C144.262 200.47 142.748 193.322 139.822 186.507Z" fill="#041C33"/>
<path d="M190.198 99.3738C185.009 95.1177 179.654 92.4052 172.972 95.245C170.908 96.1217 169.271 97.5169 167.971 99.3316C167.342 100.209 167.152 101.119 167.911 101.982C168.875 103.075 168.38 101.254 169.213 101.316C172.023 101.527 174.865 101.265 177.682 101.425C180.271 101.571 182.302 101.006 183.453 98.4604C183.772 97.756 186.249 98.2772 186.153 99.0614C185.834 101.679 187.489 100.021 188.218 100.096C188.799 100.153 189.504 100.065 190.198 99.3738ZM175.244 96.2811C174.391 98.0876 174.864 99.4443 174.663 101.119C173.532 100.202 171.572 101.035 171.52 99.9179C171.444 98.2855 173.129 97.3575 175.244 96.2811Z" fill="#041C33"/>
<path d="M170.061 95.5437C172.185 94.6469 174.337 93.8416 176.606 93.4111C174.079 93.0108 171.904 93.7427 170.061 95.5437Z" fill="#041C33"/>
<path d="M140.537 97.3328C141.627 98.5292 142.312 99.2822 142.964 99.9985C142.378 100.889 141.287 100.185 140.747 101.063C142.158 101.063 143.473 101.063 144.831 101.063C142.538 93.313 133.131 92.1277 124.585 98.4027C126.291 100.291 128.495 100.82 131.292 100.861C129.924 100.385 128.277 100.371 128.379 99.0532C128.474 97.8238 129.684 96.938 131.037 96.5779C132.015 100.616 133.066 101.465 136.33 100.933C136.883 100.842 137.457 100.822 137.757 100.195C138.115 99.4434 138.475 97.9053 138.756 100.282C138.812 100.754 140.24 100.397 140.512 99.4663C140.659 98.9606 140.537 98.3762 140.537 97.3328Z" fill="#041C33"/>
<path d="M125.05 96.4625C127.184 95.7315 128.209 93.4899 130.402 92.9072C127.987 93.1619 126.22 94.4004 125.05 96.4625Z" fill="#041C33"/>
<path d="M137.853 105.715C140.649 105.968 142.302 104.6 143.911 103.126C142.031 103.93 140.15 104.734 137.853 105.715Z" fill="#041C33"/>
<path d="M62.6832 325.91C62.6804 331.779 66.6282 335.839 72.3264 335.826C78.7131 335.811 84.1504 330.138 84.1632 323.475C84.1751 317.337 80.2145 312.882 74.8029 312.942C68.1159 313.019 62.6868 318.828 62.6832 325.91ZM64.126 325.859C64.1343 319.631 69.0754 314.334 74.8541 314.355C79.4656 314.371 82.8448 318.248 82.8201 323.493C82.7926 329.529 78.1363 334.506 72.5278 334.492C67.5272 334.48 64.1187 330.978 64.126 325.859Z" fill="#041C33"/>
<path d="M58.3363 298.552C58.3711 302.934 61.6862 306.433 65.8472 306.478C70.2161 306.526 74.1492 302.388 74.1666 297.729C74.1821 293.364 71.1829 290.138 67.0722 290.102C62.2126 290.059 58.2997 293.844 58.3363 298.552ZM59.7453 298.191C59.7736 294.198 62.7537 291.389 66.9623 291.386C70.4468 291.383 73.0487 294.139 73.0405 297.822C73.0304 301.899 69.8261 305.197 65.915 305.156C62.3692 305.117 59.7169 302.123 59.7453 298.191Z" fill="#041C33"/>
</g>
</svg>
