<svg width="155" height="32" viewBox="0 0 155 32" fill="none" xmlns="http://www.w3.org/2000/svg">
<path d="M16.9379 3.35975C3.57358 18.2111 -0.29649 28.7875 -0.29649 28.7875C2.60606 32.2654 7.5533 31.9725 7.5533 31.9725C12.7676 32.1406 15.9614 28.802 15.9614 28.802C22.4413 22.0626 21.6434 2.92267 21.6434 2.92267C20.3335 -0.0214161 16.9379 3.35975 16.9379 3.35975ZM-3.67889 14.9738C-3.67889 14.9738 -5.72327 19.1953 -2.34868 26.2989L6.61984 5.94417C6.51737 5.98223 -1.46894 8.85954 -3.67889 14.9738ZM119.787 27.3701C119.236 27.4192 118.692 27.4192 118.153 27.2695C117.256 27.0292 116.714 26.4489 116.551 25.5015C116.463 24.9735 116.491 24.4548 116.583 23.9361C116.839 22.4661 117.107 20.9965 117.375 19.5266C117.852 16.8563 118.335 14.181 118.817 11.5104C118.834 11.3904 118.866 11.2701 118.891 11.1456H125.985C126.274 10.5359 127.435 7.54798 127.446 7.37057H120.743C120.299 7.37057 119.857 7.37992 119.38 7.3654C119.849 4.89679 120.31 2.4572 120.77 0.0214844H120.73C120.694 0.050193 120.66 0.0837422 120.621 0.0982578C120.107 0.366957 119.593 0.626625 119.077 0.890809C117.972 1.45272 116.87 2.01947 115.762 2.57687C115.637 2.64397 115.581 2.72558 115.572 2.86009C115.555 3.00428 115.532 3.14363 115.51 3.28749C115.329 4.46422 115.151 5.64063 114.969 6.81768C114.799 7.9128 114.629 9.00792 114.464 10.0982C114.285 11.2698 114.105 12.4423 113.929 13.609C113.759 14.6993 113.597 15.7893 113.431 16.8751C113.245 18.066 113.064 19.2527 112.885 20.4388C112.712 21.5291 112.55 22.6194 112.382 23.7054C112.32 24.0935 112.238 24.4783 112.217 24.868C112.172 25.6051 112.237 26.3449 112.408 27.0621C112.805 28.7385 113.784 29.8917 115.358 30.492C116.128 30.7903 116.931 30.9152 117.747 30.9436C118.497 30.9726 119.24 30.9239 119.98 30.8097C120.366 30.7568 120.756 30.6758 121.152 30.6029C121.429 29.383 121.703 28.1733 121.987 26.9392C121.898 26.9585 121.85 26.9679 121.801 26.9824C121.141 27.1647 120.468 27.313 119.787 27.3701ZM158.95 8.34085C158.787 8.32633 158.687 8.38891 158.596 8.53278C157.942 9.56532 157.277 10.5933 156.619 11.6165C156.585 11.6649 156.549 11.7075 156.498 11.7798C156.473 11.693 156.45 11.6356 156.433 11.5778C156.264 11.0017 156.097 10.4301 155.925 9.85821C155.795 9.41662 155.661 8.97921 155.529 8.53278C155.509 8.46085 155.488 8.38859 155.394 8.38859C155.208 8.39343 155.023 8.39343 154.822 8.39343C154.496 9.84337 154.173 11.2939 153.852 12.7449H154.487C154.715 11.8175 154.942 10.8908 155.169 9.96402C155.185 9.95885 155.202 9.95886 155.217 9.95886C155.488 10.9149 155.754 11.8704 156.03 12.8362C156.175 12.8362 156.315 12.8313 156.456 12.8413C156.585 12.8465 156.668 12.8029 156.745 12.6826C157.286 11.842 157.84 11.0066 158.394 10.1659C158.426 10.113 158.468 10.0605 158.503 10.0072C158.519 10.0124 158.536 10.0124 158.545 10.0218C158.473 10.9246 158.403 11.8327 158.334 12.75H158.99C158.993 12.7068 159 12.6829 159.007 12.6591C159.09 11.4243 159.17 10.195 159.251 8.96535C159.258 8.90793 159.279 8.85019 159.293 8.78793V8.3315C159.182 8.34085 159.066 8.35537 158.95 8.34085ZM104.45 6.53963C103.399 6.45166 102.343 6.47425 101.296 6.60704C99.8589 6.79884 98.4565 7.20658 97.1335 7.81732C95.4374 8.6002 93.9238 9.66661 92.5139 10.9056C91.3302 11.9527 90.2974 13.1345 89.4902 14.5129C88.0116 17.0396 87.2646 19.7575 87.4608 22.7258C87.5351 23.8593 87.7666 24.9586 88.1881 26.0105C89.174 28.4511 90.8416 30.1555 93.2918 31.0013C93.6258 31.1168 93.971 31.2223 94.3162 31.2658C95.1756 31.3668 96.0328 31.3526 96.891 31.2416C98.2028 31.0687 99.4402 30.6561 100.585 29.9691C102.317 28.9272 103.606 27.4524 104.476 25.5941C104.507 25.5263 104.538 25.4692 104.566 25.406L104.608 25.4205C104.236 27.1737 103.864 28.9272 103.488 30.69H107.789C109.077 23.3413 110.363 16.0015 111.65 8.64374C111.398 8.52375 111.168 8.41278 110.933 8.31247C108.858 7.38476 106.716 6.73188 104.45 6.53963ZM106.541 12.313C106.325 14.6232 105.771 16.8615 105.155 19.0901C104.534 21.3281 103.394 23.24 101.84 24.8967C100.938 25.8621 99.8998 26.6398 98.6695 27.1156C97.9704 27.3888 97.2497 27.5334 96.4996 27.5282C96.0863 27.523 95.672 27.5427 95.2725 27.4127C93.5458 26.8702 92.4314 25.6934 91.9038 23.9309C91.6907 23.2009 91.6317 22.4413 91.6804 21.6833C91.7779 20.1607 92.2296 18.744 92.8401 17.3654C93.074 16.8407 93.3288 16.3263 93.6039 15.8235C93.9407 15.218 94.383 14.6896 94.8588 14.2C96.6199 12.3846 98.7198 11.2078 101.16 10.6985C102.913 10.3434 104.649 10.4395 106.344 11.0585C106.426 11.0924 106.505 11.1214 106.617 11.164C106.592 11.5543 106.576 11.9333 106.541 12.313ZM145.841 8.96051C144.066 7.3996 141.984 6.6264 139.668 6.48221C138.017 6.38157 136.391 6.60221 134.826 7.16896C130.809 8.61955 127.848 11.3191 125.976 15.2574C125.132 17.0153 124.686 18.9483 124.671 20.9104C124.676 21.8323 124.746 22.6732 124.938 23.4993C125.676 26.6689 127.439 29.0033 130.295 30.4155C132.074 31.2945 133.967 31.5677 135.928 31.4145C137.205 31.3184 138.445 31.0207 139.64 30.5503C141.766 29.7239 143.606 28.4462 145.183 26.7608C146.755 25.0886 147.923 23.1584 148.618 20.9401C149.288 18.8121 149.467 16.6412 148.993 14.4413C148.523 12.2601 147.486 10.4205 145.841 8.96051ZM143.127 22.3703C141.995 24.2722 140.461 25.7276 138.494 26.6689C137.382 27.1972 136.21 27.4721 134.985 27.4376C132.452 27.3656 130.39 25.8092 129.623 23.2203C129.332 22.2407 129.264 21.2371 129.365 20.2185C129.623 17.7344 130.668 15.6457 132.333 13.8635C133.405 12.7107 134.664 11.8365 136.124 11.2836C137.163 10.8898 138.238 10.6979 139.345 10.8179C141.698 11.0772 143.324 12.3452 144.194 14.6219C144.51 15.4528 144.623 16.3222 144.629 17.2395C144.599 19.0756 144.074 20.7949 143.127 22.3703ZM44.4342 12.4426C44.3924 11.9527 44.348 11.4675 44.2105 10.9969C43.6941 9.21953 42.6267 7.95151 40.9547 7.24089C40.1684 6.90445 39.3473 6.74124 38.5032 6.68801C37.4401 6.62092 36.3867 6.72672 35.3423 6.95252C33.5629 7.33637 31.8999 8.02796 30.3348 8.96954C28.595 10.0118 27.0573 11.3182 25.7993 12.9465C24.8783 14.1374 24.166 15.4438 23.743 16.9089C23.5615 17.5331 23.4616 18.1673 23.3757 18.8108C23.2876 19.4782 23.1801 20.1414 23.1407 20.8188C23.0664 22.1013 23.1476 23.3648 23.4828 24.6044C24.1154 26.9631 25.4738 28.7207 27.6091 29.8055C28.7931 30.4058 30.0561 30.699 31.3604 30.8142C32.5257 30.9158 33.6816 30.8529 34.8331 30.6894C36.1702 30.4926 37.4751 30.1616 38.7591 29.7246C39.1312 29.5942 39.4986 29.4604 39.8756 29.3259C40.0434 27.8414 40.2105 26.3763 40.3827 24.878C40.3061 24.9212 40.2618 24.9451 40.2177 24.9741C38.4942 26.185 36.601 26.9398 34.5216 27.1595C33.6007 27.2556 32.6844 27.2172 31.7815 26.9827C30.7743 26.7127 29.893 26.2286 29.1839 25.4357C28.4791 24.648 28.0699 23.697 27.8418 22.6593C27.8371 22.6358 27.8509 22.611 27.8559 22.5781C27.9418 22.5726 28.0186 22.5635 28.1023 22.5635C28.9655 22.5203 29.8328 22.4868 30.6981 22.4336C32.2005 22.3523 33.6891 22.1936 35.1705 21.9345C36.3289 21.7278 37.4707 21.4587 38.5826 21.0649C39.6757 20.6762 40.7082 20.1814 41.6429 19.4708C43.0525 18.395 43.9619 16.9825 44.313 15.1958C44.4898 14.2822 44.5126 13.3603 44.4342 12.4426ZM39.9144 14.8777C39.7029 15.7328 39.2283 16.4051 38.5816 16.9625C37.9631 17.5054 37.2536 17.8795 36.4998 18.1724C35.5485 18.5534 34.5622 18.7788 33.5572 18.9221C32.4002 19.0889 31.2315 19.1533 30.0639 19.1143C29.4219 19.0901 28.7846 19.0372 28.1473 18.9943C28.1011 18.9943 28.0545 18.9743 27.9799 18.9601C28.008 18.8498 28.0286 18.754 28.0545 18.6676C28.5244 17.0586 29.3242 15.6364 30.4223 14.4026C31.6734 12.9855 33.1574 11.9046 34.9112 11.2517C35.6881 10.9637 36.4882 10.7814 37.3183 10.8098C37.73 10.8191 38.1277 10.8914 38.5073 11.0549C39.2049 11.343 39.656 11.8668 39.8563 12.611C40.0562 13.3603 40.1031 14.1184 39.9144 14.8777ZM64.3853 7.3225C63.5037 6.94316 62.5799 6.74156 61.6265 6.68866C60.4995 6.62124 59.3689 6.71821 58.2681 6.97671C56.2794 7.4383 54.6255 8.46601 53.3465 10.1134C52.8492 10.7569 52.4305 11.4533 52.0719 12.1836C52.0488 12.2317 52.0207 12.2791 51.9954 12.3275C51.9835 12.3181 51.9744 12.3133 51.9651 12.3078C52.2159 10.6988 52.4671 9.09469 52.7233 7.46669H48.1875C46.8991 15.2141 45.6129 22.9513 44.3218 30.7045H48.7292C48.7457 30.6416 48.7638 30.5884 48.7713 30.5365C49.0409 28.9072 49.299 27.2698 49.5783 25.646C49.8573 24.0464 50.2012 22.4616 50.6595 20.9062C51.1922 19.0911 51.8713 17.3324 52.8432 15.709C53.9526 13.8548 55.4434 12.4188 57.3372 11.444C58.4581 10.8675 59.6443 10.5504 60.9098 10.6466C61.3613 10.6801 61.7889 10.795 62.196 11.0024C62.6677 11.2472 62.9983 11.6314 63.1932 12.1359C63.3025 12.4288 63.3613 12.7313 63.3978 13.0391C63.4862 13.8123 63.4212 14.5858 63.3003 15.3441C63.0445 16.9196 62.7699 18.495 62.5028 20.0665C62.2166 21.7562 61.9261 23.4432 61.6402 25.1283L60.6911 30.6994C60.6861 30.7523 60.6861 30.8045 60.6818 30.8674H65.157C65.171 30.8045 65.1851 30.7523 65.1941 30.6994C65.3847 29.6378 65.5778 28.5775 65.7708 27.515C66.0848 25.7667 66.3991 24.0222 66.7171 22.28C67.0141 20.6192 67.3135 18.9588 67.6153 17.2989C67.8034 16.2809 67.9939 15.258 68.0177 14.2106C68.043 13.1591 67.9686 12.1214 67.6778 11.1085C67.1576 9.31565 66.0639 8.04796 64.3853 7.3225ZM90.672 7.26024H90.4311C89.0159 7.26024 87.6029 7.26024 86.189 7.25541C86.0259 7.25541 85.9422 7.30798 85.8631 7.45217C84.184 10.5695 82.4976 13.6816 80.8116 16.7986C79.6763 18.8924 78.5413 20.9917 77.4063 23.0913C77.3735 23.1539 77.3379 23.215 77.2995 23.2742C77.2879 23.268 77.2739 23.2645 77.262 23.2597C76.1314 17.9715 74.999 12.6878 73.8662 7.39992H69.4397C71.3076 15.3345 73.173 23.2597 75.043 31.2084H75.2667C75.6947 31.2084 76.1202 31.1987 76.5463 31.2084C76.7022 31.2129 76.7834 31.1597 76.8631 31.0248C77.7647 29.4546 78.6775 27.8943 79.5907 26.3276C83.238 20.0598 86.885 13.7916 90.5339 7.51862C90.5745 7.4425 90.6161 7.36572 90.672 7.26024ZM154.128 8.38891H150.884C150.845 8.625 150.803 8.8605 150.758 9.09534C150.991 9.09534 151.185 9.09534 151.39 9.09985C151.592 9.10501 151.794 9.07598 152.007 9.12405C151.788 10.3295 151.57 11.5252 151.351 12.7307H152.104C152.329 11.5156 152.548 10.315 152.774 9.09953C153.196 9.09018 153.593 9.10469 153.992 9.09018C154.042 8.84503 154.087 8.61923 154.128 8.38891Z" fill="#0D6DFD"/>
</svg>
