<svg width="175" height="32" viewBox="0 0 175 32" fill="none" xmlns="http://www.w3.org/2000/svg">
<g clip-path="url(#clip0_6622_1658)">
<path d="M41.8931 27.1813V4.94775H48.7763L53.8626 17.4351H54.4413L59.4667 4.94775H66.4718V27.1813H61.5377V8.20664L62.2383 8.26755L56.3601 22.6737H51.6088L45.7002 8.26755L46.4616 8.20664V27.1813H41.8931Z" fill="white"/>
<path d="M78.8282 27.7598C77.4069 27.7598 76.148 27.5162 75.0515 27.0289C73.9754 26.5416 73.0718 25.8918 72.3408 25.0796C71.6302 24.2472 71.082 23.3233 70.6962 22.3081C70.3307 21.2725 70.1479 20.2167 70.1479 19.1405V18.5314C70.1479 17.4146 70.3307 16.3486 70.6962 15.3334C71.082 14.2979 71.6302 13.3741 72.3408 12.5619C73.0516 11.7496 73.9348 11.1101 74.9906 10.6431C76.0668 10.1558 77.2851 9.91211 78.6454 9.91211C80.4322 9.91211 81.9348 10.3182 83.153 11.1304C84.3918 11.9223 85.3359 12.9679 85.9854 14.2674C86.6349 15.5466 86.9601 16.9476 86.9601 18.4705V20.1152H72.1886V17.3436H84.0057L82.4221 18.6228C82.4221 17.6278 82.28 16.775 81.9957 16.0644C81.7114 15.3538 81.285 14.8157 80.7165 14.4502C80.1683 14.0644 79.478 13.8715 78.6454 13.8715C77.7926 13.8715 77.0719 14.0644 76.483 14.4502C75.8942 14.836 75.4474 15.4045 75.1429 16.1558C74.8383 16.8867 74.686 17.7903 74.686 18.8664C74.686 19.8614 74.8282 20.7344 75.1124 21.4857C75.3967 22.2167 75.8434 22.7852 76.4525 23.1913C77.0617 23.5974 77.8535 23.8004 78.8282 23.8004C79.7216 23.8004 80.4526 23.6278 81.021 23.2827C81.5896 22.9375 81.9754 22.5111 82.1784 22.0035H86.6555C86.4118 23.1203 85.9344 24.1151 85.224 24.9883C84.5136 25.8614 83.6197 26.5416 82.5439 27.0289C81.4678 27.5162 80.2292 27.7598 78.8282 27.7598Z" fill="white"/>
<path d="M97.0726 27.7295C95.8947 27.7295 94.8188 27.5163 93.8442 27.0899C92.8901 26.6635 92.0571 26.0747 91.3467 25.3234C90.6363 24.5518 90.0881 23.6483 89.702 22.6127C89.3366 21.5772 89.1538 20.4604 89.1538 19.2625V18.562C89.1538 17.364 89.3267 16.2473 89.6716 15.2117C90.0371 14.1762 90.5548 13.2726 91.2249 12.5011C91.9155 11.7092 92.7378 11.1 93.6919 10.6736C94.6459 10.2269 95.7119 10.0036 96.8898 10.0036C98.23 10.0036 99.3873 10.298 100.362 10.8868C101.337 11.4554 102.098 12.3082 102.646 13.4452C103.194 14.562 103.499 15.9427 103.56 17.5874L102.281 16.3995V4.94775H107.184V27.1813H103.316V20.2676H103.986C103.925 21.8513 103.59 23.2015 102.981 24.3183C102.393 25.4351 101.59 26.2879 100.575 26.8767C99.5602 27.4453 98.3921 27.7295 97.0726 27.7295ZM98.2909 23.6483C99.0424 23.6483 99.7223 23.4859 100.331 23.161C100.961 22.8158 101.458 22.3183 101.824 21.6686C102.21 21.0189 102.403 20.2371 102.403 19.3234V18.1965C102.403 17.3031 102.21 16.5518 101.824 15.9427C101.438 15.3335 100.931 14.8666 100.301 14.5417C99.6713 14.2168 98.9914 14.0544 98.2604 14.0544C97.448 14.0544 96.717 14.2676 96.0675 14.6939C95.4378 15.1 94.9406 15.6686 94.5751 16.3995C94.2097 17.1102 94.0269 17.9427 94.0269 18.897C94.0269 19.8716 94.2097 20.7143 94.5751 21.4249C94.9406 22.1356 95.4485 22.6838 96.098 23.0696C96.7475 23.4554 97.4784 23.6483 98.2909 23.6483Z" fill="white"/>
<path d="M112.396 27.1811V10.4907H117.269V27.1811H112.396ZM110.173 14.0846V10.4907H117.269V14.0846H110.173ZM114.285 8.84606C113.371 8.84606 112.691 8.61256 112.244 8.14555C111.818 7.65824 111.604 7.04911 111.604 6.31814C111.604 5.56687 111.818 4.95773 112.244 4.49073C112.691 4.00342 113.371 3.75977 114.285 3.75977C115.198 3.75977 115.868 4.00342 116.295 4.49073C116.742 4.95773 116.965 5.56687 116.965 6.31814C116.965 7.04911 116.742 7.65824 116.295 8.14555C115.868 8.61256 115.198 8.84606 114.285 8.84606Z" fill="white"/>
<path d="M128.69 27.3641C127.471 27.3641 126.416 27.1915 125.522 26.8464C124.65 26.5012 123.969 25.9123 123.482 25.0799C123.015 24.2271 122.781 23.0798 122.781 21.6382V5.9834H125.583V22.0037C125.583 22.8768 125.817 23.557 126.284 24.0443C126.771 24.5113 127.452 24.7448 128.324 24.7448H131.187V27.3641H128.69ZM119.979 13.1103V10.9174H131.187V13.1103H119.979Z" fill="white"/>
<path d="M136.115 27.1811V10.9172H139.039V27.1811H136.115ZM133.618 13.2319V10.9172H139.039V13.2319H133.618ZM136.937 8.29789C136.287 8.29789 135.8 8.12531 135.476 7.78012C135.171 7.43495 135.019 6.99839 135.019 6.47048C135.019 5.94256 135.171 5.50601 135.476 5.16083C135.8 4.81566 136.287 4.64307 136.937 4.64307C137.587 4.64307 138.064 4.81566 138.369 5.16083C138.693 5.50601 138.856 5.94256 138.856 6.47048C138.856 6.99839 138.693 7.43495 138.369 7.78012C138.064 8.12531 137.587 8.29789 136.937 8.29789Z" fill="white"/>
<path d="M151.667 27.7296C150.266 27.7296 149.047 27.4859 148.012 26.9986C146.997 26.5113 146.154 25.8616 145.484 25.0493C144.814 24.2169 144.307 23.3032 143.961 22.3082C143.637 21.3133 143.474 20.3184 143.474 19.3235V18.7752C143.474 17.7397 143.637 16.7245 143.961 15.7295C144.307 14.7346 144.814 13.8412 145.484 13.0493C146.174 12.2371 147.027 11.5874 148.042 11.1001C149.058 10.6128 150.246 10.3691 151.606 10.3691C152.966 10.3691 154.185 10.6229 155.26 11.1306C156.357 11.6382 157.23 12.359 157.88 13.293C158.55 14.2067 158.926 15.293 159.007 16.5519H156.205C156.063 15.5367 155.595 14.694 154.804 14.024C154.012 13.3336 152.946 12.9884 151.606 12.9884C150.448 12.9884 149.484 13.2524 148.712 13.7803C147.941 14.3082 147.362 15.029 146.976 15.9427C146.591 16.8565 146.397 17.892 146.397 19.0493C146.397 20.1661 146.591 21.1915 146.976 22.1255C147.362 23.0392 147.941 23.7702 148.712 24.3184C149.504 24.8463 150.489 25.1103 151.667 25.1103C152.58 25.1103 153.372 24.9479 154.042 24.623C154.712 24.2981 155.251 23.8615 155.656 23.3133C156.063 22.7651 156.307 22.1458 156.387 21.4554H159.189C159.128 22.7346 158.753 23.8412 158.062 24.7752C157.392 25.7093 156.499 26.4402 155.382 26.9681C154.286 27.4758 153.048 27.7296 151.667 27.7296Z" fill="white"/>
<path d="M168.492 27.6688C166.36 27.6688 164.706 27.2119 163.528 26.2982C162.371 25.3845 161.772 24.1358 161.731 22.552H164.472C164.513 23.1815 164.828 23.7804 165.416 24.349C166.025 24.8972 167.051 25.1713 168.492 25.1713C169.792 25.1713 170.787 24.9175 171.477 24.4099C172.168 23.882 172.513 23.2424 172.513 22.4911C172.513 21.821 172.259 21.3033 171.751 20.9378C171.244 20.552 170.422 20.2982 169.284 20.1764L167.518 19.9936C165.975 19.8312 164.716 19.3744 163.741 18.6231C162.766 17.8515 162.279 16.7753 162.279 15.3946C162.279 14.3591 162.543 13.4759 163.071 12.7449C163.599 11.9936 164.33 11.4251 165.264 11.0393C166.198 10.6332 167.274 10.4302 168.492 10.4302C170.32 10.4302 171.802 10.8363 172.939 11.6484C174.077 12.4607 174.665 13.6687 174.706 15.2728H171.964C171.945 14.6231 171.64 14.0749 171.051 13.6281C170.483 13.1612 169.63 12.9276 168.492 12.9276C167.356 12.9276 166.493 13.1612 165.904 13.6281C165.315 14.0951 165.02 14.684 165.02 15.3946C165.02 16.0038 165.224 16.4911 165.629 16.8566C166.056 17.2221 166.746 17.4556 167.701 17.5571L169.467 17.7398C171.214 17.9226 172.615 18.4099 173.67 19.2018C174.726 19.9733 175.254 21.0697 175.254 22.4911C175.254 23.5063 174.96 24.4099 174.371 25.2018C173.803 25.9733 173.011 26.5824 171.995 27.0292C170.98 27.4556 169.813 27.6688 168.492 27.6688Z" fill="white"/>
<path d="M17.3021 31C24.6555 24.6323 30.0792 20.6194 32.8328 16.5331H23.7906L22.4688 12.5674L18.3355 24.9676L15.5239 16.5331H11.3906L10.0688 12.5674L8.74692 16.5331H1.77539C4.50539 20.5694 9.87716 24.5701 17.3021 31Z" fill="#0D6DFD"/>
<path d="M25.5693 0C21.3904 0 18.7083 2.91948 17.3026 5.54807C15.8968 2.91948 13.2147 0 9.03594 0C3.73387 0 -0.333008 4.33926 -0.333008 10.0935C-0.333008 11.6642 0.00121421 13.0894 0.616644 14.4669H7.25771L10.0692 6.03245L12.8807 14.4669H17.0141L18.3359 18.4326L22.4692 6.03245L25.2808 14.4669H33.9877C34.6018 13.0891 34.9382 11.6623 34.9382 10.0935C34.9382 4.33926 30.8713 0 25.5693 0Z" fill="#0D6DFD"/>
</g>
<defs>
<clipPath id="clip0_6622_1658">
<rect width="175" height="32" fill="white"/>
</clipPath>
</defs>
</svg>
