<svg width="218" height="40" viewBox="0 0 218 40" fill="none" xmlns="http://www.w3.org/2000/svg">
<g clip-path="url(#clip0_6622_2249)">
<path d="M52.187 33.9766V6.18475H60.7616L67.0976 21.7939H67.8185L74.0787 6.18475H82.805V33.9766H76.6587V10.2584L77.5313 10.3345L70.2088 28.3421H64.29L56.9296 10.3345L57.8781 10.2584V33.9766H52.187Z" fill="#041C33"/>
<path d="M98.1973 34.7C96.4268 34.7 94.8586 34.3954 93.4927 33.7863C92.1522 33.1771 91.0266 32.365 90.116 31.3497C89.2307 30.3091 88.5478 29.1543 88.0672 27.8853C87.6119 26.5908 87.3843 25.271 87.3843 23.9259V23.1644C87.3843 21.7685 87.6119 20.436 88.0672 19.167C88.5478 17.8726 89.2307 16.7178 90.116 15.7025C91.0013 14.6872 92.1016 13.8878 93.4168 13.304C94.7575 12.6949 96.2751 12.3903 97.9697 12.3903C100.196 12.3903 102.067 12.8979 103.585 13.9132C105.128 14.903 106.304 16.2101 107.113 17.8345C107.922 19.4335 108.327 21.1847 108.327 23.0883V25.1441H89.9263V21.6797H104.647L102.674 23.2786C102.674 22.035 102.497 20.969 102.143 20.0807C101.789 19.1924 101.258 18.5198 100.55 18.0629C99.8667 17.5806 99.0068 17.3396 97.9697 17.3396C96.9074 17.3396 96.0095 17.5806 95.2759 18.0629C94.5424 18.5452 93.9859 19.2558 93.6065 20.1949C93.2271 21.1086 93.0374 22.2381 93.0374 23.5832C93.0374 24.8269 93.2145 25.9182 93.5686 26.8573C93.9228 27.771 94.4792 28.4817 95.238 28.9893C95.9968 29.4969 96.9832 29.7507 98.1973 29.7507C99.3103 29.7507 100.221 29.535 100.929 29.1035C101.637 28.6721 102.118 28.1391 102.371 27.5045H107.948C107.644 28.9005 107.05 30.1441 106.165 31.2355C105.28 32.3269 104.166 33.1771 102.826 33.7863C101.486 34.3954 99.9426 34.7 98.1973 34.7Z" fill="#041C33"/>
<path d="M120.925 34.6619C119.457 34.6619 118.117 34.3954 116.903 33.8624C115.714 33.3294 114.677 32.5934 113.792 31.6543C112.907 30.6899 112.224 29.5604 111.743 28.266C111.288 26.9716 111.06 25.5756 111.06 24.0782V23.2025C111.06 21.7051 111.275 20.3091 111.705 19.0147C112.16 17.7203 112.805 16.5908 113.64 15.6264C114.5 14.6365 115.525 13.8751 116.713 13.3421C117.902 12.7837 119.23 12.5046 120.697 12.5046C122.366 12.5046 123.808 12.8726 125.022 13.6086C126.236 14.3193 127.185 15.3853 127.868 16.8066C128.551 18.2026 128.93 19.9284 129.006 21.9843L127.412 20.4995V6.18475H133.521V33.9766H128.702V25.3345H129.537C129.461 27.3142 129.044 29.002 128.285 30.398C127.552 31.7939 126.552 32.8599 125.288 33.5959C124.023 34.3066 122.568 34.6619 120.925 34.6619ZM122.442 29.5604C123.378 29.5604 124.225 29.3574 124.984 28.9513C125.769 28.5198 126.388 27.8979 126.843 27.0858C127.324 26.2736 127.564 25.2964 127.564 24.1543V22.7457C127.564 21.629 127.324 20.6898 126.843 19.9284C126.362 19.167 125.731 18.5833 124.946 18.1771C124.162 17.771 123.315 17.568 122.404 17.568C121.392 17.568 120.482 17.8345 119.673 18.3675C118.888 18.8751 118.269 19.5858 117.813 20.4995C117.358 21.3878 117.131 22.4284 117.131 23.6213C117.131 24.8396 117.358 25.8929 117.813 26.7812C118.269 27.6695 118.901 28.3548 119.711 28.837C120.52 29.3193 121.43 29.5604 122.442 29.5604Z" fill="#041C33"/>
<path d="M140.014 33.9766V13.1137H146.084V33.9766H140.014ZM137.244 17.6061V13.1137H146.084V17.6061H137.244ZM142.366 11.0579C141.228 11.0579 140.381 10.766 139.824 10.1822C139.293 9.57308 139.027 8.81166 139.027 7.89795C139.027 6.95886 139.293 6.19744 139.824 5.61369C140.381 5.00455 141.228 4.69998 142.366 4.69998C143.504 4.69998 144.339 5.00455 144.87 5.61369C145.427 6.19744 145.705 6.95886 145.705 7.89795C145.705 8.81166 145.427 9.57308 144.87 10.1822C144.339 10.766 143.504 11.0579 142.366 11.0579Z" fill="#041C33"/>
<path d="M160.311 34.2051C158.793 34.2051 157.479 33.9893 156.365 33.5579C155.278 33.1265 154.43 32.3904 153.823 31.3498C153.242 30.2838 152.95 28.8498 152.95 27.0478V7.47922H156.441V27.5046C156.441 28.596 156.732 29.4462 157.314 30.0554C157.921 30.6391 158.769 30.931 159.856 30.931H163.422V34.2051H160.311ZM149.46 16.3879V13.6467H163.422V16.3879H149.46Z" fill="#041C33"/>
<path d="M169.56 33.9767V13.6467H173.203V33.9767H169.56ZM166.449 16.5401V13.6467H173.203V16.5401H166.449ZM170.585 10.3726C169.775 10.3726 169.168 10.1569 168.764 9.7254C168.384 9.29393 168.194 8.74824 168.194 8.08834C168.194 7.42845 168.384 6.88275 168.764 6.45129C169.168 6.01982 169.775 5.80408 170.585 5.80408C171.394 5.80408 171.989 6.01982 172.368 6.45129C172.772 6.88275 172.975 7.42845 172.975 8.08834C172.975 8.74824 172.772 9.29393 172.368 9.7254C171.989 10.1569 171.394 10.3726 170.585 10.3726Z" fill="#041C33"/>
<path d="M188.933 34.6619C187.188 34.6619 185.67 34.3574 184.38 33.7482C183.116 33.1391 182.066 32.3269 181.231 31.3117C180.396 30.2711 179.765 29.129 179.334 27.8853C178.93 26.6416 178.727 25.398 178.727 24.1543V23.469C178.727 22.1746 178.93 20.9056 179.334 19.6619C179.765 18.4182 180.396 17.3015 181.231 16.3117C182.091 15.2964 183.154 14.4843 184.418 13.8751C185.683 13.266 187.163 12.9614 188.857 12.9614C190.552 12.9614 192.07 13.2787 193.41 13.9132C194.776 14.5478 195.864 15.4487 196.673 16.6162C197.508 17.7584 197.976 19.1163 198.077 20.6899H194.586C194.41 19.4208 193.827 18.3675 192.841 17.53C191.854 16.667 190.527 16.2355 188.857 16.2355C187.415 16.2355 186.215 16.5655 185.253 17.2254C184.292 17.8853 183.571 18.7863 183.09 19.9284C182.61 21.0706 182.369 22.365 182.369 23.8117C182.369 25.2077 182.61 26.4893 183.09 27.6569C183.571 28.799 184.292 29.7127 185.253 30.398C186.239 31.0578 187.467 31.3878 188.933 31.3878C190.071 31.3878 191.058 31.1848 191.892 30.7787C192.727 30.3726 193.398 29.8269 193.903 29.1416C194.41 28.4564 194.713 27.6823 194.814 26.8193H198.304C198.228 28.4183 197.761 29.8015 196.901 30.969C196.066 32.1366 194.953 33.0503 193.562 33.7102C192.196 34.3447 190.654 34.6619 188.933 34.6619Z" fill="#041C33"/>
<path d="M209.894 34.5858C207.238 34.5858 205.177 34.0147 203.709 32.8726C202.267 31.7305 201.522 30.1696 201.471 28.1899H204.885C204.937 28.9767 205.328 29.7254 206.062 30.4361C206.82 31.1213 208.098 31.464 209.894 31.464C211.513 31.464 212.752 31.1467 213.612 30.5122C214.472 29.8523 214.902 29.0528 214.902 28.1137C214.902 27.2762 214.586 26.6289 213.953 26.1721C213.321 25.6898 212.297 25.3726 210.88 25.2203L208.679 24.9919C206.758 24.7889 205.189 24.2178 203.975 23.2787C202.761 22.3143 202.154 20.969 202.154 19.2432C202.154 17.9487 202.483 16.8447 203.14 15.931C203.798 14.9919 204.709 14.2813 205.872 13.799C207.036 13.2914 208.376 13.0376 209.894 13.0376C212.17 13.0376 214.017 13.5452 215.433 14.5604C216.85 15.5757 217.583 17.0858 217.633 19.0909H214.219C214.194 18.2787 213.815 17.5934 213.081 17.035C212.373 16.4513 211.311 16.1594 209.894 16.1594C208.477 16.1594 207.403 16.4513 206.669 17.035C205.935 17.6188 205.568 18.3549 205.568 19.2432C205.568 20.0046 205.822 20.6137 206.327 21.0706C206.858 21.5274 207.719 21.8193 208.907 21.9462L211.108 22.1746C213.283 22.4031 215.029 23.0122 216.343 24.002C217.659 24.9665 218.316 26.337 218.316 28.1137C218.316 29.3827 217.95 30.5122 217.216 31.502C216.508 32.4665 215.522 33.2279 214.257 33.7863C212.992 34.3193 211.538 34.5858 209.894 34.5858Z" fill="#041C33"/>
<path d="M21.5537 38.75C30.7139 30.7904 37.4703 25.7743 40.9005 20.6664H29.6365L27.9899 15.7093L22.841 31.2095L19.3386 20.6664H14.1897L12.5431 15.7093L10.8964 20.6664H2.21191C5.61271 25.7118 12.3044 30.7126 21.5537 38.75Z" fill="#0D6DFD"/>
<path d="M31.8519 0C26.6462 0 23.305 3.64935 21.5539 6.93509C19.8027 3.64935 16.4616 0 11.256 0C4.65113 0 -0.415039 5.42408 -0.415039 12.6169C-0.415039 14.5802 0.00130609 16.3617 0.767956 18.0836H9.04083L12.5432 7.54056L16.0455 18.0836H21.1946L22.8411 23.0408L27.9901 7.54056L31.4925 18.0836H42.3388C43.1038 16.3614 43.5229 14.5779 43.5229 12.6169C43.5229 5.42408 38.4567 0 31.8519 0Z" fill="#0D6DFD"/>
</g>
<defs>
<clipPath id="clip0_6622_2249">
<rect width="218" height="40" fill="white"/>
</clipPath>
</defs>
</svg>
