<svg width="317" height="506" viewBox="0 0 317 506" fill="none" xmlns="http://www.w3.org/2000/svg">
<path opacity="0.05" d="M32.8551 61.0648C29.8586 63.4857 27.0166 65.609 24.3679 67.9499C13.9555 77.1537 10.6258 90.4245 15.1786 103.614C19.7209 116.766 26.9518 128.471 34.7259 139.841C41.5659 149.846 48.6317 159.709 55.9493 169.37C59.7276 174.358 64.2673 178.768 68.6843 183.685C68.6794 183.687 69.127 183.571 69.5255 183.362C73.3422 181.343 75.2012 181.371 78.3857 184.274C85.1299 190.421 92.6906 195.301 100.811 199.358C116.764 207.327 133.267 210.673 150.648 204.812C165.774 199.71 176.139 189.129 183.1 175.094C189.12 162.957 191.957 149.95 192.323 136.404C192.514 129.263 192.604 129.04 198.63 125.537C198.104 123.189 197.537 120.775 197.029 118.35C196.431 115.491 194.971 112.675 196.56 109.672C196.741 109.329 196.52 108.735 196.41 108.276C192.053 90.2401 188.101 72.0934 183.136 54.2283C180.868 46.069 177.278 38.0779 173.084 30.6974C166.02 18.2691 153.219 13.1016 139.102 15.76C137.877 15.9898 136.673 16.3481 135.44 16.5203C132.66 16.91 130.807 17.747 130.701 21.2416C130.613 24.2275 128.095 26.0901 125.514 27.3184C120.317 29.7921 115.119 32.3053 109.758 34.3788C107.862 35.1123 105.308 35.1867 103.363 34.5733C94.3809 31.7345 88.9357 22.0353 90.8163 12.8592C91.5207 9.41951 93.2484 6.48075 96.6217 5.5508C103.714 3.59634 110.896 1.89352 118.129 0.570329C121.491 -0.0449382 124.732 1.02472 127.009 4.18633C127.539 4.92089 129.361 5.25943 130.399 5.00646C138.606 3.00897 146.844 2.11812 155.211 3.83058C168.731 6.59911 178.711 14.2359 185.625 26.1196C192.68 38.242 196.804 51.4799 200.018 64.971C203.047 77.6886 205.396 90.5692 207.96 103.395C208.41 105.646 208.948 107.592 211.115 108.894C213.386 110.259 213.927 112.661 214.068 115.156C214.437 121.682 214.788 128.208 215.229 134.729C215.295 135.694 215.543 136.948 216.189 137.516C218.342 139.406 219 141.767 219.141 144.46C219.291 147.336 218.91 150.45 219.886 153.035C223.482 162.566 221.683 172.548 222.835 182.267C223.986 191.977 224.346 201.804 224.588 211.591C225.062 230.831 219.098 247.742 205.422 261.519C202.406 264.558 198.836 267.047 195.402 269.889C195.581 270.421 195.744 271.064 196.009 271.664C207.618 297.792 219.231 323.915 230.857 350.035C232.541 353.818 232.561 353.783 236.466 352.545C259.311 345.303 282.391 343.749 305.652 350.383C317.083 353.644 327.762 358.528 336.331 367.213C337.249 368.144 338.741 368.505 340.074 369.184C340.069 369.373 339.72 370.398 340.086 370.908C342.562 374.353 345.192 377.689 347.771 381.061C347.929 380.861 348.086 380.661 348.245 380.462C348.025 381.187 347.446 382.032 347.643 382.615C348.558 385.324 349.613 387.994 350.761 390.613C351.983 393.4 353.538 401.333 353.273 404.165C354.271 404.738 355.264 405.307 356.257 405.877C356.135 406.092 356.014 406.305 355.891 406.52C355.199 406.137 354.51 405.754 353.886 405.408C353.359 410.298 352.841 415.106 352.29 420.215C353.199 420.37 354.233 420.547 355.268 420.725C355.323 420.874 355.379 421.023 355.434 421.172C354.258 421.297 353.081 421.423 351.349 421.608C352.294 422.525 352.993 423.203 354.256 424.428C353.387 425.081 352.506 425.708 351.667 426.385C351.224 426.742 350.675 427.117 350.482 427.605C349.823 429.271 349.301 430.991 348.674 432.846C349.029 433.031 349.53 433.289 350.019 433.545C349.89 433.825 349.875 433.95 349.811 433.987C344.775 436.787 344.84 442.963 341.4 446.835C340.889 447.412 340.893 448.448 340.685 449.177C340.38 449.266 339.654 449.246 339.405 449.58C336.552 453.422 333.77 457.319 331.345 461.351C330.38 461.974 329.251 462.441 328.473 463.247C322.618 469.308 316.273 474.766 309.241 479.425C304.965 482.258 300.944 485.517 296.505 488.056C292.822 490.163 288.661 491.422 284.788 493.216C283.521 493.802 282.54 495.524 281.332 495.63C277.606 495.954 274.38 497.692 270.928 498.736C260.612 501.862 250.108 504.294 239.378 504.963C216.107 506.413 194.193 501.967 176.577 485.562C160.839 470.905 155.961 452.273 160.155 431.241C163.606 413.941 172.159 399.36 183.924 386.538C192.205 377.514 201.662 369.866 211.966 363.263C212.768 362.75 213.539 362.191 214.613 361.459C214.126 360.364 213.666 359.336 213.21 358.306C201.692 332.349 190.147 306.405 178.705 280.416C177.679 278.084 176.73 277.432 174.048 278.024C157.104 281.768 141.394 278.11 127.049 268.76C121.459 265.117 116.352 260.62 111.442 256.059C100.246 245.656 89.3031 234.977 78.2762 224.392C77.5897 223.733 76.6137 222.977 76.5135 222.173C75.9849 217.947 72.523 216.019 69.9626 213.4C67.4962 210.877 64.442 208.77 64.9798 204.501C65.0584 203.878 64.1615 203.043 63.5796 202.438C58.9787 197.66 54.3324 192.927 49.7231 188.157C47.4658 185.821 46.2635 183.204 46.9728 179.78C47.1686 178.833 46.3552 177.448 45.6365 176.567C34.1825 162.528 23.4465 147.985 14.4489 132.233C8.90054 122.518 3.66457 112.56 1.52289 101.483C-1.70076 84.8088 3.58123 70.7555 15.8613 59.2982C18.7994 56.5562 22.0934 54.1981 25.1432 51.5701C25.7502 51.0474 26.4712 49.9946 26.3286 49.3698C25.3331 45.0006 27.263 41.6326 30.3189 39.1814C35.2415 35.2344 40.383 31.4876 45.7754 28.2249C50.5745 25.3209 55.1226 26.3096 59.2003 30.1683C65.4679 36.1012 66.9149 43.348 64.3565 51.2934C63.6966 53.3446 61.767 55.5074 59.843 56.5258C54.6821 59.2575 49.1949 61.3712 43.8612 63.7854C39.6256 65.7067 36.2501 63.9376 32.8551 61.0648ZM277.853 418.144C277.574 418.82 276.919 419.603 277.078 420.153C277.839 422.803 278.82 425.391 279.722 427.999C279.522 428.293 279.321 428.588 279.122 428.882C281.126 429.93 279.793 431.648 279.317 432.42C276.323 437.281 272.741 441.628 267.708 444.62C260.806 448.725 253.55 450.279 245.696 448.072C242.929 447.294 240.659 445.772 239.345 443.139C251.057 452.965 271.657 442.329 275.271 430.77C274.362 430.532 273.462 430.294 272.562 430.057C271.832 430.096 271.102 430.135 270.372 430.174C270.091 430.161 269.736 430.031 269.544 430.155C266.467 432.118 263.392 434.083 260.389 436.154C260.141 436.323 260.413 437.247 260.445 437.821L260.46 437.71C259.712 437.62 258.914 437.317 258.228 437.48C255.289 438.18 252.382 439.016 249.462 439.804C249.441 439.74 249.422 439.678 249.401 439.614C249.853 439.462 250.302 439.309 250.259 439.324C244.887 438.799 239.05 438.229 233.251 437.663C234.149 444.022 238.228 448.125 244.628 449.79C257.602 453.161 273.147 446.488 280.177 434.157C281.107 432.524 283.062 430.33 280.779 428.077C281.214 427.795 281.949 427.582 282.034 427.217C282.755 424.146 280.113 418.265 276.989 416.207C277.354 417.023 277.603 417.582 277.853 418.144ZM284.77 406.496L284.884 406.539C282.872 405.996 280.863 405.455 277.931 404.664C278.795 406.604 279.315 407.771 279.835 408.938C277.797 409.755 279.079 410.484 279.853 411.33C281.377 412.999 283.072 414.58 284.258 416.471C286.441 419.951 288.014 423.639 286.744 427.987C286.337 429.385 286.629 430.991 286.599 432.501C286.227 433.065 285.66 433.586 285.518 434.203C284.984 436.536 283.49 437.708 281.964 437.168C280.436 438.864 279.132 440.626 277.522 442.041C269.834 448.799 260.438 451.626 250.57 452.282C239.489 453.021 233.205 447.699 230.453 436.708C230.305 436.121 229.946 435.45 229.477 435.101C227.26 433.447 224.97 431.893 222.567 430.207C219.2 433.88 216.829 438.239 215.387 443.061C212.53 452.612 215.517 460.954 224.225 465.722C228.243 467.921 232.984 469.463 237.529 469.898C256.075 471.674 272.598 465.982 287.228 454.778C294.955 448.861 301.23 441.712 303.855 431.932C305.669 425.172 304.766 419.095 299.729 413.39C300.883 415.982 302.171 418.059 302.749 420.319C305.074 429.419 301.923 437.403 296.105 443.915C281.323 460.458 262.753 469.046 240.307 468.222C235.411 468.043 230.623 466.893 226.394 464.192C248.695 473.025 284.423 459.259 296.059 439.31C294.972 439.161 293.919 439.019 292.864 438.875C292.966 438.621 293.067 438.367 293.168 438.113C294.589 438.249 296.012 438.383 297.433 438.519C297.469 438.308 297.506 438.094 297.541 437.883C296.939 437.423 296.335 436.963 295.733 436.503C295.796 436.37 295.86 436.239 295.923 436.107C296.751 436.276 297.582 436.447 298.484 436.631C298.757 435.646 298.862 434.786 299.223 434.055C301.194 430.076 301.457 425.911 300.776 421.594C299.494 413.423 291.234 406.841 284.77 406.496ZM305.375 450.223C306.905 448.869 308.537 447.616 309.943 446.146C315.855 439.968 321.277 433.323 324.795 425.514C327.491 419.529 329.998 413.228 331.118 406.806C333.17 395.027 328.543 385.327 318.784 378.593C301.114 366.399 281.167 366.975 261.078 368.98C260.395 369.048 259.751 369.506 259.087 369.778C258.356 370.078 257.55 370.263 256.91 370.696C256.19 371.184 255.621 371.893 254.983 372.507C254.822 372.33 254.662 372.153 254.501 371.976C255.113 371.461 255.725 370.945 256.338 370.43C256.113 370.027 255.888 369.624 255.663 369.224C253.431 370.218 250.752 372.513 249.061 371.926C245.825 370.805 244.082 373.587 241.439 373.07C241.317 373.576 241.196 374.081 241.073 374.588C241.812 374.588 242.551 374.59 243.29 374.591C242.977 374.421 242.663 374.251 242.348 374.081C242.388 374.72 242.218 375.516 242.536 375.952C242.812 376.33 243.643 376.301 244.26 376.459C244.206 377.424 241.952 379.401 245.007 379.094C245.111 380.141 245.007 381.22 245.351 382.128C246.074 384.041 247.401 385.789 247.797 387.743C248.263 390.038 249.416 390.19 251.22 389.838C251.871 389.712 252.557 389.754 253.226 389.734C262.488 389.446 270.47 391.894 275.866 400.154C276.372 400.927 277.606 401.398 278.593 401.649C283.957 403.013 289.484 403.873 294.691 405.671C299.051 407.177 302.719 410.169 305.73 413.81C306.3 414.497 307.076 415.014 307.599 415.471C307.639 416.069 307.489 416.891 307.772 417.516C309.028 420.298 310.706 422.927 311.626 425.806C312.144 427.429 311.282 429.442 311.396 431.257C311.849 438.355 308.5 444.12 305.375 450.223ZM183.629 461.478C194.536 478.26 223.099 481.502 238.161 479.461C234.865 478.404 231.137 477.452 227.598 476.026C215.274 471.062 208.714 458.329 211.469 445.317C212.778 439.137 215.854 433.916 219.487 428.898C220.148 427.985 220.587 426.413 220.292 425.383C218.757 420.029 218.957 414.772 221.652 410.003C223.748 406.292 226.506 402.912 229.286 399.657C230.491 398.245 230.698 397.224 229.967 395.67C227.762 390.981 225.623 386.261 223.438 381.562C223.404 381.488 223.118 381.531 222.691 381.5C222.856 382.184 222.997 382.774 223.071 383.082C219.156 382.376 217.954 386.323 214.98 387.046C215.605 388.11 216.015 388.809 216.425 389.509C216.304 389.57 216.182 389.63 216.062 389.692C215.581 389.076 215.098 388.458 214.515 387.71C205.192 395.585 196.908 404.16 190.199 414.182C189.914 414.609 190.399 415.553 190.537 416.332C187.753 415.25 188.61 417.004 188.591 418.188C184.68 422.154 183.598 427.608 181.357 432.505C182.147 432.733 182.71 432.897 183.604 433.156C182.388 433.697 181.625 434.037 180.861 434.376C181.532 434.786 182.203 435.194 183.181 435.792C182.102 436.015 181.263 436.188 180.424 436.362C180.202 437.984 179.989 439.554 179.777 441.106C180.409 441.235 180.971 441.349 181.532 441.464C181.536 441.612 181.542 441.761 181.549 441.91C180.898 442.107 180.247 442.307 179.552 442.517C179.631 443.34 179.704 444.122 179.782 444.937C180.419 444.654 180.865 444.455 181.637 444.112C181.308 445.22 181.089 445.959 180.863 446.72C180.454 446.437 180.101 446.192 179.75 445.948C179.535 446.148 179.318 446.347 179.105 446.547C179.753 447.345 180.4 448.141 181.024 448.909C179.355 450.242 179.692 454.001 182.153 457.832C182.662 457.558 183.171 457.284 183.783 456.954C183.366 458.124 183.032 459.06 182.7 459.996C183.522 459.95 184.345 459.903 185.682 459.826C184.768 460.557 184.194 461.021 183.629 461.478ZM92.5809 205.752C92.4509 205.985 92.3208 206.218 92.1915 206.454C92.7568 207.07 93.2704 207.746 93.8975 208.293C100.042 213.668 106.08 219.172 112.394 224.339C120.533 230.999 129.246 236.75 139.324 240.176C155.175 245.565 174.024 240.731 185.21 228.353C192.56 220.22 196.623 210.447 197.778 199.796C199.068 187.893 199.196 175.858 199.777 163.878C199.854 162.301 199.629 160.711 199.543 159.126C199.31 159.084 199.075 159.041 198.841 158.999C198.457 160.128 198.051 161.25 197.694 162.389C195.886 168.163 194.201 173.976 192.267 179.706C188.385 191.199 182.423 201.498 172.982 209.214C157.715 221.692 140.208 224.183 121.761 218.243C112.497 215.262 103.776 210.579 94.8075 206.671C94.0707 206.351 93.3231 206.058 92.5809 205.752ZM88.0865 207.776C87.9507 207.922 87.814 208.065 87.6798 208.21C88.238 208.805 88.7701 209.426 89.3569 209.994C95.4992 215.941 101.598 221.937 107.815 227.808C116.472 235.986 124.774 244.623 134.025 252.067C149.796 264.758 170.752 265.181 186.455 253.722C199.398 244.279 206.173 231.194 206.081 215.212C205.977 196.782 204.958 178.355 204.314 159.927C204.274 158.771 204.055 157.622 203.919 156.47C203.159 156.798 202.973 157.114 202.972 157.43C202.965 165.306 203.125 173.186 202.953 181.059C202.72 191.763 201.612 202.396 197.984 212.532C191.054 231.886 177.342 243.042 156.895 245.435C145.763 246.738 135.631 243.141 126.12 237.706C115.477 231.622 106.107 223.791 96.9661 215.68C94.0015 213.05 91.0453 210.411 88.0865 207.776ZM165.277 443.637C165.89 444.456 166.04 444.839 166.197 444.842C169.164 444.898 170.356 446.225 169.393 449.176C169.339 449.342 169.366 449.569 169.432 449.737C170.78 453.085 172.14 456.428 173.497 459.772C175.308 464.232 177.317 468.507 180.856 471.994C187.902 478.937 196.325 482.578 205.993 484.33C229.905 488.663 253.127 486.359 275.41 477.086C298.63 467.424 316.976 451.606 330.11 430.037C336.541 419.478 340.536 407.993 338.185 395.479C334.051 373.473 320.529 359.325 299.399 353.057C280.068 347.321 260.615 349.462 241.408 354.489C238.947 355.133 236.538 355.975 234.145 356.713C234.525 359.5 235.632 360.317 238.125 359.593C252.175 355.519 266.5 355.366 280.919 356.961C294.216 358.431 307.047 361.392 318.356 369.081C329.08 376.372 335.265 386.097 335.143 399.47C335.035 411.322 331.278 422.064 324.985 431.757C307.874 458.11 283.461 473.965 252.949 480.707C234.935 484.688 217.089 484.592 199.724 477.758C185.587 472.196 175.459 462.477 170.887 447.59C170.465 446.218 170.316 444.744 169.747 443.447C169.527 442.944 168.497 442.787 167.823 442.505C167.78 442.487 167.619 442.758 167.528 442.875C168.127 443.253 168.724 443.632 169.323 444.011C169.234 444.194 169.145 444.376 169.056 444.559C168.015 444.305 166.976 444.052 165.277 443.637ZM53.6313 173.297C53.8379 173.099 54.0436 172.903 54.2502 172.704C48.9992 165.526 43.7116 158.376 38.5081 151.162C29.7936 139.085 21.4643 126.754 15.3252 113.112C11.7447 105.158 8.97941 96.96 10.1057 88.033C11.5072 76.9283 17.8044 68.8388 26.2826 62.1628C27.9673 60.8368 29.7284 59.607 31.4559 58.3329C31.2929 58.011 31.129 57.6915 30.9661 57.3696C29.0319 58.4359 27.0969 59.5045 25.1628 60.5708C25.5866 59.4117 26.272 58.6765 27.0443 58.0526C27.9134 57.3501 28.8603 56.7431 29.9838 55.9451C29.2695 55.1093 28.6907 54.4322 28.0202 53.646C26.1224 55.0235 24.3713 56.1917 22.7323 57.5012C11.8581 66.1848 4.40891 76.8147 3.84572 91.2994C3.52694 99.4961 6.07193 107.063 9.25016 114.426C16.04 130.158 25.1762 144.503 35.4624 158.141C40.081 164.266 44.7738 170.332 49.5154 176.534C51.2374 175.036 53.6162 174.235 50.7873 171.057C52.2451 172.206 52.9382 172.752 53.6313 173.297ZM205.2 106.955C205.185 106.398 205.223 106.018 205.16 105.656C201.851 86.639 198.048 67.7317 191.999 49.3548C188.56 38.9086 184.498 28.7692 177.284 20.1946C165.405 6.07614 144.367 3.07882 129.144 9.2294C129.623 10.8307 130.104 12.4312 130.522 13.8249C135.028 13.2308 139.358 12.4053 143.725 12.1297C157.845 11.2409 168.828 16.8416 175.994 29.0997C179.133 34.4654 181.718 40.2232 183.956 46.0329C190.557 63.1542 193.946 81.1412 197.728 99.0124C198.356 101.977 199.121 104.915 199.816 107.834C201.76 107.515 203.342 107.258 205.2 106.955ZM233.153 382.534C232.735 382.101 231.987 381.625 231.671 380.947C229.746 376.826 227.912 372.663 226.059 368.51C223.066 361.801 220.08 355.09 217.092 348.379C211.802 336.497 206.511 324.613 201.22 312.73C196.578 302.305 191.936 291.879 187.236 281.322C186.046 281.979 185.029 282.543 183.921 283.156C200.68 320.797 217.357 358.253 234.127 395.92C235.306 395.263 236.187 394.772 236.854 394.402C236.591 392.452 236.37 390.817 236.158 389.237C233.648 389.428 234.605 386.088 233.31 384.677C232.9 384.232 233.181 383.15 233.153 382.534ZM183.907 486.862C180.969 483.492 177.699 480.348 175.186 476.686C172.651 472.993 170.515 468.926 168.813 464.775C162.268 448.826 163.799 433.203 171.278 417.994C178.943 402.41 190.059 389.66 203.581 378.942C208.129 375.337 212.802 371.894 217.428 368.367C216.932 367.254 216.482 366.244 216.007 365.177C215.49 365.372 215.125 365.475 214.795 365.644C214.197 365.947 213.598 366.258 213.037 366.624C200.578 374.733 189.348 384.234 180.197 396.037C169.151 410.284 161.999 426.077 162.145 444.487C162.284 462.187 170.011 476.15 183.907 486.862ZM256.693 430.778C262.77 428.234 267.348 423.924 270.998 418.62C276.571 410.522 274.663 402.549 266.146 397.679C251.169 389.115 229.521 397.128 223.742 413.377C220.897 421.376 224.559 429.328 232.6 432.349C240.86 435.456 248.826 433.596 256.693 430.778ZM147.158 271.976C146.166 270.54 145.785 269.331 145.004 268.953C134.966 264.093 125.617 258.172 117.443 250.569C108.925 242.646 100.66 234.453 92.2826 226.378C88.5654 222.795 84.8473 219.214 81.1701 215.672C78.8505 219.379 78.8828 219.801 82.1629 222.946C92.7655 233.112 103.453 243.187 113.956 253.456C119.487 258.865 125.319 263.797 132.231 267.313C136.722 269.599 141.376 271.44 147.158 271.976ZM196.157 137.755C195.299 143.601 194.761 149.154 193.635 154.584C190.642 169.022 185.238 182.398 174.718 193.074C159.622 208.392 141.315 213.74 120.244 209.742C109.919 207.783 100.516 203.402 91.5495 198.091C87.1641 195.493 83.0742 192.394 78.413 189.221C81.154 193.676 84.7433 196.54 88.7054 198.88C100.559 205.88 113.054 211.058 126.892 212.652C146.306 214.887 162.997 209.85 176.126 194.89C186.017 183.619 192.383 170.551 195.596 155.906C196.899 149.973 197.899 144.039 196.157 137.755ZM208.156 155.923C207.921 156.045 207.685 156.17 207.451 156.292C207.608 158.845 207.819 161.394 207.917 163.95C208.54 180.354 209.416 196.754 209.681 213.162C210.103 239.181 191.531 261.25 168.311 265.272C168.447 265.878 168.578 266.458 168.653 266.792C169.97 266.339 171.074 265.846 172.232 265.589C174.556 265.073 177.034 265.021 179.231 264.196C197.744 257.242 207.526 242.978 210.769 224.186C212.176 216.031 211.711 207.491 211.565 199.134C211.414 190.545 210.643 181.964 210.089 173.383C209.743 168.008 209.311 162.639 208.866 157.271C208.827 156.803 208.402 156.369 208.156 155.923ZM186.367 184.595C178.862 195.43 170.25 204.976 157.844 210.392C145.432 215.812 132.605 215.784 119.548 213.617C145.959 224.423 174.955 213.657 186.367 184.595ZM73.0413 195.94C68.5671 190.1 64.1271 184.235 59.6037 178.434C57.3824 175.587 55.0056 175.439 52.2251 177.775C50.5447 179.186 49.5911 182.843 50.7641 184.303C52.5784 186.558 54.617 188.633 56.5614 190.783C56.6694 190.685 56.7774 190.588 56.8846 190.493C55.4383 188.084 53.992 185.674 52.5458 183.265C52.8072 183.101 53.0669 182.938 53.3283 182.775C58.2554 188.32 63.1818 193.864 68.0306 199.322C69.847 198.097 71.413 197.039 73.0413 195.94ZM97.6869 22.0895C98.3098 20.0745 98.6593 18.3332 99.3934 16.7756C99.8803 15.7404 100.766 14.7089 101.742 14.1363C103.121 13.3251 104.72 12.8383 106.274 12.3866C112.266 10.646 118.279 8.97481 124.349 7.26034C123.101 4.0469 120.55 3.70548 118.235 4.12464C111.854 5.27744 105.508 6.68496 99.2116 8.24956C96.0888 9.02657 94.4499 11.626 94.2928 14.6741C94.1469 17.5042 94.7306 20.3743 94.9933 23.2256C95.282 23.1937 95.5706 23.1619 95.8593 23.13C95.6788 21.8061 95.4984 20.4821 95.3172 19.1566C95.5219 19.1128 95.7282 19.0683 95.9321 19.0228C96.4375 19.9062 96.9415 20.7863 97.6869 22.0895ZM31.2602 48.9452C32.2573 49.5505 32.8216 49.8949 33.8799 50.5361C32.3749 47.7743 34.3324 46.9857 35.5364 46.1301C38.993 43.6779 42.5232 41.3074 46.1569 39.1294C49.0826 37.3751 52.2048 35.9475 55.231 34.3793C53.0498 30.4079 50.2901 29.3152 46.3515 31.8992C41.3376 35.1906 36.4813 38.7788 31.8801 42.6261C28.599 45.3709 28.7183 47.7102 31.4873 51.5974C31.4085 50.6739 31.3496 49.9941 31.2602 48.9452ZM210.531 136.243C209.134 127.928 207.806 119.991 206.459 112.057C206.056 109.687 204.242 110.348 202.831 110.552C201.278 110.778 199.165 110.881 199.605 113.263C201.1 121.344 202.761 129.395 204.509 138.224C205.622 136.987 206.265 136.272 206.994 135.459C207.784 135.634 209.054 135.914 210.531 136.243ZM79.6784 204.045C79.6171 203.938 79.3943 203.252 78.937 202.817C77.5386 201.487 75.8419 199.045 74.6413 199.251C72.5807 199.6 70.487 201.355 69.044 203.06C68.2864 203.956 68.2858 206.388 68.98 207.443C70.465 209.701 72.622 211.516 74.3431 213.341C76.1344 210.218 77.7976 207.32 79.6784 204.045ZM204.509 147.778C208.564 148.258 212.187 148.688 215.734 149.109C215.699 148.326 215.644 146.922 215.565 145.522C215.45 143.462 215.279 141.819 213.078 140.333C210.36 138.499 207.979 138.929 205.974 140.37C204.8 141.213 204.59 143.56 204.209 145.288C204.018 146.152 204.419 147.147 204.509 147.778ZM77.4829 214.077C80.5707 210.651 83.7524 207.122 86.645 203.911C82.7809 203.863 77.5207 209.481 77.4829 214.077ZM284.388 428.736C288.563 424.736 284.051 415.14 278.305 412.459C283.027 417.231 286.004 422.141 284.388 428.736ZM200.76 152.924C205.177 152.847 209.8 152.767 214.214 152.689C210.943 149.927 204.795 150.057 200.76 152.924ZM199.738 130.061C199.415 129.954 199.093 129.849 198.77 129.742C198.387 130.532 197.514 131.475 197.704 132.087C198.555 134.828 199.71 137.475 200.754 140.156C201.052 140.083 201.35 140.007 201.648 139.934C201.013 136.643 200.376 133.353 199.738 130.061ZM77.0532 195.366C77.2921 195.218 77.5311 195.071 77.7701 194.923C76.2172 191.934 74.6618 188.944 72.9842 185.715C72.2021 186.343 71.6 186.828 70.8253 187.451C73.0232 190.246 75.0382 192.806 77.0532 195.366ZM223.706 489.186C223.736 488.976 223.766 488.765 223.796 488.554C218.475 487.847 213.155 487.139 207.833 486.43C207.806 486.662 207.78 486.895 207.753 487.126C213.073 487.812 218.39 488.5 223.706 489.186ZM210.093 111.944C209.741 112.014 209.389 112.084 209.035 112.155C209.573 115.582 210.113 119.006 210.651 122.433C210.885 122.392 211.119 122.353 211.354 122.311C210.933 118.856 210.513 115.4 210.093 111.944ZM226.154 488.635C226.162 488.832 226.168 489.029 226.176 489.227C230.36 489.08 234.544 488.933 238.727 488.784C238.718 488.565 238.711 488.345 238.703 488.128C234.52 488.296 230.338 488.464 226.154 488.635Z" fill="#041C33"/>
</svg>
