<svg width="237" height="456" viewBox="0 0 237 456" fill="none" xmlns="http://www.w3.org/2000/svg">
<g opacity="0.08">
<path d="M41.7799 254.307C39.6372 258.115 37.6076 261.719 35.9655 264.635C30.3674 262.788 25.3107 260.942 20.1353 259.539C18.8185 259.181 16.448 259.791 15.8013 260.776C15.2189 261.663 15.8422 264.195 16.7888 265.092C20.0164 268.148 23.5051 270.967 27.1281 273.548C29.2318 275.045 29.709 276.1 28.2793 278.491C23.8557 285.894 19.7282 293.475 15.5208 300.923C13.0996 300.023 11.0154 298.856 8.81432 298.567C7.3768 298.377 5.77177 299.46 4.2427 299.974C4.74719 301.41 4.85821 303.266 5.83993 304.194C7.76636 306.019 10.1778 307.326 12.7354 309.088C10.1408 313.512 7.52093 317.963 4.9147 322.423C3.59989 324.672 2.22666 326.892 1.02483 329.201C-1.00484 333.103 0.0197155 336.62 3.71091 338.855C7.36315 341.067 11.2959 340.498 13.5574 336.919C17.5057 330.669 21.1404 324.219 24.9134 317.857C25.225 317.332 25.5912 316.837 25.7646 316.576C28.6708 317.586 31.3471 318.807 34.154 319.352C35.3519 319.585 37.5336 318.729 37.9718 317.771C38.4062 316.82 37.553 314.807 36.6512 313.823C35.3558 312.41 33.5073 311.509 32.0445 310.493C36.8615 302.27 41.6124 294.157 46.3632 286.045C46.0067 285.82 45.6503 285.597 45.2958 285.373C39.2866 292.797 35.3753 301.656 28.8539 309.309C28.9844 308.35 28.8422 307.234 29.2863 306.455C32.5879 300.661 35.9597 294.907 39.4016 289.196C43.2388 282.829 43.2349 282.993 50.3992 285.449C53.5099 286.516 56.8368 287.08 60.1131 287.459C61.3072 287.598 63.3291 286.842 63.7186 285.945C64.1374 284.978 63.479 282.967 62.6064 282.114C60.0158 279.58 57.1251 277.346 54.2774 275.09C52.9879 274.068 51.5231 273.271 50.0797 272.333C51.2114 270.484 52.2379 268.828 53.2411 267.157C54.1994 265.563 55.1344 263.955 56.0558 262.393C62.9804 264.171 63.3505 263.996 66.7066 258.343C85.225 227.166 103.673 195.947 122.357 164.871C126.467 158.035 130.178 151.347 131.502 143.225C132.406 137.68 135.225 132.434 137.317 127.105C138.727 123.514 140.601 120.079 138.6 116.052C138.302 115.451 138.816 114.278 139.225 113.516C140.731 110.722 142.099 107.997 141.033 104.617C140.784 103.823 141.393 102.63 141.861 101.756C149.919 86.6842 158.009 71.6299 166.116 56.5833C167.279 54.4243 168.288 52.404 171.213 51.6479C174.626 50.7667 176.009 46.9372 174.918 43.4574C173.901 40.2199 170.57 38.4673 166.883 39.2332C163.527 39.9287 161.209 42.922 162.019 46.4311C162.662 49.2173 161.678 51.1536 160.426 53.3946C153.871 65.1255 147.455 76.9326 140.99 88.7123C139.085 92.1843 137.293 95.7266 135.215 99.0912C134.274 100.613 132.786 101.803 131.496 103.093C130.764 103.825 129.757 104.329 129.175 105.152C127.291 107.815 125.294 109.859 122.045 111.338C119.396 112.545 117.741 116.197 115.937 118.958C112.883 123.633 109.271 127.606 104.686 130.911C102.01 132.84 99.8047 135.749 98.0769 138.633C78.3724 171.528 58.8003 204.503 39.1931 237.457C37.9679 239.516 36.7232 241.564 35.5467 243.648C33.4177 247.421 33.745 249.06 37.2219 251.563C38.5581 252.517 40.0385 253.265 41.7799 254.307ZM71.0134 193.991C72.0964 194.66 73.1794 195.326 74.2624 195.994C74.165 196.275 74.0695 196.557 73.9722 196.838C72.0087 196.371 70.0472 195.904 68.0838 195.437C68.113 195.054 68.1422 194.669 68.1714 194.286C69.1473 194.21 70.1213 194.134 71.0971 194.056C70.6764 193.368 70.2576 192.678 69.8369 191.991C70.092 191.678 70.3452 191.365 70.6004 191.053C72.5093 192.026 74.4163 192.997 76.3252 193.97C76.1908 194.32 76.0564 194.667 75.922 195.017C74.2838 194.675 72.6457 194.331 71.0134 193.991ZM101.193 151.47C100.905 152.111 100.477 153.336 100.348 153.304C98.5288 152.869 96.7465 152.279 94.9974 151.612C94.9506 151.595 95.3889 150.301 95.5993 149.602C96.4583 148.971 97.3173 148.34 98.225 147.674C98.0594 147.377 97.7068 146.747 97.0173 145.513C99.3586 146.001 101.069 146.357 102.779 146.714C102.789 146.609 102.797 146.503 102.806 146.398C101.439 145.669 100.073 144.94 98.7061 144.211C98.8054 143.989 98.9048 143.766 99.0061 143.543C99.6878 143.402 100.37 143.262 101.051 143.121C100.851 142.879 100.652 142.636 100.451 142.394C100.897 141.857 101.371 141.339 101.78 140.776C101.969 140.517 101.986 140.132 102.167 139.864C103.656 137.66 104.9 135.21 106.733 133.342C108.821 131.214 111.465 129.64 113.818 127.762C114.803 126.974 115.76 126.506 116.43 124.956C118.432 120.329 119.683 120.015 123.991 122.008C127.164 123.475 130.146 125.355 132.782 126.812C130.587 135.2 128.545 143.135 126.407 151.044C126.003 152.531 125.351 153.996 124.568 155.325C116.788 168.507 108.932 181.643 101.147 194.822C96.4466 202.778 91.836 210.787 87.1845 218.772C86.793 219.192 86.3119 219.557 86.0236 220.04C78.4639 232.754 70.8692 245.446 63.4323 258.232C62.0863 260.545 60.6663 261.124 58.4146 259.91C52.2029 256.567 45.9016 253.375 39.8262 249.799C36.4038 247.785 36.546 246.978 39.8535 243.619C41.6065 245.313 43.3654 247.011 44.8517 248.447C49.1389 248.343 51.9536 252.362 56.235 252.253C53.3307 250.514 50.4264 248.773 47.4618 246.997C48.613 245.798 48.613 245.798 52.2146 247.728C53.9501 244.01 48.0929 244.961 48.5292 241.892C51.9165 243.332 55.1461 244.705 58.3756 246.079C58.5549 245.768 58.7321 245.46 58.9113 245.149C56.418 243.33 53.9229 241.511 51.0829 239.44C52.7658 238.83 54.0085 238.381 55.5785 237.814C54.6884 237.142 54.1566 236.738 53.5859 236.306C54.7332 234.549 55.8084 232.906 56.5232 231.812C58.0932 231.255 59.2853 230.833 60.9624 230.239C59.634 229.034 58.9405 228.404 57.7114 227.289C63.8862 226.792 67.33 231.988 72.1451 233.121C72.3087 232.756 72.4723 232.39 72.6379 232.023C68.522 229.391 64.4082 226.757 60.1502 224.036C62.1545 222.979 63.8569 222.078 65.8866 221.007C64.788 220.097 64.2251 219.63 63.6719 219.171C64.8854 217.686 65.947 216.388 66.8527 215.278C68.4227 215.351 69.9206 215.419 71.4205 215.488C71.5042 215.189 71.588 214.89 71.6717 214.591C70.4699 213.797 69.2661 213.006 67.254 211.68C68.7616 211.68 69.5271 211.476 70.1173 211.715C72.7898 212.795 75.3941 214.042 78.0568 215.148C81.0819 216.402 84.1458 217.568 87.1923 218.774C86.119 217.867 85.1568 216.754 83.9491 216.087C79.4515 213.61 74.8721 211.279 70.3219 208.891C70.4017 208.589 70.4816 208.286 70.5615 207.983C71.364 208.102 72.299 207.997 72.9456 208.381C74.6656 209.405 75.4214 208.753 76.3427 207.199C78.1211 204.202 75.1039 203.919 74.4416 203.241C75.3941 201.156 76.0135 199.372 77.0108 197.837C77.3985 197.239 78.6237 197.112 79.5002 196.932C80.3183 196.764 81.1773 196.809 82.4492 196.735C81.8551 195.904 81.6935 195.656 81.5084 195.425C80.9474 194.732 80.3767 194.046 79.8099 193.356C80.7936 193.268 81.8279 192.948 82.7531 193.143C84.3952 193.489 85.971 194.148 87.5741 194.675C87.7377 194.335 87.9013 193.995 88.0669 193.655C85.969 192.403 83.8712 191.15 81.8941 189.972C82.8817 188.755 84.7945 186.952 84.5588 186.598C82.533 183.575 87.4221 183.99 86.7229 181.846C89.7829 181.715 89.3018 179.627 88.7798 177.708C90.7179 177.819 92.4106 177.915 94.1052 178.011C93.1021 177.007 92.099 176.002 91.0861 174.988C92.9346 171.946 94.9253 168.67 96.9316 165.369C98.2853 165.469 99.9021 168.31 100.784 165.301C99.7833 164.607 98.8833 163.986 97.8412 163.265C99.4638 161.915 101.971 165.037 102.247 161.571C101.347 161.397 100.422 161.22 98.5191 160.852C101.423 158.58 103.554 156.911 106.523 154.588C108.913 154.49 112.072 155.426 114.505 158.113C114.955 158.611 115.187 159.813 114.906 160.391C113.089 164.139 111.229 167.876 109.149 171.483C102.202 183.527 95.159 195.513 88.1526 207.52C88.3649 207.766 88.5772 208.012 88.7895 208.256C89.4986 207.676 90.4413 207.236 90.8796 206.496C99.3664 192.153 107.882 177.827 116.182 163.377C118.792 158.83 117.437 156.14 112.569 153.863C108.925 152.16 105.031 152.033 101.193 151.47ZM22.9597 314.815C19.2996 321.349 15.9824 327.31 12.6165 333.246C12.0575 334.23 11.4166 335.229 10.6024 335.997C8.87858 337.628 6.04835 337.136 4.27579 335.084C2.45065 332.97 3.71677 329.862 4.87575 329.666C7.52094 329.221 6.51388 327.466 7.04954 326.276C7.34367 325.622 7.69234 324.989 8.0488 324.364C10.1505 320.683 12.2503 317 14.3793 313.332C14.8196 312.572 15.3747 311.879 15.8773 311.154C16.0779 311.3 16.2766 311.445 16.4772 311.591C15.1001 314.661 13.7249 317.728 12.3477 320.798C12.4549 320.827 12.562 320.854 12.6711 320.884C14.7416 318.311 16.8103 315.737 18.9724 313.051C19.7477 313.492 20.4138 313.871 21.3293 314.391C20.2151 315.141 19.3405 315.73 18.4659 316.318C18.6841 316.544 18.9003 316.771 19.1185 316.998C20.2074 316.376 21.2962 315.759 22.9597 314.815ZM38.0634 270.953C39.1444 267.952 39.721 265.105 41.141 262.776C42.4285 260.664 44.4348 258.011 46.4918 257.636C48.4981 257.271 50.9699 259.49 53.6307 260.762C50.4966 265.752 47.6371 270.305 44.6354 275.084C42.3078 273.62 40.2352 272.317 38.0634 270.953ZM121.798 117.567C123.876 113.131 127.219 112.041 131.354 114.284C136.966 117.328 137.7 119.517 134.547 124.364C130.384 122.145 126.204 119.915 121.798 117.567ZM25.4529 306.879C25.1257 306.83 24.7985 306.779 24.4712 306.73C24.4712 305.841 24.1498 304.778 24.5199 304.089C28.5559 296.574 32.6542 289.093 36.8849 281.688C37.2979 280.965 38.7159 280.82 39.6684 280.408C39.8827 280.742 40.0989 281.076 40.3131 281.41C35.3597 289.9 30.4063 298.389 25.4529 306.879ZM138.234 102.122C137.866 101.926 137.496 101.729 137.128 101.533C146.224 84.8945 155.319 68.2575 164.415 51.6186C164.721 51.7886 165.029 51.9586 165.335 52.1285C156.3 68.7929 147.266 85.4572 138.234 102.122ZM23.5168 266.966C34.3994 272.643 45.2821 278.323 56.1668 284.001C43.8621 281.066 33.2035 274.931 23.5168 266.966ZM22.5039 305.247C22.165 305.298 21.826 305.347 21.4871 305.398C21.4871 304.468 21.1559 303.364 21.5377 302.635C25.488 295.103 29.5376 287.622 33.6106 280.154C34.0177 279.41 34.7637 278.851 35.3539 278.206C35.7357 278.464 36.1175 278.72 36.4992 278.978C31.8361 287.733 27.171 296.49 22.5039 305.247ZM7.55016 302.076C7.77027 301.654 7.99038 301.232 8.21048 300.81C17.1804 305.876 26.1503 310.945 35.1182 316.011C34.8806 316.433 34.6429 316.855 34.4053 317.277C25.0965 312.854 15.926 308.178 7.55016 302.076ZM19.1808 304.122C17.9985 301.365 29.7499 279.482 33.5697 277.481C28.6046 286.672 24.0115 295.179 19.1808 304.122ZM135.264 113.669C133.029 112.158 131.364 111.035 129.13 109.525C131.126 107.88 132.558 106.356 134.301 105.414C135.141 104.961 136.835 105.252 137.646 105.867C138.238 106.316 138.407 107.989 138.08 108.856C137.478 110.443 136.372 111.84 135.264 113.669ZM165.399 44.5144C166.221 43.7934 167.358 42.0037 168.765 41.7536C170.73 41.4039 172.503 43.051 172.177 45.1631C171.959 46.5816 170.59 48.7269 169.482 48.8988C167.629 49.188 165.701 48.0157 165.399 44.5144ZM80.6046 175.821C81.824 176.481 83.6822 177.485 85.5386 178.491C85.4042 178.822 85.2697 179.152 85.1353 179.482C84.3679 179.558 83.6024 179.634 82.8622 179.709C82.8213 180.611 82.7823 181.473 82.7258 182.737C80.6962 181.637 79.0269 180.731 77.116 179.695C78.2068 178.484 79.097 177.493 80.6046 175.821ZM91.912 167.093C90.005 166.262 88.1175 165.442 86.232 164.619C86.2632 164.316 86.2943 164.012 86.3274 163.709C87.3014 163.39 88.2753 163.074 89.3817 162.712C89.1655 162.536 88.8285 162.361 88.6415 162.085C88.398 161.726 88.2714 161.284 87.6832 159.932C90.3868 160.932 92.2528 161.624 93.7507 162.177C93.0612 164.019 92.5898 165.278 91.912 167.093ZM73.9994 198.7C70.0044 202.407 69.9985 202.407 65.4464 199.329C67.3397 196.631 69.4921 196.436 73.9994 198.7ZM47.2261 230.251C48.2448 228.674 49.061 227.406 50.1479 225.726C51.9088 226.921 53.5313 228.027 55.1558 229.131C55.0117 229.403 54.8656 229.674 54.7215 229.944C53.6482 229.891 52.5749 229.839 51.377 229.78C52.0412 230.712 52.5905 231.482 53.1398 232.252C52.9762 232.468 52.8106 232.685 52.647 232.902C50.9738 232.083 49.3025 231.265 47.2261 230.251ZM62.3298 205.027C64.8854 200.638 67.2754 200.509 70.0258 204.579C68.8785 204.747 67.8812 204.892 66.8255 205.046C67.5676 205.859 68.2299 206.582 68.8922 207.307C68.6954 207.576 68.4967 207.848 68.3 208.118C66.3171 207.09 64.3342 206.064 62.3298 205.027ZM46.4781 238.881C45.512 237.967 44.5283 237.038 43.5447 236.108C43.7745 235.864 44.0043 235.618 44.2361 235.374C45.8782 235.905 47.5202 236.439 49.3532 237.033C48.5059 238.514 47.6897 239.942 46.7158 241.648C45.1809 240.989 43.5388 240.282 41.8968 239.577C41.9786 239.172 42.0604 238.766 42.1422 238.361C43.5972 238.537 45.0542 238.711 46.4781 238.881ZM93.554 152.146C95.7395 153.269 97.6503 154.252 99.4287 155.166C98.6613 156.177 98.0555 156.978 97.5393 157.658C95.4162 156.847 93.63 156.165 91.6139 155.393C92.171 154.463 92.7904 153.428 93.554 152.146ZM62.3649 217.121C60.5008 216.181 58.6776 215.261 56.3908 214.108C59.3165 211.097 61.726 214.745 64.229 213.969C63.6758 214.909 63.1206 215.845 62.3649 217.121ZM61.1611 219.024C61.091 219.428 61.0208 219.831 60.9507 220.235C58.81 219.723 56.6693 219.21 54.4273 218.672C55.8279 215.189 57.8575 215.482 61.1611 219.024ZM50.4946 224.27C52.6762 220.259 54.1488 224.366 55.8727 224.415C56.1609 224.422 56.4044 226.07 56.6674 226.961C56.3577 227.089 56.048 227.216 55.7383 227.345C54.0611 226.359 52.3821 225.376 50.4946 224.27ZM87.7766 174.267C84.4945 178.392 82.6752 173.857 79.8528 174.664C82.8057 170.203 84.8178 174.16 87.7766 174.267ZM71.4867 189.916C71.4185 189.558 71.3503 189.199 71.2822 188.841C72.2016 188.528 73.3664 187.702 73.9955 188.003C75.6181 188.777 78.049 189.064 77.9107 192.321C75.5558 191.44 73.5203 190.678 71.4867 189.916ZM44.9413 233.76C46.8502 231.228 48.6597 232.269 50.3251 233.215C50.8647 233.522 51.0829 234.395 51.4471 235.008C50.6738 235.282 49.7992 235.927 49.1486 235.749C47.8085 235.38 46.5892 234.573 44.9413 233.76ZM97.0757 158.4C95.2973 161.599 93.5871 161.442 89.633 157.855C91.9158 158.021 94.2007 158.189 97.0757 158.4ZM81.3701 185.742C79.284 184.974 77.1998 184.208 74.985 183.394C77.2426 180.758 79.7748 181.479 81.3701 185.742ZM73.4969 186.326C73.6741 185.791 73.8514 185.254 74.0267 184.718C75.9824 185.449 77.9555 186.143 79.8742 186.961C80.1294 187.071 80.3241 187.929 80.1644 188.247C80.0027 188.567 79.2587 188.911 78.9528 188.788C77.1063 188.038 75.3103 187.161 73.4969 186.326ZM83.7407 168.449C84.7594 167.378 85.5113 166.227 85.8093 166.335C87.6929 167.017 89.4771 167.978 91.2945 168.847C91.1114 169.332 90.9283 169.816 90.7452 170.301C88.6473 169.746 86.5495 169.191 83.7407 168.449ZM57.4348 281.283C53.4067 279.113 50.142 277.352 46.6807 275.486C48.5292 274.494 53.5703 277.247 57.4348 281.283ZM59.8774 208.975C61.7708 206.811 64.0108 207.193 67.4371 210.058C64.4997 211.5 62.5752 209.048 59.8774 208.975ZM52.7931 220.685C53.021 220.339 53.2489 219.993 53.4787 219.645C55.4227 220.286 57.3647 220.927 59.8229 221.738C58.8918 222.588 57.9997 223.743 57.7134 223.608C55.9954 222.799 54.4176 221.693 52.7931 220.685ZM82.7512 170.571C82.9245 170.156 83.0998 169.742 83.2732 169.328C85.1801 170.121 87.0949 170.893 88.9746 171.749C89.1168 171.813 89.1421 172.632 88.9493 172.823C88.6512 173.12 87.989 173.439 87.7026 173.298C86.0158 172.462 84.3932 171.495 82.7512 170.571ZM40.1476 242.933C40.2489 242.408 40.3502 241.882 40.4515 241.358C42.3448 241.915 44.2381 242.472 46.1295 243.029C46.0009 243.519 45.8723 244.01 45.7438 244.502C43.8777 243.979 42.0136 243.457 40.1476 242.933ZM24.3368 263.72C30.0109 264.467 33.1918 266.149 33.3924 268.364C30.5212 266.891 27.6813 265.434 24.3368 263.72Z" fill="#041C33"/>
<path d="M110.553 409.954C109.969 418.205 112.762 425.457 118.806 431.272C125.686 437.89 134.436 441.956 143.581 441.401C168.498 439.889 177.783 421.354 177.283 407.412C176.63 389.264 160.085 374.028 142.079 374.798C123.701 375.584 109.708 391.087 110.553 409.954ZM170.644 405.948C170.779 420.751 158.476 433.294 143.384 433.126C130.824 432.988 115.592 423.838 115.606 406.452C115.619 389.575 126.876 377.875 143.524 377.811C158.457 377.75 170.502 390.247 170.644 405.948ZM150.356 435.502C167.429 427.648 169.655 424.787 173.907 404.186C176.406 413.992 171.457 426.061 162.158 432.831C151.142 440.852 137.404 441.08 125.337 433.443C116.73 427.995 110.333 416.937 111.554 410.378C112.787 412.963 114.02 416.095 115.717 418.949C117.503 421.954 119.731 424.695 121.944 427.804C120.236 426.37 118.715 425.094 116.589 423.308C126.537 437.843 147.578 442.005 159.873 432.142C157.062 433.134 153.708 434.318 150.356 435.502Z" fill="#041C33"/>
<path d="M154.469 364.005C170.411 369.181 181.093 379.39 185.672 395.337C189.27 407.863 187.184 419.815 180.3 430.762C167.216 451.565 142.05 458.855 122.53 447.044C126.783 448.347 131.035 449.65 135.289 450.955C120.232 445.49 115.191 442.749 104.219 425.915C106.192 433.007 110.913 437.333 115.586 441.694C115.403 441.883 115.222 442.071 115.039 442.261C112.731 440.031 110.109 438.046 108.165 435.531C91.4756 413.951 95.5447 379.228 125.859 366.32C133.729 362.97 141.898 362.186 150.328 363.323C151.195 363.44 152.163 362.798 153.083 362.507C152.245 361.938 151.472 361.016 150.562 360.852C124.346 356.127 96.9316 375.589 95.5836 404.934C95.0694 416.112 97.9464 426.36 104.306 435.641C105.062 436.743 104.787 438.556 105.21 440.041C105.249 439.459 105.286 438.876 105.313 438.454C110.857 442.935 116.34 447.364 122.084 452.006C122.164 451.844 121.88 452.421 121.798 452.589C122.912 452.512 124.233 452.008 125.152 452.417C150.78 463.817 178.851 446.416 187.295 422.773C195.965 398.502 183.459 371.533 159.162 363.001C157.785 362.52 155.917 360.928 154.469 364.005Z" fill="#041C33"/>
<path d="M117.688 271.844C116.683 271.621 115.676 271.196 114.671 271.203C100.477 271.33 90.2232 278.126 83.0511 290.107C79.3814 296.238 77.2368 302.916 77.5621 310.003C77.7607 314.348 79.1944 318.678 80.402 322.92C81.1734 325.63 82.5427 328.168 83.3394 331.583C82.3499 331.052 80.891 330.776 80.439 329.948C71.5276 313.614 74.2449 291.908 89.7479 278.638C92.1749 276.559 94.7773 274.685 97.0114 272.053C95.3869 272.704 93.6261 273.136 92.1574 274.042C81.6136 280.545 75.6084 290.279 73.1716 302.207C72.3496 306.228 72.7489 310.493 72.4762 314.639C72.4256 315.423 71.8354 316.171 71.5627 316.785C72.0223 317.619 72.7138 318.613 73.1443 319.71C74.3111 322.683 75.248 325.753 76.5083 328.685C77.4257 330.817 77.8406 333.238 79.956 334.805C80.5131 335.217 80.3533 336.608 80.5248 337.564C81.2513 337.943 82.6557 338.279 83.4758 339.162C91.7074 348.03 101.815 352.601 113.876 352.95C135.521 353.576 155.704 334.832 156.612 313.152C156.643 312.396 155.886 311.609 155.494 310.835C155.036 311.611 154.259 312.349 154.166 313.166C152.391 328.898 144.161 340.065 130.111 346.85C124.149 349.73 117.612 350.59 110.993 349.898C110.121 349.807 109.359 348.636 108.584 347.997C108.467 348.14 107.949 348.771 107.432 349.402C107.216 348.896 106.675 348.177 106.84 347.927C107.386 347.1 108.118 345.938 108.907 345.829C110.372 345.625 111.922 346.112 113.444 346.243C121.815 346.97 129.2 344.32 136.068 339.928C135.978 339.639 135.889 339.35 135.799 339.06C133.304 339.979 130.811 340.909 128.31 341.815C107.943 349.209 85.5249 336.98 81.1344 316.087C76.5297 294.177 92.9248 273.525 115.247 273.112C115.95 273.099 116.652 273.044 117.355 273.009C117.468 272.62 117.579 272.231 117.688 271.844ZM106.223 349.056C97.9425 347.519 92.0502 342.732 86.045 337.474C87.4767 336.704 88.4954 336.157 89.5317 335.6C89.781 335.989 89.894 336.311 90.118 336.493C93.1099 338.926 95.9128 341.688 99.1969 343.627C101.213 344.816 103.975 344.732 106.223 345.186C106.223 346.727 106.223 347.651 106.223 349.056Z" fill="#041C33"/>
<path d="M149.415 241.427C148.622 241.882 147.87 242.316 147.116 242.748C147.194 242.972 147.272 243.199 147.35 243.424C148.326 243.125 149.3 242.826 150.295 242.519C170.985 264.246 203.978 260.436 220.529 242.159C238.925 221.847 238.35 192.286 219.07 173.64C200.275 155.463 170.309 155.512 151.575 173.607C132.326 192.202 131.452 222.471 149.415 241.427ZM230.981 208.622C230.876 234.19 210.283 254.93 185.211 254.598C160.549 254.271 139.364 234.024 139.473 207.449C139.574 183.161 160.681 162.601 185.668 162.728C210.638 162.855 231.085 183.562 230.981 208.622Z" fill="#041C33"/>
<path d="M218.755 261.002C208.865 261.002 200.749 269.074 200.612 279.046C200.478 288.921 208.657 297.264 218.523 297.316C228.693 297.371 237.016 289.229 236.998 279.245C236.983 269.072 228.911 261.002 218.755 261.002ZM213.805 275.349C215.412 275.349 216.748 275.344 218.085 275.351C219.327 275.359 220.623 275.168 221.791 275.471C222.678 275.699 224.072 276.565 224.072 277.151C224.078 279.187 223.86 282.87 223.217 282.983C220.165 283.518 216.943 283.077 213.78 282.985C213.79 280.576 213.797 278.169 213.805 275.349ZM224.195 273.468C220.325 273.468 217.05 273.468 213.11 273.468C214.072 270.455 214.779 267.681 215.885 265.078C216.273 264.166 217.74 263.021 218.538 263.142C219.725 263.322 221.279 264.3 221.747 265.355C222.82 267.776 223.328 270.449 224.195 273.468ZM224.123 285.212C223.04 288.28 222.391 291.017 221.127 293.43C219.929 295.716 217.198 295.781 216.178 293.604C215.003 291.097 214.428 288.309 213.458 285.212C217.335 285.212 220.311 285.212 224.123 285.212ZM234.246 276.541C231.86 275.828 229.842 275.347 227.929 274.595C227.088 274.265 226.034 273.499 225.821 272.723C225.048 269.922 224.592 267.032 223.934 263.771C229.259 266.704 233.217 270.146 234.246 276.541ZM203.776 276.319C203.723 271.639 207.814 266.651 213.361 264.425C212.403 273.638 212.334 273.726 203.776 276.319ZM213.46 293.778C208.505 292.743 204.116 287.51 203.939 282.307C206.249 283.051 208.509 283.698 210.694 284.542C211.228 284.749 211.731 285.548 211.879 286.164C212.481 288.667 212.938 291.201 213.46 293.778ZM233.494 282.913C233.149 287.856 228.829 292.664 223.989 293.446C224.532 287.627 225.975 282.585 233.494 282.913ZM226.254 275.998C229.287 277.014 231.829 277.866 234.371 278.718C234.398 279.159 234.425 279.601 234.452 280.043C231.848 280.961 229.242 281.877 226.256 282.93C226.254 280.25 226.254 278.413 226.254 275.998ZM203.645 280.052C203.552 279.638 203.456 279.222 203.363 278.808C205.817 277.917 208.271 277.024 211.144 275.98C211.144 278.503 211.144 280.457 211.144 282.962C208.339 281.873 205.992 280.963 203.645 280.052Z" fill="#041C33"/>
<path d="M193.127 354.488C201.043 353.755 206.627 349.705 208.78 342.263C210.34 336.866 211.703 331.397 212.829 325.893C214.649 316.998 205.864 308.602 195.935 309.551C188.504 310.263 183.177 314.534 181.069 321.775C179.587 326.87 178.294 332.025 177.08 337.193C175.627 343.386 177.624 348.171 183.267 351.045C186.34 352.61 189.827 353.366 193.127 354.488ZM185.347 317.984C185.534 318.059 185.721 318.131 185.906 318.205C184.348 324.235 182.706 330.243 181.252 336.296C179.614 343.117 181.486 346.217 187.943 349.003C193.937 351.588 203.076 348.986 204.788 340.616C205.833 335.512 207.253 330.487 208.4 325.403C208.643 324.328 208.435 323.15 208.435 322.019C208.18 321.986 207.925 321.952 207.671 321.917C207.338 322.838 206.937 323.736 206.686 324.678C205.398 329.51 204.072 334.332 202.913 339.195C202.065 342.749 200.447 345.545 196.917 347.018C192.408 348.9 188.571 347.329 184.969 344.756C181.813 342.501 182.928 339.34 183.637 336.448C185.201 330.069 186.868 323.713 188.658 317.394C189.032 316.075 189.86 314.637 190.914 313.809C194.502 310.991 200.472 311.369 205.316 314.444C209.582 317.15 211.398 320.983 210.346 325.913C209.216 331.208 207.782 336.438 206.512 341.704C205.412 346.272 202.443 349.017 198.201 350.713C193.175 352.724 188.606 351.526 184.196 348.99C179.749 346.432 178.35 343.933 179.406 338.89C180.686 332.781 182.452 326.771 184.071 320.735C184.332 319.776 184.914 318.901 185.347 317.984Z" fill="#041C33"/>
<path d="M178.547 112.426C176.624 111.002 174.741 109.523 172.773 108.167C168.691 105.355 164.141 105.295 160.218 107.911C156.595 110.328 154.818 114.781 155.792 119.45C156.996 125.212 160.079 130.083 163.827 134.413C167.941 139.166 172.509 143.524 176.977 148.156C185.415 140.835 193.055 133.594 197.531 123.868C198.922 120.843 199.597 116.85 198.939 113.641C197.332 105.81 187.595 103.282 181.543 108.774C180.101 110.082 179.001 111.768 177.744 113.278C178.011 112.995 178.278 112.709 178.547 112.426ZM177.933 117.93C179.042 116.197 179.907 114.808 180.806 113.444C183.761 108.968 188.882 107.008 192.496 108.956C196.596 111.166 197.944 116.013 195.799 121.25C195.092 122.977 194.362 124.79 193.22 126.224C188.257 132.463 183.136 138.578 177.592 145.321C172.791 140.003 168.358 135.503 164.433 130.591C162.202 127.799 160.49 124.47 159.111 121.146C157.156 116.435 158.749 111.58 162.382 109.546C166.122 107.454 170.687 108.655 173.954 112.659C175.243 114.237 176.416 115.91 177.933 117.93Z" fill="#041C33"/>
<path d="M108.132 284.388C98.2892 284.413 87.7163 296.551 86.9917 308.258C86.1833 321.292 94.2338 333.16 107.405 336.491C125.255 341.004 137.675 330.688 141.898 318.553C145.153 309.196 142.136 297.018 136.861 295.277C141.67 304.532 142.615 313.543 137.346 322.531C134.235 327.836 129.895 331.657 124.13 333.84C113.025 338.044 99.754 334.4 93.5423 323.451C83.6472 306.003 91.9373 293.852 108.132 284.388Z" fill="#041C33"/>
<path d="M105.966 45.0478C104.022 45.2666 102.017 45.4913 100.011 45.718C99.9644 46.1224 99.9176 46.5269 99.8689 46.9333C101.04 47.1365 102.206 47.4901 103.379 47.5018C104.914 47.5175 105.864 47.5644 105.818 49.653C105.73 53.4982 107.072 54.86 110.335 54.9655C114.028 55.0867 115.44 53.719 115.725 49.7566C115.775 49.0512 115.838 48.3459 115.915 47.3768C122.458 47.3768 128.849 47.3768 135.637 47.3768C135.637 50.0262 135.423 52.4978 135.688 54.9186C136.086 58.5606 132.57 57.6853 130.896 59.0373C134.184 61.0224 137.299 60.0455 137.632 56.6947C138.216 50.7999 138.378 44.8466 138.294 38.9225C138.283 38.0316 135.99 36.488 134.755 36.49C133.544 36.4939 131.757 37.844 131.267 39.0358C130.598 40.6536 130.922 42.6837 130.807 44.8075C125.596 44.8075 120.594 44.8075 115.526 44.8075C115.526 42.5977 115.592 40.638 115.51 38.6841C115.38 35.5189 113.798 34.1493 110.463 34.1825C107.316 34.2137 105.983 35.5736 105.968 38.7857C105.958 40.851 105.966 42.9123 105.966 45.0478ZM107.953 44.9403C107.921 44.9403 107.892 44.9403 107.861 44.9384C107.861 43.0666 107.847 41.1948 107.865 39.325C107.88 37.549 108.455 36.2282 110.543 36.3044C112.474 36.3747 113.689 37.1934 113.687 39.3309C113.683 42.7618 113.662 46.1947 113.765 49.6237C113.835 51.984 112.624 52.6444 110.51 52.7499C108.056 52.873 107.832 51.4935 107.935 49.6022C108.021 48.0528 107.953 46.4956 107.953 44.9403ZM133.162 44.8895C132.404 39.2742 132.735 38.6294 136.019 39.0886C136.019 40.9975 136.019 42.9084 136.019 44.8895C134.952 44.8895 134.149 44.8895 133.162 44.8895Z" fill="#041C33"/>
<path d="M100.804 295.081C99.8008 295.411 98.4723 295.439 97.8471 296.119C89.557 305.128 90.5095 317.357 99.5261 325.54C104.731 330.262 110.886 332.218 118.037 330.839C122.898 329.901 123.448 329.614 123.9 324.676C123.995 323.645 124.163 322.619 124.359 321.106C127.819 320.905 131.339 320.7 135.355 320.466C139.693 315.03 140.042 306.414 135.651 299.302C134.971 299.575 134.258 299.864 133.586 300.134C133.586 300.519 133.503 300.781 133.598 300.9C137.04 305.228 137.317 313.258 134.077 317.584C131.383 321.181 127.569 319.672 124.098 319.618C123.53 319.608 122.967 319.309 122.022 319.031C121.687 321.169 121.184 323.084 121.142 325.008C121.091 327.199 120.099 328.359 118.083 328.644C109.986 329.787 103.285 327.003 98.4295 320.585C93.7488 314.397 93.8384 307.475 97.0757 300.613C98.0204 298.61 99.53 296.875 100.783 295.017L100.804 295.081Z" fill="#041C33"/>
<path d="M121.27 242.376C123.995 240.995 127.7 240.112 126.629 235.931C125.096 229.948 119.918 232.162 115.633 231.675C115.528 230.386 115.502 229.082 115.275 227.814C115.193 227.355 114.632 226.982 114.289 226.57C113.927 226.974 113.299 227.351 113.253 227.791C113.112 229.088 113.202 230.409 113.202 231.906C110.695 231.906 108.638 231.82 106.593 231.925C103.422 232.089 101.603 233.936 101.651 236.767C101.706 239.803 103.632 241.659 106.833 241.706C108.952 241.737 111.071 241.712 113.19 241.712C113.28 242.036 113.372 242.361 113.461 242.687C112.616 243.211 111.813 243.826 110.919 244.242C107.415 245.878 106.893 249.77 109.85 252.284C111.99 254.103 114.686 254.584 116.804 253.24C118.695 252.04 120.177 249.778 121.142 247.662C121.804 246.21 121.27 244.211 121.27 242.376ZM118.695 235.106C118.465 235.067 118.233 235.028 118.004 234.991C117.824 235.985 117.762 237.025 117.423 237.961C117.183 238.619 116.591 239.619 116.112 239.645C112.836 239.819 109.523 240.008 106.279 239.659C105.335 239.557 104.111 237.8 103.905 236.644C103.784 235.964 105.383 234.27 106.262 234.233C111.626 234 117.01 234.012 122.376 234.219C123.161 234.25 124.681 236.173 124.502 236.527C123.814 237.881 122.571 238.953 121.537 240.129C120.83 239.444 119.93 238.867 119.468 238.043C118.991 237.187 118.935 236.095 118.695 235.106ZM116.143 241.538C119.176 242.857 120.164 245.821 118.824 248.611C117.534 251.296 114.254 252.779 112.129 251.327C111.18 250.68 110.578 249.238 110.29 248.044C110.171 247.552 111.283 246.202 111.846 246.194C114.84 246.161 115.633 244.145 116.143 241.538Z" fill="#041C33"/>
<path d="M165.933 289.941C166.007 295.351 170.656 299.991 175.927 299.917C181.451 299.841 185.84 295.353 185.76 289.865C185.676 284.232 181.336 279.896 175.849 279.964C170.255 280.033 165.857 284.458 165.933 289.941ZM175.703 297.842C171.957 297.832 167.962 293.762 167.954 289.952C167.949 285.662 171.796 282.069 176.321 282.141C180.376 282.206 183.479 285.425 183.489 289.581C183.5 294.411 180.255 297.854 175.703 297.842Z" fill="#041C33"/>
<path d="M112.302 84.0094C112.302 81.8543 112.302 79.879 112.302 77.6731C111.683 77.6731 110.66 77.6731 109.39 77.6731C109.739 79.2167 110.008 80.4065 110.313 81.7606C107.933 82.5343 106.289 81.4069 105.099 79.6465C103.426 77.1729 102.892 74.459 104.575 71.7334C106.478 68.6522 111.054 67.3959 114.217 68.9941C117.462 70.6334 118.849 74.8322 117.219 78.4273C116.519 79.9669 115.561 81.3893 114.571 83.1263C118.954 81.9559 121.105 77.7884 120.066 73.2066C118.991 68.4549 113.946 65.2935 109.076 66.3193C103.745 67.4428 100.697 71.9386 101.723 77.169C102.723 82.2568 106.805 84.9824 112.302 84.0094Z" fill="#041C33"/>
<path d="M101.005 301.636C100.886 301.636 100.434 301.636 99.98 301.636C99.7404 301.404 99.5027 301.171 99.2632 300.939C100.385 300.349 101.505 299.759 102.627 299.169C102.337 298.833 102.047 298.499 101.756 298.163C101.075 298.588 99.9644 298.882 99.7832 299.466C98.8522 302.479 96.0005 304.983 97.2919 308.651C97.4069 308.979 96.4193 309.7 96.2966 309.839C96.4446 310.833 96.4699 311.689 96.7173 312.473C97.0095 313.397 97.5568 314.237 97.8841 315.153C100.781 323.256 108.574 328.058 116.989 326.765C118.191 326.579 119.295 325.757 120.298 324.791C112.084 325.811 105.282 323.758 101.162 316.454C98.5347 311.795 99.2184 306.642 101.005 301.636Z" fill="#041C33"/>
<path d="M100.781 295.017C102.717 294.909 104.653 294.782 106.589 294.7C111.093 294.509 115.6 294.147 120.101 294.22C123.736 294.278 125.953 296.353 126.716 300.052C127.03 301.576 127.877 302.988 128.793 304.301C130.372 298.544 127.663 293.557 122.46 292.108C114.848 289.986 107.645 291.256 100.818 295.099C100.804 295.081 100.781 295.017 100.781 295.017Z" fill="#041C33"/>
<path d="M106.25 17.524C106.168 20.6521 108.979 22.4907 112.057 21.5352C113.138 21.1992 114.503 21.2383 115.588 21.5821C117.893 22.3129 120.053 21.8987 121.025 19.9155C121.699 18.54 121.627 16.1602 120.845 14.859C119.729 12.9989 117.606 12.5397 115.356 13.7765C114.583 14.2025 113.255 14.222 112.439 13.8527C109.54 12.5358 106.334 14.3471 106.25 17.524ZM114.18 18.0027C115.968 16.5608 116.956 15.7636 117.945 14.9664C118.617 15.83 119.833 16.7073 119.811 17.5553C119.79 18.3993 118.642 19.6908 117.78 19.894C117.024 20.0718 115.978 19.0109 114.18 18.0027ZM107.259 17.3833C108.636 16.3068 109.801 14.9977 110.163 15.1911C111.128 15.7089 112.125 16.7894 112.355 17.8151C112.487 18.4071 110.902 20.0835 110.533 19.9585C109.489 19.6049 108.671 18.5732 107.259 17.3833Z" fill="#041C33"/>
<path d="M122.312 270.207C123.138 270.758 123.892 271.532 124.8 271.823C133.386 274.58 140.381 279.579 145.994 286.617C146.413 287.143 147.249 287.334 147.891 287.68C147.845 286.967 148.034 286.117 147.714 285.56C143.371 277.993 131.331 270.266 122.312 270.207Z" fill="#041C33"/>
<path d="M86.6216 95.498C86.6917 99.1302 89.6836 102.069 93.1839 101.942C96.6667 101.815 99.3761 98.8567 99.2203 95.3515C99.0586 91.7056 96.3881 89.1129 92.808 89.1285C89.2648 89.1441 86.5514 91.9381 86.6216 95.498ZM97.1458 95.2675C97.1692 97.8173 95.0811 100.076 92.7476 100.023C90.6556 99.9762 88.6727 97.6942 88.6356 95.2909C88.6025 93.0323 90.7004 90.9729 93.0553 90.9553C95.1766 90.9397 97.1264 92.9932 97.1458 95.2675Z" fill="#041C33"/>
<path d="M167.988 93.0127C168.492 88.7631 168.876 84.9199 172.918 83.1361C177.357 81.1764 179.277 85.0606 182.291 87.9484C182.708 84.2146 180.836 82.7023 178.732 81.5027C175.257 79.5215 171.092 80.5746 168.475 83.9215C166.149 86.8913 165.771 90.4005 167.988 93.0127Z" fill="#041C33"/>
<path d="M110.709 385.527C106.71 385.206 101.012 398.621 103.55 403.783C104.419 400.735 105.064 397.598 106.217 394.661C107.421 391.597 109.112 388.725 110.709 385.527Z" fill="#041C33"/>
<path d="M191.894 369.167C192.174 370.537 192.408 371.684 192.657 372.903C195.608 373.642 198.585 375.74 202.245 374.058C201.997 373.938 192.042 369.238 191.894 369.167Z" fill="#041C33"/>
<path d="M163.78 348.253C165.555 346.895 165.555 346.895 162.553 342.784C162.697 340.932 166.404 340.166 164.109 337.296C162.845 339.139 160.814 340.797 160.792 342.482C160.767 344.308 162.611 346.163 163.78 348.253Z" fill="#041C33"/>
<path d="M106.84 269.334C110.629 269.334 114.229 269.334 118.411 269.334C115.812 267.024 109.696 267.268 106.84 269.334Z" fill="#041C33"/>
<path d="M211.793 138.756C211.376 139.413 211.29 139.602 211.156 139.749C207.987 143.258 208.232 146.501 212.28 149.246C213.454 148.512 213.455 148.512 210.517 144.35C210.19 142.431 214.826 141.734 211.793 138.756Z" fill="#041C33"/>
<path d="M90.5036 2.01048C92.1145 3.16325 93.0359 4.31992 93.7176 4.19097C94.6506 4.01512 95.4025 2.86431 96.2304 2.13162C95.5369 1.37353 94.8707 0.0370969 94.1442 0.00192774C93.2248 -0.0410568 92.2567 0.974942 90.5036 2.01048Z" fill="#041C33"/>
<path d="M91.9295 117.993C93.1255 116.586 94.4033 115.707 94.2961 115.056C94.1481 114.146 93.0787 112.981 92.1885 112.745C91.61 112.59 90.042 113.866 90.005 114.558C89.9582 115.464 90.9848 116.426 91.9295 117.993Z" fill="#041C33"/>
<path d="M161.764 272.622C163.18 273.538 164.063 274.55 164.713 274.417C165.504 274.257 166.443 273.214 166.642 272.389C166.751 271.934 165.438 270.592 164.836 270.635C163.969 270.695 163.163 271.653 161.764 272.622Z" fill="#041C33"/>
<path d="M115.75 202.897C117.306 203.919 118.148 204.896 118.989 204.894C119.688 204.892 120.386 203.741 121.083 203.1C120.403 202.366 119.79 201.133 119.028 201.033C118.249 200.929 117.326 201.94 115.75 202.897Z" fill="#041C33"/>
<path d="M89.9212 19.0715C91.1951 20.0054 92.0853 21.1249 92.6872 20.9862C93.5345 20.7908 94.1676 19.6635 94.8922 18.9327C94.1676 18.2293 93.4566 16.9906 92.7125 16.9691C91.9353 16.9496 91.127 18.1004 89.9212 19.0715Z" fill="#041C33"/>
<path d="M156.09 305.851C155.424 303.205 154.923 301.212 154.423 299.22C152.469 302.146 153.158 304.661 156.09 305.851Z" fill="#041C33"/>
<path d="M124.079 189.925C125.23 190.875 126.072 192.037 126.621 191.912C127.437 191.727 128.045 190.629 128.742 189.92C128.088 189.286 127.466 188.198 126.769 188.147C126.064 188.097 125.285 189.072 124.079 189.925Z" fill="#041C33"/>
<path d="M87.4065 255.991C88.7623 256.751 89.6855 257.685 90.3342 257.521C91.0373 257.343 91.7873 256.194 91.9197 255.371C91.9879 254.945 90.6692 253.795 90.1452 253.89C89.3271 254.039 88.6532 254.973 87.4065 255.991Z" fill="#041C33"/>
<path d="M142.965 260.051C142.013 261.366 141.097 262.079 141.101 262.788C141.105 263.437 142.192 264.666 142.642 264.595C143.441 264.472 144.549 263.664 144.716 262.948C144.863 262.337 143.871 261.458 142.965 260.051Z" fill="#041C33"/>
<path d="M91.1309 71.4247C92.0074 70.1547 92.8898 69.4162 92.9268 68.6346C92.9521 68.0954 91.6529 66.9328 91.2243 67.054C90.4569 67.2689 89.555 68.1579 89.3758 68.9238C89.2531 69.4494 90.2543 70.2407 91.1309 71.4247Z" fill="#041C33"/>
<path d="M149.179 153.783C150.087 152.679 151.01 152.048 151.028 151.392C151.045 150.757 150.167 149.612 149.615 149.571C148.947 149.52 147.638 150.383 147.63 150.866C147.623 151.667 148.429 152.478 149.179 153.783Z" fill="#041C33"/>
<path d="M133.596 167.226C134.835 168.107 135.488 168.914 136.177 168.947C136.691 168.972 137.254 167.995 137.794 167.464C137.213 166.901 136.709 166.055 136.029 165.872C135.542 165.743 134.817 166.505 133.596 167.226Z" fill="#041C33"/>
<path d="M149.321 291.65C150.022 293.182 150.724 294.716 151.425 296.248C151.853 296.07 152.282 295.89 152.709 295.712C152.124 294.14 151.54 292.567 150.957 290.996C150.412 291.213 149.867 291.432 149.321 291.65Z" fill="#041C33"/>
<path d="M151.552 388.743C143.445 383.966 136.352 386.724 129.543 391.783C132.186 388.323 135.772 386.115 139.792 385.464C143.813 384.814 148.02 385.322 152.249 385.322C149.471 381.445 136.206 382.154 129.348 387.895C119.885 395.814 117.273 409.375 123.635 418.383C130.411 427.974 145.346 429.406 150.7 425.424C146.396 425.118 141.851 425.459 137.716 424.311C133.77 423.214 130.252 420.569 126.547 418.603C126.691 418.351 126.833 418.099 126.977 417.847C127.398 418.133 127.819 418.418 128.989 419.211C124.085 410.804 122.184 402.637 128.684 395.29C134.666 388.532 142.317 385.495 151.552 388.743ZM124.704 414.131C124.42 414.16 124.133 414.192 123.849 414.221C123.475 410.409 123.101 406.595 122.727 402.783C122.936 402.762 123.144 402.738 123.352 402.717C123.802 406.521 124.254 410.327 124.704 414.131Z" fill="#041C33"/>
<path d="M128.489 415.782C128.489 410.317 128.489 404.932 128.489 399.139C126.377 404.987 127.556 410.389 128.489 415.782Z" fill="#041C33"/>
<path d="M131.97 404.641C131.629 411.12 131.956 412.851 134.097 415.608C133.374 411.89 132.546 407.615 131.97 404.641Z" fill="#041C33"/>
<path d="M155.792 238.383C156.522 238.557 157.399 238.527 157.956 238.936C160.932 241.118 163.829 243.412 166.92 245.794C166.495 246.179 165.894 246.726 165.29 247.271C168.418 245.354 170.761 246.286 173.114 248.498C174.24 248.498 175.773 248.248 177.201 248.535C204.261 254.002 223.689 232.32 225.469 212.381C227.078 194.366 216.852 177.853 199.843 171.073C183.555 164.58 164.933 169.789 153.499 183.839C144.282 195.164 142.274 208.006 146.047 221.666C147.395 226.54 149.869 231.37 153.743 235.133C154.697 236.062 155.215 237.441 155.792 238.383ZM148.978 217.983C148.392 216.586 147.664 215.538 147.527 214.421C146.133 202.85 149.109 192.684 156.939 183.867C168.067 171.337 186.888 167.294 201.617 174.566C222.319 184.789 229.129 209.452 216.863 229.055C207.303 244.332 189.673 250.395 172.921 244.445C168.276 242.794 163.975 239.864 159.898 236.976C153.797 232.654 150.431 226.304 148.507 219.18C148.369 218.663 149 217.934 148.978 217.983Z" fill="#041C33"/>
<path d="M186.929 109.943C190.949 110.441 193.579 112.334 193.676 116.842C195.579 115.191 195.573 114.198 194.103 111.946C192.248 109.107 189.882 108.305 186.929 109.943Z" fill="#041C33"/>
<path d="M181.023 289.642C181.736 286.922 180.271 285.601 178.418 285.207C177.277 284.962 175.697 285.676 174.682 286.445C174.207 286.805 174.601 288.319 174.953 289.3C176.733 286.881 176.733 286.881 181.023 289.642Z" fill="#041C33"/>
<path d="M176.65 289.681C177.618 293.479 174.41 294.05 171.747 295.916C174.826 296.33 177.168 296.334 178.309 294.007C178.872 292.86 178.218 291.111 178.114 289.634C177.628 289.65 177.139 289.665 176.65 289.681Z" fill="#041C33"/>
<path d="M156.643 203.159C156.752 203.266 157.849 204.179 157.769 204.296C156.372 206.367 159.16 210.07 155.338 210.873C156.121 211.408 157.623 212.008 157.582 212.473C157.276 215.955 161.248 219.055 158.624 222.848C159.308 222.758 160.118 222.65 160.93 222.543C160.625 223.34 160.319 224.135 160.223 224.387C161.199 225.098 162.052 225.646 162.822 226.292C166.449 229.346 170.052 232.427 173.808 235.62C173.899 235.489 173.576 235.952 173.241 236.429C175.119 236.429 177.076 236.026 178.796 236.497C187.036 238.756 197.264 235.257 202.687 230.059C207.893 225.069 211.861 219.532 212.899 212.277C214.635 200.162 207.695 188.007 196.395 183.128C184.396 177.946 171.385 181.227 163.176 191.889C161.084 194.607 160.021 198.112 158.387 201.205C157.978 201.979 157.196 202.555 156.643 203.159ZM162.876 216.414C162.317 215.474 161.451 214.597 161.248 213.586C160.099 207.809 160.603 202.258 163.41 196.912C168.724 186.795 180.532 181.42 191.327 184.259C205.051 187.868 210.71 199.827 210.248 210.017C209.83 219.266 203.552 227.367 194.568 230.175C184.377 233.359 175.117 231.597 167.284 223.956C165.816 221.441 164.345 218.926 162.876 216.414Z" fill="#041C33"/>
<path d="M167.284 223.954C167.855 223.786 168.426 223.616 169.491 223.303C176.393 228.473 180.372 229.745 188.413 228.807C186.091 228.539 184.55 228.361 183.009 228.182C189.71 227.687 195.671 225.651 200.852 221.318C208.472 214.944 209.411 206.965 203.388 199.06C197.622 191.494 190.357 187.442 180.653 189.589C173.408 191.191 168.654 195.91 165.674 202.569C165.126 203.792 164.655 205.052 163.753 206.205C163.856 205.152 163.959 204.101 164.067 203.004C161.096 205.507 160.743 209.648 162.876 216.416C164.345 218.926 165.816 221.441 167.284 223.954ZM167.937 208.714C167.995 199.146 175.629 191.655 185.372 191.606C194.985 191.559 202.533 198.966 202.564 208.475C202.593 217.365 194.967 224.882 185.773 224.503C174.969 224.061 167.949 218.592 167.937 208.714Z" fill="#041C33"/>
</g>
</svg>
