<svg width="111" height="162" viewBox="0 0 111 162" fill="none" xmlns="http://www.w3.org/2000/svg">
<g opacity="0.07" clip-path="url(#clip0_6622_2133)">
<path d="M44.9061 11.6611C46.0063 11.5255 47.0142 11.3623 48.0283 11.2826C52.0152 10.9694 55.425 12.9328 57.2399 16.5092C59.0494 20.0761 60.0214 23.9095 60.8155 27.7884C61.5145 31.2014 62.1389 34.6327 62.6709 38.0755C62.9457 39.8531 62.9486 41.6727 63.0807 43.5681C63.0821 43.5675 62.9685 43.6368 62.8455 43.6774C61.6641 44.0629 61.2978 44.4528 61.2605 45.6912C61.181 48.3134 60.6762 50.8513 59.8892 53.3403C58.3432 58.2301 55.7312 62.3099 51.0402 64.7314C46.9578 66.8385 42.6955 66.8668 38.4006 65.5011C34.6868 64.3201 31.4302 62.3078 28.5568 59.6766C27.0425 58.2895 26.9785 58.2633 25.0478 58.8089C24.6679 58.2311 24.2825 57.6315 23.8828 57.0421C23.4116 56.347 23.1219 55.4827 22.183 55.2111C22.0757 55.18 21.9973 55.0157 21.9243 54.901C19.0683 50.3967 16.1083 45.9539 13.4093 41.3579C12.1767 39.2587 11.2434 36.9201 10.5574 34.5784C9.40233 30.635 10.8968 26.9564 14.2723 24.5696C14.565 24.3623 14.88 24.1852 15.1624 23.9648C15.7995 23.468 16.3435 23.2522 17.087 23.9286C17.7219 24.507 18.6109 24.3587 19.3816 24.0705C20.9334 23.4906 22.4932 22.9185 23.9952 22.2246C24.5262 21.9794 25.053 21.4662 25.3155 20.9417C26.5267 18.5178 25.6118 15.4543 23.3385 14.0095C22.4865 13.4678 21.5332 13.2377 20.6657 13.7492C18.842 14.8245 17.0522 15.9688 15.3307 17.1996C14.5305 17.7715 14.1028 18.6552 14.3006 19.7575C14.3464 20.0138 14.0516 20.4581 13.7916 20.622C11.7357 21.9193 9.9025 23.4441 8.58163 25.5157C6.44727 28.8636 6.02811 32.4524 7.10067 36.2558C8.19422 40.1363 10.1051 43.6339 12.2504 46.994C14.2728 50.1613 16.4652 53.2205 18.6032 56.3133C18.9785 56.8561 19.273 57.3561 19.1084 58.064C18.9359 58.8063 19.3243 59.398 19.8117 59.9258C21.0869 61.306 22.3655 62.6825 23.6251 64.0767C23.8114 64.2831 24.0211 64.585 24.0092 64.8321C23.9688 65.6546 24.3252 66.2626 24.8536 66.8297C25.4181 67.4353 26.1382 67.9788 26.4772 68.6971C27.7273 71.3447 30.1508 72.9674 31.9294 75.1475C33.7061 77.3256 35.6654 79.3637 37.6401 81.3693C41.5222 85.3116 46.2119 87.4579 51.7974 87.3839C53.0294 87.3677 54.2586 87.1271 55.5336 86.9853C55.6075 87.1286 55.708 87.2908 55.7789 87.4654C58.8558 95.0856 61.931 102.706 65.0031 110.328C65.4479 111.432 65.4367 111.429 64.3992 111.989C58.3291 115.264 53.3875 119.724 50.1024 125.858C48.4881 128.872 47.3598 132.055 47.4399 135.562C47.4485 135.937 47.2245 136.318 47.0981 136.729C47.138 136.766 47.42 136.899 47.4519 137.076C47.6685 138.276 47.8317 139.487 48.0125 140.693C47.9393 140.686 47.8665 140.679 47.7935 140.672C47.9874 140.771 48.2782 140.82 48.3593 140.977C48.7361 141.708 49.0768 142.46 49.3883 143.22C49.72 144.03 51.0483 145.936 51.6868 146.447C51.6054 146.768 51.5243 147.087 51.4433 147.406C51.5122 147.424 51.5806 147.441 51.6495 147.459C51.7089 147.239 51.7678 147.02 51.8212 146.822C52.9374 147.69 54.0349 148.544 55.2013 149.451C55.0515 149.67 54.881 149.919 54.7106 150.168C54.7305 150.21 54.75 150.251 54.7699 150.292C55.031 150.074 55.2926 149.856 55.6777 149.535C55.678 149.913 55.6783 150.193 55.6786 150.699C55.9877 150.65 56.2937 150.593 56.6016 150.555C56.764 150.535 56.9514 150.496 57.0911 150.554C57.5672 150.751 58.0273 150.986 58.5363 151.227C58.5033 151.338 58.4566 151.493 58.4114 151.645C58.4951 151.674 58.524 151.696 58.5444 151.69C60.1314 151.209 61.3949 152.456 62.884 152.519C63.1057 152.529 63.3188 152.737 63.5113 152.839C63.5905 152.794 63.7319 152.64 63.8506 152.655C65.2161 152.833 66.5785 153.037 67.8974 153.341C68.2194 153.266 68.5421 153.126 68.8643 153.126C71.2893 153.127 73.6875 152.906 76.0583 152.384C77.4999 152.066 78.9787 151.886 80.392 151.476C81.5649 151.136 82.658 150.527 83.8042 150.085C84.179 149.94 84.7315 150.081 84.9951 149.853C85.8078 149.148 86.8129 148.828 87.7198 148.323C90.4311 146.815 93.0364 145.13 95.3226 143.046C100.281 138.526 103.749 133.108 103.884 126.188C104.005 120.007 101.13 115.276 95.9427 111.94C91.6756 109.196 86.9494 108.051 81.9438 107.921C78.4209 107.829 74.9468 108.256 71.5192 109.066C71.2526 109.13 70.9826 109.177 70.6162 109.253C70.4875 108.934 70.367 108.633 70.2455 108.333C67.1855 100.766 64.1337 93.1954 61.0518 85.6375C60.7753 84.9594 60.8305 84.6329 61.4898 84.1969C65.6554 81.4426 68.0442 77.4645 68.9831 72.6312C69.3492 70.7478 69.442 68.7936 69.482 66.8674C69.5727 62.4746 69.5558 58.0788 69.5752 53.6846C69.5765 53.4111 69.6155 53.0581 69.4694 52.8769C68.7017 51.9232 68.9962 50.8224 68.9673 49.7699C68.9395 48.7559 69.1153 47.7035 68.1252 46.9617C67.9807 46.8536 67.9876 46.5013 67.9791 46.2601C67.9125 44.3545 67.8641 42.4483 67.8008 40.5424C67.7698 39.6091 67.4697 38.8378 66.6198 38.3002C66.3849 38.1514 66.2614 37.7065 66.2231 37.3819C65.6139 32.2091 64.757 27.0842 63.302 22.0769C62.4045 18.989 61.3943 15.917 59.5332 13.2609C56.7317 9.26285 52.7694 7.54659 47.9428 7.79553C46.7878 7.85495 45.6409 8.06464 44.4872 8.16992C44.2576 8.19093 43.8957 8.12961 43.7951 7.97529C43.0912 6.89651 42.0086 6.62245 40.8902 6.76429C39.0889 6.99311 37.2852 7.30722 35.5312 7.76988C33.9703 8.1816 33.2642 9.31923 33.2455 10.9331C33.2173 13.4141 34.4256 15.1612 36.5802 16.22C37.1363 16.4934 37.9696 16.5267 38.5653 16.3325C40.1631 15.8116 41.6984 15.0998 43.2652 14.4797C44.5103 13.9881 44.8203 12.9369 44.9061 11.6611ZM69.6742 133.651C69.8699 133.729 70.1627 133.75 70.2447 133.892C70.6401 134.579 70.9787 135.299 71.3373 136.007C71.438 136.024 71.5392 136.041 71.6399 136.059C71.4553 136.683 72.0773 136.75 72.3323 136.806C73.9364 137.159 75.5521 137.287 77.1781 136.844C79.4081 136.238 81.182 135.049 82.2979 132.984C82.691 132.257 82.8309 131.484 82.5496 130.686C82.2363 135.07 75.914 137.203 72.8012 135.64C72.9337 135.405 73.0648 135.171 73.196 134.938C73.3502 134.795 73.5043 134.652 73.6585 134.509C73.7121 134.448 73.7563 134.349 73.8204 134.333C74.8421 134.09 75.8639 133.847 76.8931 133.64C76.9776 133.623 77.1142 133.863 77.2266 133.985L77.2005 133.965C77.3317 133.793 77.4287 133.568 77.5998 133.458C78.3328 132.991 79.0878 132.557 79.835 132.111C79.8259 132.094 79.817 132.077 79.8079 132.06C79.6861 132.123 79.5647 132.185 79.5763 132.18C80.5431 130.964 81.5936 129.644 82.6375 128.332C83.7722 129.788 83.8039 131.451 82.8667 133.107C80.9666 136.462 76.4755 138.342 72.5192 137.331C71.9954 137.197 71.1505 137.163 71.1418 136.241C70.9964 136.274 70.8052 136.384 70.7127 136.328C69.9336 135.864 69.2469 134.143 69.4469 133.085C69.5424 133.324 69.6082 133.487 69.6742 133.651ZM65.8818 132.754L65.8679 132.785C66.1584 132.261 66.4486 131.738 66.8721 130.974C67.1002 131.54 67.2375 131.881 67.3747 132.221C67.9513 131.963 67.8453 132.374 67.8653 132.703C67.9053 133.351 67.8927 134.018 68.0463 134.641C68.3287 135.787 68.7761 136.849 69.929 137.456C70.2997 137.651 70.5731 138.032 70.8912 138.328C71.0823 138.363 71.3034 138.35 71.4594 138.444C72.0486 138.8 72.5899 138.725 72.7839 138.302C73.4404 138.325 74.0656 138.408 74.6803 138.358C77.6164 138.119 80.0815 136.742 82.1926 134.833C84.5634 132.69 84.7214 130.328 83.0004 127.563C82.9085 127.415 82.8419 127.207 82.8633 127.04C82.9653 126.251 83.1026 125.467 83.2351 124.634C84.6683 124.672 86.0442 125.053 87.3295 125.718C89.8756 127.036 91.0022 129.32 90.2444 132.073C89.8948 133.343 89.2644 134.631 88.4445 135.657C85.0991 139.846 80.615 142.124 75.3702 142.909C72.6003 143.324 69.8663 143.192 67.3193 141.781C65.5589 140.805 64.4833 139.404 64.3124 137.223C64.6172 137.979 64.7886 138.661 65.1401 139.232C66.5558 141.531 68.8369 142.475 71.3476 142.573C77.7264 142.823 83.219 140.701 87.542 135.897C88.4849 134.849 89.2059 133.629 89.4942 132.216C86.8558 138.59 76.858 143.225 70.405 141.644C70.5918 141.389 70.773 141.143 70.9545 140.896C70.8818 140.866 70.809 140.837 70.7362 140.807C70.4798 141.128 70.2228 141.448 69.9664 141.77C69.9156 141.735 69.8641 141.7 69.8133 141.665C69.8387 141.449 69.8645 141.232 69.8899 141.015C69.8499 141.002 69.8101 140.989 69.7701 140.975C69.6393 141.18 69.5082 141.386 69.3657 141.61C69.1073 141.469 68.9087 141.319 68.6854 141.248C67.4683 140.86 66.5547 140.082 65.7986 139.079C64.3663 137.181 64.6591 134.159 65.8818 132.754ZM70.7958 145.75C70.2099 145.795 69.624 145.882 69.0386 145.879C66.5782 145.867 64.1191 145.66 61.8008 144.827C60.0239 144.188 58.2194 143.447 56.668 142.395C53.8221 140.466 52.7433 137.571 53.3049 134.209C54.3215 128.12 58.4335 124.112 62.8695 120.36C63.0204 120.232 63.2439 120.191 63.433 120.108C63.6414 120.017 63.8412 119.887 64.0585 119.842C64.3037 119.79 64.5643 119.814 64.8186 119.805C64.8144 119.736 64.8096 119.668 64.8054 119.599C64.5763 119.623 64.3473 119.646 64.1182 119.67C64.0799 119.543 64.0416 119.416 64.0039 119.29C64.6561 119.027 65.6669 118.932 65.8841 118.465C66.3002 117.572 67.2241 117.768 67.6462 117.118C67.7754 117.194 67.9042 117.27 68.0334 117.346C67.8854 117.498 67.7381 117.652 67.5901 117.805C67.6177 117.706 67.6453 117.607 67.6735 117.508C67.7974 117.644 67.9961 117.768 68.0226 117.921C68.0453 118.053 67.8731 118.219 67.7822 118.378C67.9925 118.56 68.8525 118.489 68.1775 119.059C68.373 119.29 68.6168 119.484 68.7358 119.737C68.9863 120.268 69.082 120.892 69.4066 121.364C69.7879 121.919 69.5884 122.188 69.1546 122.49C68.998 122.6 68.8695 122.75 68.7314 122.884C66.8179 124.741 65.726 126.88 66.3531 129.646C66.4118 129.905 66.2622 130.254 66.1165 130.508C65.3245 131.889 64.3959 133.204 63.7252 134.639C63.1638 135.841 63.048 137.197 63.1978 138.547C63.2258 138.802 63.1771 139.066 63.1672 139.265C63.2827 139.393 63.4825 139.527 63.5552 139.71C63.8788 140.525 64.0864 141.398 64.4973 142.163C64.7291 142.594 65.3177 142.818 65.67 143.205C67.0467 144.716 68.9086 145.176 70.7958 145.75ZM97.494 122.834C98.7795 128.442 93.732 134.993 90.2948 137.699C90.7362 136.806 91.2856 135.846 91.6993 134.829C93.1401 131.29 91.8212 127.39 88.5802 125.359C87.0406 124.395 85.3458 123.987 83.5811 123.736C83.2599 123.69 82.8471 123.467 82.6934 123.2C81.8938 121.813 80.7671 120.804 79.2418 120.408C78.0553 120.1 76.8045 119.994 75.5749 119.919C75.042 119.885 74.7893 119.724 74.6144 119.263C74.0868 117.87 73.5393 116.485 73.0052 115.094C72.9969 115.072 73.0629 115.022 73.142 114.927C73.2503 115.098 73.3441 115.245 73.393 115.322C74.0307 114.372 75.0872 114.912 75.8319 114.441C75.9268 114.783 75.9894 115.008 76.0519 115.232C76.0886 115.22 76.1257 115.206 76.1624 115.194C76.1313 114.971 76.1004 114.748 76.0624 114.478C79.5565 114.125 82.9873 114.126 86.4021 114.742C86.5475 114.768 86.6455 115.057 86.7788 115.241C87.1126 114.449 87.3035 114.977 87.5521 115.21C89.1549 115.194 90.4989 116.06 91.9595 116.575C91.8486 116.784 91.7698 116.933 91.6444 117.169C91.9997 117.026 92.2227 116.936 92.4457 116.847C92.3963 117.067 92.3462 117.287 92.274 117.609C92.5361 117.431 92.7398 117.291 92.9437 117.153C93.3233 117.431 93.6906 117.701 94.0538 117.967C93.954 118.123 93.8651 118.262 93.7767 118.401C93.8063 118.432 93.836 118.463 93.8653 118.494C94.0365 118.399 94.208 118.304 94.3906 118.203C94.5448 118.383 94.6919 118.555 94.8448 118.734C94.6588 118.809 94.5283 118.861 94.3029 118.952C94.5978 119.106 94.7945 119.208 94.997 119.313C95.0204 119.172 95.0404 119.05 95.0601 118.929C95.1446 118.924 95.229 118.919 95.3131 118.915C95.3483 119.209 95.3833 119.502 95.4173 119.784C96.0267 119.705 96.7364 120.526 97.0357 121.8C96.8771 121.851 96.7185 121.901 96.5278 121.962C96.8531 122.109 97.1136 122.227 97.3737 122.346C97.1993 122.506 97.0249 122.667 96.7416 122.928C97.0754 122.885 97.2863 122.859 97.494 122.834ZM62.8585 52.9168C62.9328 52.9365 63.0071 52.9563 63.0815 52.9765C63.0957 53.2165 63.1328 53.4578 63.1203 53.6968C63.0012 56.0407 62.9304 58.3886 62.7345 60.7261C62.4819 63.7391 61.9264 66.6893 60.6173 69.4568C58.5581 73.8102 53.7855 76.7404 48.9876 76.5791C45.8352 76.4734 43.0017 75.3604 40.5687 73.4708C37.85 71.359 35.3366 68.9807 32.7439 66.7071C32.4026 66.408 32.1188 66.0438 31.8085 65.7093C31.8464 65.6527 31.8846 65.5954 31.9226 65.5388C32.2329 65.6852 32.5463 65.8252 32.853 65.9791C34.4086 66.7589 35.9475 67.5722 37.5192 68.3175C40.6719 69.8116 43.9944 70.6371 47.4793 70.2275C53.1147 69.565 57.1343 66.4442 59.5992 61.4443C60.8374 58.9337 61.6154 56.1954 62.6029 53.5608C62.684 53.3444 62.7733 53.1314 62.8585 52.9168ZM64.1767 52.3923C64.2339 52.3933 64.291 52.3938 64.3477 52.3949C64.3591 52.6293 64.381 52.8634 64.3807 53.098C64.3805 55.5559 64.399 58.0147 64.3682 60.4727C64.3256 63.8963 64.4492 67.3379 64.1361 70.7376C63.6022 76.5334 59.4947 80.9494 53.9825 81.9055C49.4396 82.694 45.3786 81.4798 42.0933 78.2675C38.3044 74.5634 34.6993 70.6708 31.0189 66.8555C30.7881 66.6162 30.5944 66.3414 30.3833 66.0831C30.6034 65.9916 30.7058 66.0162 30.7713 66.0792C32.4009 67.6515 33.9978 69.2589 35.6596 70.7965C37.9189 72.8873 40.3387 74.7829 43.1602 76.0581C48.5481 78.4932 53.5991 77.888 58.1869 74.1396C60.6847 72.0991 61.9694 69.2862 62.7498 66.2342C63.6228 62.8188 63.8798 59.3171 64.033 55.807C64.0827 54.6686 64.1291 53.5304 64.1767 52.3923ZM97.4797 115.476C97.5265 115.766 97.5754 115.874 97.5447 115.907C96.9623 116.531 96.9979 117.043 97.8008 117.433C97.8459 117.455 97.8875 117.506 97.9088 117.553C98.3313 118.501 98.7499 119.45 99.1695 120.399C99.729 121.664 100.21 122.934 100.223 124.362C100.248 127.206 99.314 129.674 97.7407 132.023C93.8497 137.831 88.7247 142.171 82.3474 144.924C75.7019 147.793 68.7595 148.424 61.6716 146.829C58.2016 146.048 55.0279 144.579 52.9116 141.593C49.1903 136.341 48.9726 130.719 51.9067 125.099C54.5909 119.958 58.9275 116.364 63.8117 113.399C64.4373 113.019 65.0937 112.689 65.7253 112.342C66.2255 112.977 66.1727 113.369 65.5239 113.74C61.8694 115.83 58.9698 118.761 56.4133 122.06C54.0554 125.102 52.0988 128.346 51.4243 132.219C50.7846 135.893 51.5569 139.115 54.3457 141.762C56.8171 144.108 59.7898 145.477 63.0532 146.113C71.9259 147.842 80.0905 145.964 87.5921 141.004C92.021 138.076 95.5739 134.369 97.6373 129.414C99.3175 125.38 99.336 121.345 97.1738 117.425C96.9746 117.064 96.6998 116.738 96.5457 116.362C96.4857 116.216 96.6594 115.971 96.7361 115.776C96.741 115.763 96.8291 115.784 96.8717 115.789C96.83 115.988 96.7887 116.187 96.747 116.387C96.8028 116.405 96.858 116.423 96.9139 116.441C97.0698 116.175 97.2254 115.91 97.4797 115.476ZM63.9468 38.3811C63.8644 38.3841 63.7827 38.3875 63.7003 38.3905C63.2676 35.8708 62.8481 33.3492 62.3987 30.8323C61.6465 26.6177 60.7651 22.4323 59.174 18.4374C58.2467 16.1081 57.1055 13.8984 55.0347 12.3475C52.4587 10.4183 49.5259 10.1035 46.4487 10.522C45.8374 10.6053 45.2306 10.7235 44.6214 10.826C44.5875 10.728 44.5543 10.6303 44.5204 10.5323C45.128 10.3456 45.7362 10.1591 46.3438 9.97241C46.0194 9.82843 45.7302 9.82321 45.4466 9.85818C45.1274 9.89744 44.8124 9.97188 44.4226 10.0446C44.3928 9.73001 44.3687 9.47507 44.3404 9.17937C45.005 9.06234 45.597 8.93381 46.1959 8.8567C50.1677 8.34413 53.8562 8.92838 56.9631 11.7062C58.7213 13.2781 59.7759 15.3161 60.6618 17.4444C62.5545 21.9912 63.691 26.746 64.451 31.5973C64.7925 33.7757 65.107 35.9578 65.4398 38.1771C64.7854 38.2336 64.1436 38.5653 64.053 37.3456C63.9988 37.8766 63.9728 38.1289 63.9468 38.3811ZM19.8918 56.4541C19.7794 56.3397 19.6934 56.2716 19.6311 56.1862C16.3625 51.7024 13.2154 47.1384 10.6275 42.2163C9.15673 39.418 7.87396 36.5523 7.54556 33.348C7.00499 28.0716 10.5969 23.1241 14.9156 21.2066C15.1508 21.6255 15.3854 22.0447 15.5898 22.4095C14.565 23.2222 13.5275 23.9523 12.5964 24.7998C9.58601 27.5409 8.54519 30.9301 9.64447 34.8608C10.1254 36.5816 10.7981 38.2664 11.5509 39.89C13.7688 44.6754 16.8084 48.97 19.7455 53.3227C20.2327 54.0449 20.6867 54.7899 21.1512 55.5168C20.696 55.8548 20.3261 56.1306 19.8918 56.4541ZM71.2615 117.296C71.2554 117.123 71.307 116.874 71.23 116.673C70.7636 115.452 70.2701 114.241 69.7825 113.028C68.9949 111.069 68.2054 109.11 67.4163 107.152C66.0191 103.684 64.6217 100.216 63.2246 96.7481C61.9987 93.7055 60.7728 90.6628 59.5314 87.5817C59.9056 87.4672 60.2257 87.3695 60.5742 87.2632C65.0001 98.2483 69.4043 109.18 73.8333 120.172C73.4616 120.285 73.1839 120.369 72.9739 120.433C72.6233 119.989 72.3295 119.616 72.0453 119.257C72.5873 118.776 71.7054 118.307 71.6729 117.757C71.6631 117.583 71.3832 117.425 71.2615 117.296ZM102.685 127.963C102.577 126.683 102.582 125.379 102.328 124.128C102.072 122.866 101.659 121.612 101.141 120.43C99.1547 115.891 95.6186 113.085 90.9776 111.592C86.222 110.063 81.3611 109.813 76.4387 110.466C74.7832 110.686 73.1359 110.964 71.4808 111.215C71.35 110.89 71.2312 110.595 71.1057 110.284C71.2495 110.216 71.3439 110.161 71.4448 110.127C71.6274 110.064 71.8115 110.002 71.9994 109.959C76.1698 109.004 80.3817 108.582 84.6535 109.049C89.8097 109.612 94.5061 111.29 98.2823 114.998C101.913 118.564 103.253 122.951 102.685 127.963ZM76.5216 131.802C74.7794 132.55 72.972 132.635 71.145 132.329C68.3552 131.863 67.0891 129.876 67.7875 127.142C69.0153 122.335 75.0052 119.462 79.521 121.514C81.7439 122.524 82.6546 124.87 81.6695 127.136C80.6582 129.464 78.6791 130.739 76.5216 131.802ZM65.6224 77.4302C65.524 76.9383 65.3504 76.618 65.4288 76.381C66.4335 73.3352 67.0811 70.2194 67.1457 67.0108C67.2132 63.667 67.174 60.3215 67.182 56.9766C67.1854 55.4923 67.1895 54.0082 67.1934 52.5404C68.4241 52.8017 68.5047 52.8926 68.4982 54.199C68.4772 58.4218 68.4203 62.6441 68.4406 66.8671C68.4515 69.0911 68.3035 71.2819 67.6466 73.4131C67.2203 74.7982 66.6691 76.128 65.6224 77.4302ZM28.0686 60.7393C29.4487 61.7298 30.7043 62.7282 32.0522 63.5804C35.6358 65.8468 39.4827 67.4024 43.7954 67.3611C49.9838 67.3016 54.7542 64.5862 58.1457 59.4319C59.8076 56.9064 60.7844 54.0874 61.4814 51.1729C61.8223 49.7474 62.0003 48.2826 62.2775 46.6852C62.6499 48.1421 62.5232 49.4561 62.2138 50.7426C61.2879 54.5914 59.8569 58.2087 57.4163 61.3875C53.9919 65.847 49.6096 68.2905 43.889 68.0152C39.579 67.8075 35.6034 66.512 31.9328 64.2499C30.4456 63.3338 29.0188 62.3548 28.0686 60.7393ZM29.4222 66.8494C29.4945 66.8253 29.5674 66.8015 29.6396 66.7775C30.1358 67.3201 30.6206 67.873 31.1294 68.4039C34.3954 71.8106 37.6102 75.2685 40.9487 78.6018C46.243 83.8881 54.5225 84.4591 60.0021 80.4629C60.1002 80.6122 60.194 80.7553 60.2478 80.8375C59.8907 81.0193 59.5678 81.1488 59.2829 81.3368C58.7108 81.7141 58.204 82.2159 57.5937 82.5053C52.4502 84.9422 47.5435 84.114 43.0098 81.0294C41.0424 79.6908 39.3703 77.8883 37.672 76.1884C35.9267 74.4409 34.3072 72.5669 32.6443 70.7377C31.6026 69.5924 30.5792 68.4302 29.5587 67.2657C29.4699 67.1641 29.4653 66.9895 29.4222 66.8494ZM39.7107 68.0749C43.4529 68.6884 47.1502 68.8157 50.7532 67.3339C54.3581 65.8513 56.9202 63.1943 59.086 60.0626C56.0328 67.6808 48.0029 71.523 39.7107 68.0749ZM64.7417 46.9173C64.4302 44.8257 64.1066 42.736 63.8132 40.6421C63.6693 39.6141 64.1143 39.093 65.1539 38.9852C65.782 38.9198 66.7288 39.4534 66.7958 39.9876C66.8988 40.8132 66.9195 41.6491 66.9747 42.4805C66.9329 42.4834 66.8912 42.4863 66.8501 42.4894C66.6416 41.7091 66.4331 40.9288 66.2246 40.1485C66.1384 40.1698 66.0527 40.1909 65.9666 40.2122C66.1266 42.3387 66.2864 44.4647 66.444 46.5576C65.8272 46.6883 65.295 46.8005 64.7417 46.9173ZM23.8712 17.274C23.33 17.0001 22.9001 16.7244 22.4311 16.5649C22.1197 16.4587 21.7291 16.4357 21.4154 16.523C20.9716 16.646 20.551 16.8791 20.1464 17.1102C18.5872 18.0009 17.0382 18.9097 15.4686 19.8218C15.0542 18.9218 15.4943 18.3263 16.0443 17.9316C17.56 16.843 19.1213 15.8125 20.7051 14.8237C21.4909 14.3335 22.3563 14.5141 23.0178 15.0907C23.632 15.6261 24.1084 16.3202 24.6453 16.9442C24.5809 16.9975 24.5165 17.0508 24.4521 17.1041C24.2146 16.8023 23.977 16.5004 23.7393 16.1981C23.6893 16.2317 23.6388 16.2654 23.5886 16.2985C23.67 16.5795 23.751 16.8595 23.8712 17.274ZM42.7201 8.9098C42.6456 9.23685 42.6038 9.4223 42.5245 9.76916C42.2549 8.90627 41.7 9.15328 41.2821 9.23119C40.0833 9.45568 38.8866 9.71171 37.709 10.0276C36.7607 10.2818 35.8406 10.6419 34.9106 10.9541C34.5263 9.70967 34.8529 8.92092 36.1754 8.62312C37.8595 8.24443 39.5734 7.95761 41.2898 7.7753C42.5139 7.64556 42.9736 8.13763 43.2228 9.48669C43.0477 9.28588 42.919 9.13787 42.7201 8.9098ZM24.8786 63.4081C23.4396 61.458 22.0647 59.5977 20.6944 57.7338C20.285 57.1768 20.7847 56.9341 21.1095 56.6832C21.4671 56.4074 21.9114 55.9911 22.3155 56.558C23.6869 58.4817 25.0186 60.4338 26.4936 62.5592C26.0151 62.5421 25.7386 62.5323 25.4245 62.5204C25.3025 62.7186 25.1065 63.0371 24.8786 63.4081ZM65.0886 49.9088C65.0788 49.8748 64.9816 49.6917 64.9831 49.5102C64.9881 48.9554 64.8231 48.1168 65.1058 47.9097C65.5906 47.5536 66.3724 47.4714 67.0138 47.5139C67.3506 47.5363 67.8534 48.0221 67.9327 48.3765C68.1021 49.1346 68.0455 49.9431 68.0782 50.6635C67.0741 50.4098 66.1421 50.1745 65.0886 49.9088ZM28.4684 64.4682C27.7561 65.4023 27.1198 66.2371 26.4965 67.0544C26.3419 66.8906 26.0627 66.5988 25.7889 66.3026C25.3862 65.8675 25.0807 65.5037 25.2143 64.7519C25.3792 63.8234 25.9447 63.4174 26.644 63.2909C27.0533 63.2165 27.5805 63.6423 28.0139 63.9087C28.2309 64.0419 28.3561 64.3236 28.4684 64.4682ZM67.6019 51.4596C66.2755 51.4133 64.9091 51.3658 63.6664 51.3221C64.4298 50.5137 66.6441 50.549 67.6019 51.4596ZM70.5556 137.118C68.8928 137.182 67.8126 134.332 68.4087 132.609C68.4497 134.538 68.8689 136.135 70.5556 137.118ZM30.2828 64.7215C29.3825 65.6192 28.4406 66.5587 27.541 67.4555C27.6248 66.2274 28.8825 64.9826 30.2828 64.7215ZM25.7613 59.9419C25.8038 59.8539 25.8466 59.7663 25.8892 59.6782C26.1293 59.7568 26.4987 59.7648 26.5872 59.9263C26.9835 60.6499 27.2995 61.4176 27.6447 62.1691C27.5699 62.216 27.4945 62.2626 27.4197 62.3095C26.8667 61.5206 26.3141 60.7315 25.7613 59.9419ZM63.8201 47.6321C63.7417 47.6519 63.6633 47.6718 63.5849 47.6916C63.2779 46.7734 62.9713 45.8546 62.6396 44.8626C62.926 44.8264 63.1468 44.7989 63.4307 44.7633C63.5683 45.7759 63.6942 46.704 63.8201 47.6321ZM95.1988 136.654C95.1493 136.618 95.0997 136.582 95.0501 136.547C95.9692 135.305 96.8877 134.064 97.8066 132.822C97.8599 132.863 97.9132 132.905 97.9664 132.945C97.0433 134.182 96.1212 135.418 95.1988 136.654ZM19.9434 58.4624C20.0284 58.4036 20.1134 58.3447 20.1989 58.2857C20.7994 59.0818 21.3993 59.8775 21.9998 60.6735C21.9446 60.7136 21.8896 60.7542 21.8339 60.7945C21.2041 60.017 20.5737 59.2397 19.9434 58.4624ZM94.5947 137.05C94.6341 137.091 94.6733 137.132 94.7127 137.173C93.8448 138.008 92.9768 138.844 92.1087 139.679C92.0652 139.633 92.0213 139.588 91.978 139.543C92.85 138.712 93.722 137.881 94.5947 137.05Z" fill="#041C33"/>
</g>
<defs>
<clipPath id="clip0_6622_2133">
<rect width="59.0003" height="150.33" fill="white" transform="matrix(-0.927546 0.373708 0.373708 0.927546 54.7256 0)"/>
</clipPath>
</defs>
</svg>
